# Exported from Wings 3D 1.5.2
mtllib Arrow.mtl
o Cube1
#46 vertices, 88 faces
v -0.16175548 0.33098681 -1.6716506e-2
v -5.5721686e-2 0.33098681 -1.6716506e-2
v 5.5721686e-2 0.33098681 -1.6716506e-2
v 0.16175548 0.33098681 -1.6716506e-2
v -8.0330656e-19 7.4758486e-3 -1.6716506e-2
v 0.16566989 0.33133977 -1.3373205e-2
v 0.16566989 0.33133977 1.3373205e-2
v 1.4951697e-3 2.9903394e-3 1.3373205e-2
v 1.4951697e-3 2.9903394e-3 -1.3373205e-2
v 5.2378384e-2 0.33767341 -1.6716506e-2
v -5.2378384e-2 0.33767341 -1.6716506e-2
v -5.2378384e-2 0.99964704 -1.6716506e-2
v 5.2378384e-2 0.99964704 -1.6716506e-2
v 5.5721686e-2 0.33767341 1.3373205e-2
v 5.5721686e-2 0.33767341 -1.3373205e-2
v 5.5721686e-2 0.99964704 -1.3373205e-2
v 5.5721686e-2 0.99964704 1.3373205e-2
v -0.16382176 0.33433011 -1.3373205e-2
v -0.16382176 0.33433011 1.3373205e-2
v -5.9064987e-2 0.33433011 1.3373205e-2
v -5.9064987e-2 0.33433011 -1.3373205e-2
v 0.16382176 0.33433011 1.3373205e-2
v 0.16382176 0.33433011 -1.3373205e-2
v 5.9064987e-2 0.33433011 -1.3373205e-2
v 5.9064987e-2 0.33433011 1.3373205e-2
v -0.16566989 0.33133977 1.3373205e-2
v -0.16566989 0.33133977 -1.3373205e-2
v -1.4951697e-3 2.9903394e-3 -1.3373205e-2
v -1.4951697e-3 2.9903394e-3 1.3373205e-2
v -5.5721686e-2 0.33767341 -1.3373205e-2
v -5.5721686e-2 0.33767341 1.3373205e-2
v -5.5721686e-2 0.99964704 1.3373205e-2
v -5.5721686e-2 0.99964704 -1.3373205e-2
v -5.2378384e-2 0.33767341 1.6716506e-2
v 5.2378384e-2 0.33767341 1.6716506e-2
v 5.2378384e-2 0.99964704 1.6716506e-2
v -5.2378384e-2 0.99964704 1.6716506e-2
v -5.5721686e-2 0.33098681 1.6716506e-2
v -0.16175548 0.33098681 1.6716506e-2
v -8.0330656e-19 7.4758486e-3 1.6716506e-2
v 0.16175548 0.33098681 1.6716506e-2
v 5.5721686e-2 0.33098681 1.6716506e-2
v -5.2378384e-2 1.00299034 -1.3373205e-2
v -5.2378384e-2 1.00299034 1.3373205e-2
v 5.2378384e-2 1.00299034 1.3373205e-2
v 5.2378384e-2 1.00299034 -1.3373205e-2
vn -0.43144478 0.10184219 -0.89637245
vn -0.14712898 0.29507447 -0.94407845
vn 0.11510368 0.20981970 -0.97094121
vn 0.28403840 0.34035073 -0.89637245
vn 0.10276809 -0.25125885 -0.96244881
vn 0.92815867 -1.9655509e-2 -0.37166536
vn 0.89979501 3.7827916e-2 0.43466998
vn 0.34618850 0.11575012 -0.93099701
vn -0.37555670 9.1125335e-2 -0.92230870
vn -0.32672707 0.32672707 -0.88684770
vn 0.36700100 0.36700100 -0.85476344
vn 0.85303697 0.31151388 0.41867293
vn 0.85476344 0.36700100 -0.36700100
vn 0.89286296 0.24407843 -0.37844610
vn 0.84199285 0.45337438 0.29240334
vn -0.39750476 0.83896056 -0.37166536
vn -0.43623488 0.78788396 0.43466998
vn -0.37097310 0.83312464 0.41022225
vn -0.32844825 0.83115473 -0.44866865
vn 0.39750476 0.83896056 0.37166536
vn 0.43623488 0.78788396 -0.43466998
vn 0.37097310 0.83312464 -0.41022225
vn 0.32844825 0.83115473 0.44866865
vn -0.92815867 -1.9655509e-2 0.37166536
vn -0.89979501 3.7827916e-2 -0.43466998
vn -0.85303697 0.31151388 -0.41867293
vn -0.85476344 0.36700100 0.36700100
vn -0.89286296 0.24407843 0.37844610
vn -0.84199285 0.45337438 -0.29240334
vn -0.34618850 0.11575012 0.93099701
vn 0.37555670 9.1125335e-2 0.92230870
vn 0.32672707 0.32672707 0.88684770
vn -0.36700100 0.36700100 0.85476344
vn -0.11510368 0.20981970 0.97094121
vn -0.28403840 0.34035073 0.89637245
vn -0.10276809 -0.25125885 0.96244881
vn 0.43144478 0.10184219 0.89637245
vn 0.14712898 0.29507447 0.94407845
vn -0.36700100 0.85476344 -0.36700100
vn -0.32672707 0.88684770 0.32672707
vn 0.36700100 0.85476344 0.36700100
vn 0.32672707 0.88684770 -0.32672707
vn 0.54629512 -0.73784076 0.39642485
vn 0.54629512 -0.73784076 0.39642485
vn 0.54629512 -0.73784076 0.39642485
vn 0.54629512 -0.73784076 0.39642485
vn 0.54629512 -0.73784076 0.39642485
vn 0.54629512 -0.73784076 0.39642485
vn 0.54629512 -0.73784076 0.39642485
vn 0.47849135 -0.73990275 -0.47285299
vn 0.47849135 -0.73990275 -0.47285299
vn 0.47849135 -0.73990275 -0.47285299
vn 0.47849135 -0.73990275 -0.47285299
vn -0.54629512 -0.73784076 -0.39642485
vn -0.54629512 -0.73784076 -0.39642485
vn -0.54629512 -0.73784076 -0.39642485
vn -0.54629512 -0.73784076 -0.39642485
vn -0.54629512 -0.73784076 -0.39642485
vn -0.54629512 -0.73784076 -0.39642485
vn -0.54629512 -0.73784076 -0.39642485
vn -0.47849135 -0.73990275 0.47285299
vn -0.47849135 -0.73990275 0.47285299
vn -0.47849135 -0.73990275 0.47285299
vn -0.47849135 -0.73990275 0.47285299
g Cube1_default
usemtl default
s 1
f 1//1 18//16 2//2
f 2//2 5//5 1//1
f 2//2 30//26 11//9
f 3//3 2//2 10//8
f 3//3 5//5 2//2
f 3//3 24//22 4//4
f 4//4 5//5 3//3
f 4//4 6//6 5//5
f 5//5 28//60 1//1
f 6//6 22//20 7//7
f 7//7 8//48 6//6
f 7//7 41//37 8//49
f 8//47 28//59 9//53
f 9//51 5//5 6//6
f 9//50 6//6 8//43
f 9//52 28//57 5//5
f 10//8 24//22 3//3
f 11//9 10//8 2//2
f 11//9 30//26 12//10
f 12//10 10//8 11//9
f 12//10 46//42 13//11
f 13//11 10//8 12//10
f 13//11 16//14 10//8
f 14//12 24//22 15//13
f 14//12 42//38 25//23
f 15//13 10//8 16//14
f 15//13 16//14 14//12
f 16//14 46//42 17//15
f 17//15 14//12 16//14
f 17//15 36//32 14//12
f 18//16 1//1 27//25
f 18//16 26//24 19//17
f 19//17 20//18 18//16
f 19//17 39//35 20//18
f 20//18 30//26 21//19
f 20//18 34//30 31//27
f 21//19 2//2 18//16
f 21//19 18//16 20//18
f 21//19 30//26 2//2
f 22//20 6//6 23//21
f 22//20 41//37 7//7
f 23//21 4//4 24//22
f 23//21 6//6 4//4
f 23//21 24//22 22//20
f 24//22 10//8 15//13
f 24//22 14//12 25//23
f 25//23 22//20 24//22
f 25//23 42//38 22//20
f 26//24 18//16 27//25
f 26//24 39//35 19//17
f 27//25 1//1 28//55
f 27//25 28//58 26//24
f 28//56 8//44 29//62
f 29//61 26//24 28//54
f 29//64 40//36 26//24
f 30//26 20//18 31//27
f 31//27 32//28 30//26
f 31//27 34//30 32//28
f 32//28 44//40 33//29
f 33//29 12//10 30//26
f 33//29 30//26 32//28
f 33//29 43//39 12//10
f 35//31 14//12 36//32
f 35//31 34//30 42//38
f 35//31 42//38 14//12
f 36//32 34//30 35//31
f 36//32 44//40 37//33
f 37//33 32//28 34//30
f 37//33 34//30 36//32
f 37//33 44//40 32//28
f 38//34 20//18 39//35
f 38//34 34//30 20//18
f 38//34 40//36 42//38
f 38//34 42//38 34//30
f 39//35 26//24 40//36
f 39//35 40//36 38//34
f 40//36 8//45 41//37
f 40//36 29//63 8//46
f 41//37 22//20 42//38
f 41//37 42//38 40//36
f 43//39 33//29 44//40
f 44//40 36//32 45//41
f 44//40 46//42 43//39
f 45//41 17//15 46//42
f 45//41 36//32 17//15
f 45//41 46//42 44//40
f 46//42 12//10 43//39
f 46//42 16//14 13//11
