# 3ds Max Wavefront OBJ Exporter v0.97b - (c)2007 guruware
# File Created: 24.02.2015 17:42:25

#
# object S_Cabinet_Draw_03
#

v  0.4801 26.2664 42.2571
v  0.4801 11.6846 42.1627
v  0.4801 11.8156 -2.4656
v  0.4801 26.5868 -2.4656
v  -0.3548 10.2058 41.2611
v  -0.3548 11.3035 42.9816
v  -0.9048 11.3035 42.9816
v  -0.9048 10.2058 41.2611
v  -0.3548 26.2995 43.1581
v  -0.9048 26.2995 43.1581
v  -0.3548 28.0201 42.0604
v  -0.9048 28.0201 42.0604
v  -0.3548 28.1759 -1.7941
v  -0.9048 28.1759 -1.7941
v  -0.3548 26.8471 -3.3306
v  -0.9048 26.8471 -3.3306
v  -0.3548 11.5553 -3.3306
v  -0.9048 11.5553 -3.3306
v  -0.9048 10.2264 -1.7941
v  -0.3548 10.2264 -1.7941
v  0.1902 26.4228 -2.6424
v  0.1902 11.9795 -2.6424
v  0.1902 27.3893 -1.5143
v  0.1902 27.2762 41.6419
v  0.1902 26.0065 42.4497
v  0.1902 11.7967 42.3191
v  0.1902 10.9968 41.0373
v  0.1902 11.0131 -1.5143
v  0.4801 27.2822 -1.6621
v  0.4801 27.2011 41.6793
v  0.4801 11.1068 41.2280
v  0.4801 11.1201 -1.6621
v  -37.2117 26.7623 -1.5485
v  -37.2117 11.7147 -1.5006
v  -37.2117 11.7147 41.0997
v  -37.2117 26.7623 41.1476
v  3.5454 19.0550 19.1009
v  3.5253 19.0550 18.7422
v  3.5253 19.3086 18.8472
v  3.5253 19.4137 19.1009
v  3.5253 19.3086 19.3545
v  3.5253 19.0550 19.4595
v  3.5253 18.8014 19.3545
v  3.5253 18.6963 19.1009
v  3.5253 18.8014 18.8472
v  3.0806 19.0550 17.5722
v  3.0806 20.1359 18.0199
v  3.0806 20.5837 19.1009
v  3.0806 20.1359 20.1818
v  3.0806 19.0550 20.6295
v  3.0806 17.9741 20.1818
v  3.0806 17.5263 19.1008
v  3.0806 17.9741 18.0199
v  2.2956 19.0550 17.2976
v  2.2956 20.3301 17.8258
v  2.2956 20.8582 19.1009
v  2.2956 20.3301 20.3759
v  2.2956 19.0550 20.9041
v  2.2956 17.7799 20.3759
v  2.2956 17.2518 19.1008
v  2.2956 17.7799 17.8258
v  1.0367 18.1647 18.2105
v  0.5092 18.1647 18.2105
v  0.5092 19.0550 17.8417
v  1.0367 19.0550 17.8417
v  1.0367 17.7959 19.1008
v  0.5092 17.7959 19.1008
v  1.0367 18.1647 19.9912
v  0.5092 18.1647 19.9912
v  1.0367 19.0550 20.3600
v  0.5092 19.0550 20.3600
v  1.0367 19.9453 19.9912
v  0.5092 19.9453 19.9912
v  1.0367 20.3141 19.1009
v  0.5092 20.3141 19.1009
v  1.0367 19.9453 18.2105
v  0.5092 19.9453 18.2105
v  1.5933 19.7773 18.3786
v  1.5933 19.0550 18.0794
v  1.5933 20.0764 19.1009
v  1.5933 19.7773 19.8231
v  1.5933 19.0550 20.1223
v  1.5933 18.3327 19.8231
v  1.5933 18.0336 19.1009
v  1.5933 18.3327 18.3786
v  1.0551 19.0550 18.0147
v  1.0551 19.8230 18.3328
v  1.0551 18.2870 18.3328
v  1.0551 17.9688 19.1009
v  1.0551 18.2870 19.8689
v  1.0551 19.0550 20.1870
v  1.0551 19.8230 19.8689
v  1.0551 20.1412 19.1009
v  -36.0808 11.2461 41.0518
v  -37.2117 11.2461 41.0518
v  -37.2117 11.2461 -1.4526
v  -36.0808 11.2461 -1.4526
v  -36.0808 11.7147 42.0161
v  -37.2117 11.7147 42.0161
v  -37.2117 11.2461 41.9661
v  -36.0808 11.2461 41.9661
v  -36.0808 26.7623 -1.5485
v  -36.0808 26.7623 41.1476
v  -36.0808 11.7147 -2.4170
v  -37.2117 11.7147 -2.4170
v  -37.2117 26.7623 -2.4670
v  -36.0808 26.7623 -2.4670
v  -36.0808 11.7147 41.0997
v  -36.0808 11.7147 -1.5006
v  -37.2117 11.2461 -2.3670
v  -36.0808 11.2461 -2.3670
v  -37.2117 26.7623 42.0661
v  -36.0808 26.7623 42.0661
v  -0.9617 26.7623 42.0661
v  -0.9617 11.7147 42.0161
v  -0.9617 11.7147 41.0997
v  -0.9617 26.7623 41.1476
v  -0.9617 11.2461 -2.3670
v  -0.9617 11.7147 -2.4170
v  -0.9617 11.7147 -1.5006
v  -0.9617 11.2461 -1.4526
v  -0.9617 11.2461 41.0518
v  -0.9617 11.2461 41.9661
v  -0.9617 26.7623 -2.4670
v  -0.9617 26.7623 -1.5485
# 125 vertices

vn 1.0000 -0.0000 -0.0000
vn 1.0000 0.0000 -0.0000
vn 0.0000 -0.9600 0.2799
vn -0.0000 -0.4859 0.8740
vn 0.0000 0.2745 0.9616
vn 0.0000 0.8760 0.4823
vn 0.0000 0.9377 -0.3474
vn -0.0000 0.4158 -0.9094
vn -0.0000 -0.4158 -0.9094
vn -0.0000 -0.9370 -0.3492
vn -0.0000 -0.9370 -0.3493
vn 0.8283 -0.2440 -0.5043
vn 0.8278 0.2437 -0.5053
vn 0.6749 0.2408 -0.6975
vn 0.6744 -0.2412 -0.6978
vn 0.8368 0.5139 -0.1888
vn 0.6179 0.7534 -0.2248
vn 0.8428 0.4710 0.2604
vn 0.6225 0.6995 0.3509
vn 0.8132 0.1679 0.5572
vn 0.6766 0.1454 0.7219
vn 0.6692 -0.2955 0.6818
vn 0.8332 -0.2804 0.4766
vn 0.8325 -0.5324 0.1532
vn 0.6125 -0.7720 0.1702
vn 0.6167 -0.7539 -0.2267
vn 0.8374 -0.5126 -0.1898
vn 0.1672 0.5691 -0.8051
vn 0.0912 0.8830 -0.4605
vn 0.1493 0.8273 0.5415
vn 0.2347 0.3954 0.8880
vn 0.1703 -0.6258 0.7612
vn 0.1008 -0.9203 0.3779
vn 0.0946 -0.8837 -0.4585
vn 0.1717 -0.5660 -0.8064
vn -1.0000 0.0000 0.0000
vn -1.0000 -0.0000 -0.0000
vn -1.0000 -0.0000 0.0000
vn 0.9698 -0.0000 -0.2440
vn 0.9698 0.1725 -0.1725
vn 0.9698 0.2440 -0.0000
vn 0.9698 0.1725 0.1725
vn 0.9698 0.0000 0.2440
vn 0.9698 -0.1725 0.1725
vn 0.9698 -0.2440 -0.0000
vn 0.9698 -0.1725 -0.1725
vn 0.9348 0.0000 -0.3553
vn 0.9348 0.2512 -0.2512
vn 0.9348 0.3553 -0.0000
vn 0.9348 0.2512 0.2512
vn 0.9348 -0.0000 0.3553
vn 0.9348 -0.2512 0.2512
vn 0.9348 -0.3553 -0.0000
vn 0.9348 -0.2512 -0.2512
vn 0.3301 0.0000 -0.9439
vn 0.3301 -0.0000 -0.9439
vn 0.3301 0.6675 -0.6675
vn 0.3301 0.9439 0.0000
vn 0.3301 0.9439 -0.0000
vn 0.3301 0.6675 0.6675
vn 0.3301 -0.0000 0.9439
vn 0.3301 -0.6675 0.6675
vn 0.3301 -0.9439 -0.0000
vn 0.3301 -0.6675 -0.6675
vn 0.0000 -0.7071 -0.7071
vn -0.0000 -0.7071 -0.7071
vn -0.0000 0.0000 -1.0000
vn 0.0000 0.0000 -1.0000
vn 0.0000 -1.0000 -0.0000
vn -0.0000 -1.0000 -0.0000
vn -0.0000 -0.7071 0.7071
vn 0.0000 -0.7071 0.7071
vn -0.0000 0.0000 1.0000
vn 0.0000 -0.0000 1.0000
vn -0.0000 0.7071 0.7071
vn 0.0000 0.7071 0.7071
vn 0.0000 1.0000 0.0000
vn 0.0000 0.7071 -0.7071
vn -0.7439 0.4725 -0.4725
vn -0.7439 -0.0000 -0.6683
vn -0.7439 0.6683 0.0000
vn -0.7439 0.4725 0.4725
vn -0.7439 -0.0000 0.6683
vn -0.7439 -0.4725 0.4725
vn -0.7439 -0.6683 -0.0000
vn -0.7439 -0.4725 -0.4726
vn -0.7439 -0.4725 -0.4725
vn 0.1194 0.7020 -0.7020
vn 0.1194 -0.0000 -0.9928
vn 0.1194 0.0000 -0.9928
vn 0.1194 -0.7020 -0.7020
vn 0.1194 -0.9928 -0.0000
vn 0.1194 -0.7020 0.7020
vn 0.1194 -0.0000 0.9928
vn 0.1194 0.7020 0.7020
vn 0.1194 0.9928 0.0000
vn 0.1194 0.9928 -0.0000
vn 0.9934 -0.0438 -0.1058
vn 0.9934 -0.1058 -0.0438
vn 0.9934 -0.1058 0.0438
vn 0.9934 -0.0438 0.1058
vn 0.9934 0.0438 0.1058
vn 0.9934 0.1058 0.0438
vn 0.9934 0.1058 -0.0438
vn 0.9934 0.0438 -0.1058
vn -0.0000 -1.0000 0.0000
vn -0.0000 -0.1061 0.9944
vn 0.0000 1.0000 -0.0000
vn -0.0000 -0.0033 -1.0000
vn -1.0000 0.0000 -0.0000
vn 1.0000 -0.0000 0.0000
vn -0.0000 -0.0033 1.0000
vn -0.0000 -0.1061 -0.9944
vn 0.0000 0.0032 1.0000
vn 0.0000 0.0032 -1.0000
# 115 vertex normals

g S_Cabinet_Draw_03
s 1
f 1//1 2//1 3//1 4//2 
s 2
f 5//3 6//4 7//4 8//3 
f 7//4 6//4 9//5 10//5 
f 9//5 11//6 12//6 10//5 
f 12//6 11//6 13//7 14//7 
f 13//7 15//8 16//8 14//7 
f 16//8 15//8 17//9 18//9 
f 19//10 20//11 5//3 8//3 
f 19//10 18//9 17//9 20//11 
s 5
f 17//12 15//13 21//14 22//15 
f 21//14 15//13 13//16 23//17 
f 13//16 11//18 24//19 23//17 
f 24//19 11//18 9//20 25//21 
f 26//22 25//21 9//20 6//23 
f 26//22 6//23 5//24 27//25 
f 28//26 27//25 5//24 20//27 
f 28//26 20//27 17//12 22//15 
s 6
f 4//28 21//14 23//17 29//29 
f 29//29 23//17 24//19 30//30 
f 30//30 24//19 25//21 1//31 
f 1//31 25//21 26//22 2//32 
f 2//32 26//22 27//25 31//33 
f 32//34 28//26 22//15 3//35 
f 31//33 27//25 28//26 32//34 
f 22//15 21//14 4//28 3//35 
s off
f 7//36 10//36 16//36 18//36 
f 12//37 14//37 16//37 10//37 
f 19//38 8//38 7//38 18//38 
s 8
f 33//36 34//36 35//36 36//36 
s 1
f 37//1 38//39 39//40 
f 37//1 39//40 40//41 
f 37//1 40//41 41//42 
f 37//1 41//42 42//43 
f 37//1 42//43 43//44 
f 37//1 43//44 44//45 
f 37//1 44//45 45//46 
f 37//1 45//46 38//39 
f 38//39 46//47 47//48 39//40 
f 39//40 47//48 48//49 40//41 
f 40//41 48//49 49//50 41//42 
f 41//42 49//50 50//51 42//43 
f 42//43 50//51 51//52 43//44 
f 43//44 51//52 52//53 44//45 
f 44//45 52//53 53//54 45//46 
f 45//46 53//54 46//47 38//39 
s 2
f 46//55 54//56 55//57 47//57 
f 47//57 55//57 56//58 48//59 
f 48//59 56//58 57//60 49//60 
f 49//60 57//60 58//61 50//61 
f 50//61 58//61 59//62 51//62 
f 51//62 59//62 60//63 52//63 
f 52//63 60//63 61//64 53//64 
f 53//64 61//64 54//56 46//55 
s 32
f 62//65 63//66 64//67 65//68 
f 66//69 67//70 63//66 62//65 
f 68//71 69//72 67//70 66//69 
f 70//73 71//74 69//72 68//71 
f 72//75 73//76 71//74 70//73 
f 74//77 75//77 73//76 72//75 
f 76//78 77//78 75//77 74//77 
f 65//68 64//67 77//78 76//78 
s 4
f 78//79 55//79 54//80 79//80 
f 80//81 56//81 55//79 78//79 
f 81//82 57//82 56//81 80//81 
f 82//83 58//83 57//82 81//82 
f 83//84 59//84 58//83 82//83 
f 84//85 60//85 59//84 83//84 
f 85//86 61//87 60//85 84//85 
f 79//80 54//80 61//87 85//86 
s 16
f 78//88 79//89 86//90 87//88 
f 79//89 85//91 88//91 86//90 
f 85//91 84//92 89//92 88//91 
f 84//92 83//93 90//93 89//92 
f 83//93 82//94 91//94 90//93 
f 82//94 81//95 92//95 91//94 
f 81//95 80//96 93//97 92//95 
f 80//96 78//88 87//88 93//97 
s off
f 86//98 88//98 62//98 65//98 
f 88//99 89//99 66//99 62//99 
f 89//100 90//100 68//100 66//100 
f 90//101 91//101 70//101 68//101 
f 91//102 92//102 72//102 70//102 
f 92//103 93//103 74//103 72//103 
f 93//104 87//104 76//104 74//104 
f 87//105 86//105 65//105 76//105 
s 1
f 29//2 30//1 1//1 4//2 
f 31//1 32//1 3//1 2//1 
s off
f 94//106 95//106 96//106 97//106 
f 98//107 99//107 100//107 101//107 
f 102//108 33//108 36//108 103//108 
f 104//109 105//109 106//109 107//109 
f 103//1 108//1 109//1 102//1 
s 8
f 106//110 105//110 34//36 33//36 
f 100//110 99//110 35//36 95//36 
s off
f 101//70 100//70 95//70 94//70 
f 110//70 111//70 97//70 96//70 
f 107//108 106//108 33//108 102//108 
f 112//108 113//108 103//108 36//108 
f 114//1 115//1 116//1 117//1 
f 118//111 119//111 120//111 121//111 
s 8
f 96//36 95//36 35//36 34//36 
s off
f 113//112 112//112 99//112 98//112 
f 111//113 110//113 105//113 104//113 
f 122//1 121//1 120//1 116//1 
s 8
f 110//110 96//36 34//36 105//110 
f 112//110 36//36 35//36 99//110 
s off
f 123//1 122//1 116//1 115//1 
f 124//111 125//111 120//111 119//111 
f 97//70 111//70 118//70 121//70 
f 111//113 104//113 119//113 118//113 
f 104//109 107//109 124//109 119//109 
f 107//108 102//108 125//108 124//108 
f 102//114 109//114 120//114 125//114 
f 109//108 108//108 116//108 120//108 
f 108//115 103//115 117//115 116//115 
f 103//108 113//108 114//108 117//108 
f 113//112 98//112 115//112 114//112 
f 98//107 101//107 123//107 115//107 
f 101//70 94//70 122//70 123//70 
f 94//106 97//106 121//106 122//106 
# 112 polygons - 8 triangles

