# 3ds Max Wavefront OBJ Exporter v0.97b - (c)2007 guruware
# File Created: 19.03.2015 10:09:44

mtllib CoffeeTable.mtl

#
# object Coffee_Table
#

v  802.2419 -30.1557 361.3908
v  802.2419 -30.1557 288.2091
v  802.2419 -27.3640 288.2091
v  802.2419 -27.3640 361.3907
v  792.2940 -80.4772 358.5457
v  797.6492 -80.4770 358.5457
v  797.6492 -36.6871 358.5457
v  792.2940 -36.6871 358.5457
v  798.8334 -80.4770 357.3367
v  798.8334 -80.4772 345.6506
v  798.8334 -36.6871 345.6506
v  798.8334 -36.6871 357.3366
v  798.8334 -80.4770 303.6012
v  798.8334 -80.4772 291.9151
v  798.8334 -36.6871 291.9150
v  798.8334 -36.6871 303.6012
v  797.6492 -80.4772 290.7061
v  792.2940 -80.4772 290.7061
v  792.2940 -36.6871 290.7061
v  797.6492 -36.6871 290.7061
v  792.2940 -30.2220 358.5457
v  797.6492 -30.2220 358.5457
v  798.8334 -30.2220 357.3366
v  798.8334 -30.2220 345.6506
v  798.8334 -30.2220 303.6012
v  798.8334 -30.2220 291.9150
v  797.6492 -30.2220 290.7061
v  792.2940 -30.2220 290.7061
v  798.8334 -80.4772 344.6460
v  798.8334 -36.6871 344.6459
v  798.8334 -36.6871 358.5457
v  798.8334 -80.4770 358.5457
v  791.1097 -80.4772 357.3367
v  791.1097 -80.4772 358.5457
v  791.1097 -36.6871 358.5457
v  791.1097 -36.6871 357.3366
v  791.1097 -36.6871 345.6506
v  791.1097 -36.6871 344.6459
v  791.1097 -80.4772 344.6460
v  791.1097 -80.4772 345.6506
v  798.8334 -80.4772 290.7061
v  798.8334 -36.6871 290.7061
v  798.8334 -36.6871 304.6057
v  798.8334 -80.4770 304.6058
v  791.1097 -80.4772 303.6012
v  791.1097 -80.4772 304.6058
v  791.1097 -36.6871 304.6057
v  791.1097 -36.6871 303.6012
v  791.1097 -36.6871 291.9150
v  791.1097 -36.6871 290.7061
v  791.1097 -80.4772 290.7061
v  791.1097 -80.4772 291.9151
v  798.8334 -30.2220 358.5457
v  798.8334 -30.2220 344.6459
v  791.1097 -30.2220 344.6459
v  791.1097 -30.2220 345.6506
v  791.1097 -30.2220 358.5457
v  791.1097 -30.2220 357.3366
v  798.8334 -30.2220 304.6057
v  798.8334 -30.2220 290.7061
v  791.1097 -30.2220 290.7061
v  791.1097 -30.2220 291.9150
v  791.1097 -30.2220 304.6057
v  791.1097 -30.2220 303.6012
v  792.2940 -80.4772 344.6460
v  792.2940 -36.6871 344.6459
v  797.6492 -36.6871 344.6459
v  797.6492 -80.4772 344.6460
v  797.6492 -80.4770 304.6058
v  797.6492 -36.6871 304.6057
v  792.2940 -36.6871 304.6057
v  792.2940 -80.4772 304.6058
v  797.6492 -30.2220 344.6459
v  792.2940 -30.2220 344.6459
v  792.2940 -30.2220 304.6057
v  797.6492 -30.2220 304.6057
v  704.3655 -36.6871 291.9150
v  704.3655 -30.2220 291.9150
v  694.0545 -30.1557 288.2091
v  694.0545 -30.1557 361.3908
v  704.3655 -36.6871 345.6506
v  704.3655 -36.6871 357.3367
v  694.0545 -27.3640 361.3907
v  694.0545 -27.3640 288.2091
v  703.1813 -80.4772 358.5457
v  703.1813 -36.6871 358.5457
v  697.8261 -36.6871 358.5457
v  697.8261 -80.4770 358.5457
v  696.6418 -80.4770 357.3367
v  696.6418 -36.6871 357.3367
v  696.6418 -36.6871 345.6506
v  696.6418 -80.4772 345.6506
v  696.6418 -80.4770 303.6012
v  696.6418 -36.6871 303.6012
v  696.6418 -36.6871 291.9150
v  696.6418 -80.4772 291.9151
v  697.8261 -80.4772 290.7061
v  697.8261 -36.6871 290.7060
v  703.1813 -36.6871 290.7061
v  703.1813 -80.4772 290.7061
v  703.1813 -30.2220 358.5457
v  697.8261 -30.2220 358.5457
v  696.6418 -30.2220 357.3367
v  696.6418 -30.2220 345.6506
v  696.6418 -30.2220 303.6012
v  696.6418 -30.2220 291.9150
v  697.8261 -30.2220 290.7060
v  703.1813 -30.2220 290.7061
v  696.6418 -80.4772 344.6460
v  696.6418 -36.6871 344.6460
v  696.6418 -36.6871 358.5457
v  696.6418 -80.4770 358.5457
v  704.3655 -80.4772 357.3367
v  704.3655 -36.6871 358.5457
v  704.3655 -80.4772 358.5457
v  704.3655 -80.4772 345.6506
v  704.3655 -80.4772 344.6460
v  704.3655 -36.6871 344.6460
v  696.6418 -80.4772 290.7061
v  696.6418 -36.6871 290.7060
v  696.6418 -36.6871 304.6058
v  696.6418 -80.4770 304.6058
v  704.3655 -80.4772 303.6012
v  704.3655 -36.6871 303.6012
v  704.3655 -36.6871 304.6058
v  704.3655 -80.4772 304.6058
v  704.3655 -80.4772 291.9151
v  704.3655 -80.4772 290.7061
v  704.3655 -36.6871 290.7061
v  696.6418 -30.2220 358.5457
v  696.6418 -30.2220 344.6460
v  704.3655 -30.2220 344.6460
v  704.3655 -30.2220 345.6506
v  704.3655 -30.2220 357.3367
v  704.3655 -30.2220 358.5457
v  696.6418 -30.2220 304.6058
v  696.6418 -30.2220 290.7060
v  704.3655 -30.2220 290.7061
v  704.3655 -30.2220 303.6012
v  704.3655 -30.2220 304.6058
v  703.1813 -80.4772 344.6460
v  703.1813 -36.6871 344.6460
v  697.8261 -36.6871 344.6460
v  697.8261 -80.4772 344.6460
v  697.8261 -80.4770 304.6058
v  697.8261 -36.6871 304.6058
v  703.1813 -36.6871 304.6058
v  703.1813 -80.4772 304.6058
v  697.8261 -30.2220 344.6460
v  703.1813 -30.2220 344.6460
v  703.1813 -30.2220 304.6058
v  697.8261 -30.2220 304.6058
# 152 vertices

vn 1.0000 0.0000 -0.0000
vn 0.0000 0.0000 1.0000
vn 0.0000 0.0000 -1.0000
vn -1.0000 0.0000 -0.0000
vn 0.0000 -1.0000 -0.0000
vn 0.0000 1.0000 -0.0000
# 6 vertex normals

vt 0.5657 2.2225 0.0000
vt 0.5657 1.7428 0.0000
vt 0.5840 1.7428 0.0000
vt 0.5840 2.2225 0.0000
vt 0.1138 0.5356 0.0000
vt 0.0861 0.5356 0.0000
vt 0.0861 0.3091 0.0000
vt 0.1138 0.3091 0.0000
vt 0.0738 0.5356 0.0000
vt 0.0133 0.5356 0.0000
vt 0.0133 0.3091 0.0000
vt 0.0738 0.3091 0.0000
vt 0.5897 0.5356 0.0000
vt 0.5292 0.5356 0.0000
vt 0.5292 0.3091 0.0000
vt 0.5897 0.3091 0.0000
vt 0.5169 0.5356 0.0000
vt 0.4892 0.5356 0.0000
vt 0.4892 0.3091 0.0000
vt 0.5169 0.3091 0.0000
vt 0.1138 0.2757 0.0000
vt 0.0861 0.2757 0.0000
vt 0.0738 0.2757 0.0000
vt 0.0133 0.2757 0.0000
vt 0.5897 0.2757 0.0000
vt 0.5292 0.2757 0.0000
vt 0.5169 0.2757 0.0000
vt 0.4892 0.2757 0.0000
vt 0.0081 0.5356 0.0000
vt 0.0081 0.3091 0.0000
vt 0.0800 0.3091 0.0000
vt 0.0800 0.5356 0.0000
vt 0.1262 0.5356 0.0000
vt 0.1200 0.5356 0.0000
vt 0.1200 0.3091 0.0000
vt 0.1262 0.3091 0.0000
vt 0.1866 0.3091 0.0000
vt 0.1918 0.3091 0.0000
vt 0.1918 0.5356 0.0000
vt 0.1866 0.5356 0.0000
vt 0.5230 0.5356 0.0000
vt 0.5230 0.3091 0.0000
vt 0.5949 0.3091 0.0000
vt 0.5949 0.5356 0.0000
vt 0.4163 0.5356 0.0000
vt 0.4112 0.5356 0.0000
vt 0.4112 0.3091 0.0000
vt 0.4163 0.3091 0.0000
vt 0.4768 0.3091 0.0000
vt 0.4830 0.3091 0.0000
vt 0.4830 0.5356 0.0000
vt 0.4768 0.5356 0.0000
vt 0.0800 0.2757 0.0000
vt 0.0081 0.2757 0.0000
vt 0.1918 0.2757 0.0000
vt 0.1866 0.2757 0.0000
vt 0.1200 0.2757 0.0000
vt 0.1262 0.2757 0.0000
vt 0.5949 0.2757 0.0000
vt 0.5230 0.2757 0.0000
vt 0.4830 0.2757 0.0000
vt 0.4768 0.2757 0.0000
vt 0.4112 0.2757 0.0000
vt 0.4163 0.2757 0.0000
vt 0.1980 0.5356 0.0000
vt 0.1980 0.3091 0.0000
vt 0.0020 0.3091 0.0000
vt 0.0020 0.5356 0.0000
vt 0.6010 0.5356 0.0000
vt 0.6010 0.3091 0.0000
vt 0.4050 0.3091 0.0000
vt 0.4050 0.5356 0.0000
vt 0.0020 0.2757 0.0000
vt 0.1980 0.2757 0.0000
vt 0.4050 0.2757 0.0000
vt 0.6010 0.2757 0.0000
vt 0.0959 0.5494 0.0000
vt 0.1293 0.5494 0.0000
vt 0.1293 0.9980 0.0000
vt 0.0959 0.9980 0.0000
vt 0.8081 0.2757 0.0000
vt 0.8081 0.3091 0.0000
vt 0.8081 0.5356 0.0000
vt 1.2931 1.7245 0.0000
vt 0.5840 1.7245 0.0000
vt 0.5840 1.2448 0.0000
vt 1.2931 1.2448 0.0000
vt -0.5914 1.7278 0.0000
vt -0.9806 1.7278 0.0000
vt -0.9806 1.6754 0.0000
vt -0.5914 1.6754 0.0000
vt 1.3114 2.2225 0.0000
vt 1.2931 2.2225 0.0000
vt 1.2931 1.7428 0.0000
vt 1.3114 1.7428 0.0000
vt 0.2932 0.2619 0.0000
vt 0.2932 0.0354 0.0000
vt 0.3209 0.0354 0.0000
vt 0.3209 0.2619 0.0000
vt 0.3333 0.2619 0.0000
vt 0.3333 0.0354 0.0000
vt 0.3937 0.0354 0.0000
vt 0.3937 0.2619 0.0000
vt 0.6234 0.2619 0.0000
vt 0.6234 0.0354 0.0000
vt 0.6839 0.0354 0.0000
vt 0.6839 0.2619 0.0000
vt 0.6962 0.2619 0.0000
vt 0.6962 0.0354 0.0000
vt 0.7239 0.0354 0.0000
vt 0.7239 0.2619 0.0000
vt 0.2932 0.0020 0.0000
vt 0.3209 0.0020 0.0000
vt 0.3333 0.0020 0.0000
vt 0.3937 0.0020 0.0000
vt 0.6234 0.0020 0.0000
vt 0.6839 0.0020 0.0000
vt 0.6962 0.0020 0.0000
vt 0.7239 0.0020 0.0000
vt 0.3989 0.2619 0.0000
vt 0.3989 0.0354 0.0000
vt 0.3270 0.0354 0.0000
vt 0.3270 0.2619 0.0000
vt 0.2808 0.2619 0.0000
vt 0.2808 0.0354 0.0000
vt 0.2871 0.0354 0.0000
vt 0.2871 0.2619 0.0000
vt 0.2204 0.0354 0.0000
vt 0.2204 0.2619 0.0000
vt 0.2152 0.2619 0.0000
vt 0.2152 0.0354 0.0000
vt 0.6901 0.2619 0.0000
vt 0.6901 0.0354 0.0000
vt 0.6182 0.0354 0.0000
vt 0.6182 0.2619 0.0000
vt 0.7967 0.2619 0.0000
vt 0.7967 0.0354 0.0000
vt 0.8019 0.0354 0.0000
vt 0.8019 0.2619 0.0000
vt 0.7363 0.0354 0.0000
vt 0.7363 0.2619 0.0000
vt 0.7301 0.2619 0.0000
vt 0.7301 0.0354 0.0000
vt 0.3270 0.0020 0.0000
vt 0.3989 0.0020 0.0000
vt 0.2152 0.0020 0.0000
vt 0.2204 0.0020 0.0000
vt 0.2808 0.0020 0.0000
vt 0.2871 0.0020 0.0000
vt 0.6182 0.0020 0.0000
vt 0.6901 0.0020 0.0000
vt 0.7301 0.0020 0.0000
vt 0.7363 0.0020 0.0000
vt 0.7967 0.0020 0.0000
vt 0.8019 0.0020 0.0000
vt 0.2091 0.2619 0.0000
vt 0.2091 0.0354 0.0000
vt 0.4050 0.0354 0.0000
vt 0.4050 0.2619 0.0000
vt 0.6121 0.2619 0.0000
vt 0.6121 0.0354 0.0000
vt 0.8081 0.0354 0.0000
vt 0.8081 0.2619 0.0000
vt 0.4050 0.0020 0.0000
vt 0.2091 0.0020 0.0000
vt 0.8081 0.0020 0.0000
vt 0.6121 0.0020 0.0000
vt 0.0354 0.5494 0.0000
vt 0.0354 0.9980 0.0000
vt 0.0020 0.5494 0.0000
vt 0.0020 0.9980 0.0000
vt 0.0020 0.0354 0.0000
vt 0.0020 0.0020 0.0000
vt 1.2931 2.2408 0.0000
vt 0.5840 2.2408 0.0000
vt -0.5914 1.7568 0.0000
vt -0.9806 1.7568 0.0000
vt -0.5914 1.6464 0.0000
vt -0.9806 1.6464 0.0000
vt 0.0020 0.2619 0.0000
# 180 texture coords

g Coffee_Table
usemtl 03___Default
s off
f 1/1/1 2/2/1 3/3/1 4/4/1 
usemtl 02___Default
f 5/5/2 6/6/2 7/7/2 8/8/2 
f 9/9/1 10/10/1 11/11/1 12/12/1 
f 13/13/1 14/14/1 15/15/1 16/16/1 
f 17/17/3 18/18/3 19/19/3 20/20/3 
f 21/21/2 8/8/2 7/7/2 22/22/2 
f 23/23/1 12/12/1 11/11/1 24/24/1 
f 25/25/1 16/16/1 15/15/1 26/26/1 
f 27/27/3 20/20/3 19/19/3 28/28/3 
f 10/10/1 29/29/1 30/30/1 11/11/1 
f 12/12/1 31/31/1 32/32/1 9/9/1 
f 33/33/4 34/34/4 35/35/4 36/36/4 
f 37/37/4 38/38/4 39/39/4 40/40/4 
f 14/14/1 41/41/1 42/42/1 15/15/1 
f 16/16/1 43/43/1 44/44/1 13/13/1 
f 45/45/4 46/46/4 47/47/4 48/48/4 
f 49/49/4 50/50/4 51/51/4 52/52/4 
f 53/53/1 31/31/1 12/12/1 23/23/1 
f 30/30/1 54/54/1 24/24/1 11/11/1 
f 55/55/4 38/38/4 37/37/4 56/56/4 
f 35/35/4 57/57/4 58/58/4 36/36/4 
f 59/59/1 43/43/1 16/16/1 25/25/1 
f 42/42/1 60/60/1 26/26/1 15/15/1 
f 61/61/4 50/50/4 49/49/4 62/62/4 
f 47/47/4 63/63/4 64/64/4 48/48/4 
f 6/6/2 32/32/2 31/31/2 7/7/2 
f 8/8/2 35/35/2 34/34/2 5/5/2 
f 65/65/3 39/39/3 38/38/3 66/66/3 
f 67/67/3 30/30/3 29/29/3 68/68/3 
f 69/69/2 44/44/2 43/43/2 70/70/2 
f 71/71/2 47/47/2 46/46/2 72/72/2 
f 18/18/3 51/51/3 50/50/3 19/19/3 
f 20/20/3 42/42/3 41/41/3 17/17/3 
f 57/57/2 35/35/2 8/8/2 21/21/2 
f 31/31/2 53/53/2 22/22/2 7/7/2 
f 54/54/3 30/30/3 67/67/3 73/73/3 
f 38/38/3 55/55/3 74/74/3 66/66/3 
f 63/63/2 47/47/2 71/71/2 75/75/2 
f 43/43/2 59/59/2 76/76/2 70/70/2 
f 60/60/3 42/42/3 20/20/3 27/27/3 
f 50/50/3 61/61/3 28/28/3 19/19/3 
f 77/77/3 78/78/3 62/79/3 49/80/3 
f 73/81/1 67/82/1 70/70/1 76/76/1 
f 66/66/4 74/74/4 75/75/4 71/71/4 
f 70/70/1 67/82/1 68/83/1 69/69/1 
usemtl 03___Default
f 79/84/5 2/85/5 1/86/5 80/87/5 
usemtl 02___Default
f 81/88/5 37/89/5 36/90/5 82/91/5 
usemtl 03___Default
f 80/92/4 83/93/4 84/94/4 79/95/4 
f 3/3/3 2/85/3 79/84/3 84/94/3 
usemtl 02___Default
f 85/96/2 86/97/2 87/98/2 88/99/2 
f 89/100/4 90/101/4 91/102/4 92/103/4 
f 93/104/4 94/105/4 95/106/4 96/107/4 
f 97/108/3 98/109/3 99/110/3 100/111/3 
f 101/112/2 102/113/2 87/98/2 86/97/2 
f 103/114/4 104/115/4 91/102/4 90/101/4 
f 105/116/4 106/117/4 95/106/4 94/105/4 
f 107/118/3 108/119/3 99/110/3 98/109/3 
f 109/120/4 92/103/4 91/102/4 110/121/4 
f 111/122/4 90/101/4 89/100/4 112/123/4 
f 113/124/1 82/125/1 114/126/1 115/127/1 
f 81/128/1 116/129/1 117/130/1 118/131/1 
f 119/132/4 96/107/4 95/106/4 120/133/4 
f 121/134/4 94/105/4 93/104/4 122/135/4 
f 123/136/1 124/137/1 125/138/1 126/139/1 
f 77/140/1 127/141/1 128/142/1 129/143/1 
f 130/144/4 103/114/4 90/101/4 111/122/4 
f 110/121/4 91/102/4 104/115/4 131/145/4 
f 132/146/1 133/147/1 81/128/1 118/131/1 
f 114/126/1 82/125/1 134/148/1 135/149/1 
f 136/150/4 105/116/4 94/105/4 121/134/4 
f 120/133/4 95/106/4 106/117/4 137/151/4 
f 138/152/1 78/153/1 77/140/1 129/143/1 
f 125/138/1 124/137/1 139/154/1 140/155/1 
f 112/123/2 88/99/2 87/98/2 111/122/2 
f 114/126/2 86/97/2 85/96/2 115/127/2 
f 117/130/3 141/156/3 142/157/3 118/131/3 
f 110/121/3 143/158/3 144/159/3 109/120/3 
f 122/135/2 145/160/2 146/161/2 121/134/2 
f 125/138/2 147/162/2 148/163/2 126/139/2 
f 128/142/3 100/111/3 99/110/3 129/143/3 
f 120/133/3 98/109/3 97/108/3 119/132/3 
f 135/149/2 101/112/2 86/97/2 114/126/2 
f 111/122/2 87/98/2 102/113/2 130/144/2 
f 131/145/3 149/164/3 143/158/3 110/121/3 
f 118/131/3 142/157/3 150/165/3 132/146/3 
f 140/155/2 151/166/2 147/162/2 125/138/2 
f 121/134/2 146/161/2 152/167/2 136/150/2 
f 137/151/3 107/118/3 98/109/3 120/133/3 
f 129/143/3 99/110/3 108/119/3 138/152/3 
f 124/168/5 77/77/5 49/80/5 48/169/5 
f 139/170/2 124/168/2 48/169/2 64/171/2 
f 149/164/4 152/167/4 146/161/4 143/158/4 
f 142/157/1 147/172/1 151/173/1 150/165/1 
f 143/158/4 146/161/4 145/160/4 144/159/4 
usemtl 03___Default
f 83/93/6 4/4/6 3/3/6 84/94/6 
f 80/174/2 1/175/2 4/4/2 83/93/2 
usemtl 02___Default
f 81/88/3 133/176/3 56/177/3 37/89/3 
f 134/178/2 82/91/2 36/90/2 58/179/2 
f 37/37/4 40/40/4 33/33/4 36/36/4 
f 49/49/4 52/52/4 45/45/4 48/48/4 
f 71/71/4 72/72/4 65/65/4 66/66/4 
f 82/125/1 113/124/1 116/129/1 81/128/1 
f 124/137/1 123/136/1 127/141/1 77/140/1 
f 147/172/1 142/157/1 141/156/1 148/180/1 
# 104 polygons

