# 3ds Max Wavefront OBJ Exporter v0.97b - (c)2007 guruware
# File Created: 14.03.2015 13:03:46

#
# object Door_01
#

v  205.0223 46.6386 817.0914
v  287.8582 46.6386 817.0927
v  287.8582 47.6071 817.0927
v  205.0223 47.6071 817.0914
v  287.8582 46.6386 811.5889
v  205.0223 46.6386 811.5889
v  205.0223 47.6071 811.5889
v  287.8582 47.6071 811.5889
v  288.0907 80.7849 811.1134
v  204.7897 80.7849 811.1132
v  204.7897 80.7849 817.5679
v  288.0907 80.7849 817.5685
v  204.7897 -81.6937 811.1133
v  288.0907 -81.6937 811.1136
v  288.0907 -81.6937 817.5686
v  204.7897 -81.6937 817.5680
v  205.0223 11.1270 817.0916
v  287.8582 11.1270 817.0927
v  287.8582 11.9205 817.0927
v  205.0223 11.9205 817.0916
v  204.7897 47.8272 817.5674
v  288.0907 47.8272 817.5685
v  287.8582 11.1270 811.5889
v  205.0223 11.1270 811.5889
v  205.0223 11.9206 811.5889
v  287.8582 11.9205 811.5889
v  288.0907 47.8272 811.1132
v  204.7897 47.8272 811.1132
v  205.0223 -23.9963 817.0916
v  287.8582 -23.9963 817.0927
v  287.8582 -23.4019 817.0927
v  205.0223 -23.4019 817.0916
v  288.0907 46.4185 817.5685
v  204.7897 46.4185 817.5674
v  204.7897 12.1407 817.5675
v  288.0907 12.1407 817.5685
v  287.8582 -23.9962 811.5889
v  205.0223 -23.9963 811.5889
v  205.0223 -23.4019 811.5889
v  287.8582 -23.4019 811.5889
v  204.7897 46.4185 811.1132
v  288.0907 46.4185 811.1132
v  288.0907 12.1407 811.1132
v  204.7897 12.1407 811.1132
v  205.0223 -57.2854 817.0922
v  287.8582 -57.2854 817.0925
v  287.8582 -56.8581 817.0925
v  205.0223 -56.8581 817.0922
v  288.0907 10.9069 817.5685
v  204.7897 10.9069 817.5675
v  204.7897 -23.1818 817.5675
v  288.0907 -23.1818 817.5685
v  287.8582 -57.2854 811.5890
v  205.0223 -57.2854 811.5887
v  205.0223 -56.8581 811.5887
v  287.8582 -56.8581 811.5890
v  204.7897 10.9069 811.1132
v  288.0907 10.9069 811.1132
v  288.0907 -23.1818 811.1132
v  204.7897 -23.1818 811.1132
v  288.0907 -57.5055 817.5684
v  204.7897 -57.5055 817.5679
v  288.0907 -24.2164 817.5685
v  204.7897 -24.2164 817.5675
v  204.7897 -56.6380 817.5679
v  288.0907 -56.6380 817.5684
v  204.7897 -57.5055 811.1130
v  288.0907 -57.5055 811.1133
v  204.7897 -24.2164 811.1132
v  288.0907 -24.2164 811.1132
v  288.0907 -56.6380 811.1133
v  204.7897 -56.6380 811.1130
v  288.0907 46.6386 817.5685
v  204.7897 46.6386 817.5674
v  288.0907 46.6386 811.1132
v  204.7897 46.6386 811.1132
v  204.7897 47.6071 817.5674
v  288.0907 47.6071 817.5685
v  204.7897 47.6071 811.1132
v  288.0907 47.6071 811.1132
v  288.0907 11.1270 817.5685
v  204.7897 11.1270 817.5675
v  288.0907 11.1270 811.1132
v  204.7897 11.1270 811.1132
v  204.7897 11.9205 817.5675
v  288.0907 11.9205 817.5685
v  204.7897 11.9206 811.1132
v  288.0907 11.9205 811.1132
v  288.0907 -23.9963 817.5685
v  204.7897 -23.9963 817.5675
v  288.0907 -23.9962 811.1132
v  204.7897 -23.9963 811.1132
v  204.7897 -23.4019 817.5675
v  288.0907 -23.4019 817.5685
v  204.7897 -23.4019 811.1132
v  288.0907 -23.4019 811.1132
v  288.0907 -57.2854 817.5684
v  204.7897 -57.2854 817.5679
v  288.0907 -57.2854 811.1133
v  204.7897 -57.2854 811.1130
v  204.7897 -56.8581 817.5679
v  288.0907 -56.8581 817.5684
v  204.7897 -56.8581 811.1130
v  288.0907 -56.8581 811.1133
# 104 vertices

vn -0.0000 0.0000 1.0000
vn 0.0000 0.0000 -1.0000
vn 1.0000 0.0000 0.0000
vn -0.0000 1.0000 -0.0000
vn -1.0000 0.0000 -0.0000
vn 0.0000 -1.0000 -0.0000
vn -0.0000 -0.0000 1.0000
vn 1.0000 -0.0000 0.0000
vn -1.0000 -0.0000 -0.0000
vn 0.0000 -0.0000 -1.0000
vn 0.0000 1.0000 -0.0000
vn 0.0000 1.0000 0.0000
vn 0.0000 -1.0000 0.0000
vn -0.0000 -1.0000 -0.0000
# 14 vertex normals

g Door_01
s off
f 1//1 2//1 3//1 4//1 
f 5//2 6//2 7//2 8//2 
s 1
f 2//3 5//3 8//3 3//3 
s 2
f 9//4 10//4 11//4 12//4 
s 1
f 6//5 1//5 4//5 7//5 
s 2
f 13//6 14//6 15//6 16//6 
s off
f 17//1 18//1 19//1 20//1 
f 12//7 11//7 21//7 22//7 
f 23//2 24//2 25//2 26//2 
f 10//2 9//2 27//2 28//2 
s 1
f 18//3 23//3 26//3 19//3 
f 9//8 12//3 22//8 27//8 
f 24//5 17//5 20//5 25//5 
f 11//5 10//5 28//5 21//5 
s off
f 29//1 30//1 31//1 32//1 
f 33//1 34//1 35//1 36//1 
f 37//2 38//2 39//2 40//2 
f 41//2 42//2 43//2 44//2 
s 1
f 30//3 37//3 40//3 31//3 
f 42//3 33//3 36//3 43//3 
f 38//5 29//5 32//5 39//5 
f 34//9 41//5 44//9 35//9 
s off
f 45//1 46//1 47//1 48//1 
f 49//1 50//1 51//1 52//1 
f 53//2 54//2 55//2 56//2 
f 57//2 58//2 59//2 60//2 
s 1
f 46//3 53//3 56//3 47//3 
f 58//3 49//3 52//3 59//3 
f 54//5 45//5 48//5 55//5 
f 50//5 57//5 60//5 51//5 
s off
f 16//1 15//1 61//1 62//1 
f 63//1 64//1 65//1 66//1 
f 14//10 13//10 67//10 68//10 
f 69//2 70//2 71//2 72//2 
s 1
f 15//8 14//8 68//8 61//8 
f 70//8 63//8 66//3 71//3 
f 13//9 16//9 62//9 67//9 
f 64//5 69//5 72//9 65//9 
s off
f 34//1 33//1 73//1 74//1 
f 33//3 42//3 75//3 73//3 
f 42//2 41//2 76//2 75//2 
f 41//5 34//5 74//5 76//5 
f 22//1 21//1 77//1 78//1 
f 21//5 28//5 79//5 77//5 
f 28//2 27//2 80//2 79//2 
f 27//3 22//3 78//3 80//3 
f 50//1 49//1 81//1 82//1 
f 49//3 58//3 83//3 81//3 
f 58//2 57//2 84//2 83//2 
f 57//5 50//5 82//5 84//5 
f 36//1 35//1 85//1 86//1 
f 35//5 44//5 87//5 85//5 
f 44//2 43//2 88//2 87//2 
f 43//3 36//3 86//3 88//3 
f 64//1 63//1 89//1 90//1 
f 63//3 70//3 91//3 89//3 
f 70//2 69//2 92//2 91//2 
f 69//5 64//5 90//5 92//5 
f 52//1 51//1 93//1 94//1 
f 51//5 60//5 95//5 93//5 
f 60//2 59//2 96//2 95//2 
f 59//3 52//3 94//3 96//3 
f 62//1 61//1 97//1 98//1 
f 61//3 68//3 99//3 97//3 
f 68//2 67//2 100//2 99//2 
f 67//5 62//5 98//5 100//5 
f 66//1 65//1 101//1 102//1 
f 65//5 72//5 103//5 101//5 
f 72//2 71//2 104//2 103//2 
f 71//3 66//3 102//3 104//3 
f 74//4 73//4 2//4 1//4 
f 73//11 75//11 5//11 2//11 
f 75//11 76//11 6//11 5//11 
f 76//12 74//12 1//12 6//12 
f 78//13 77//13 4//13 3//13 
f 77//6 79//6 7//6 4//6 
f 79//6 80//6 8//6 7//6 
f 80//6 78//6 3//6 8//6 
f 82//4 81//4 18//4 17//4 
f 81//11 83//11 23//11 18//11 
f 83//11 84//11 24//11 23//11 
f 84//12 82//12 17//12 24//12 
f 86//6 85//6 20//6 19//6 
f 85//14 87//14 25//14 20//14 
f 87//14 88//14 26//14 25//14 
f 88//6 86//6 19//6 26//6 
f 90//11 89//11 30//11 29//11 
f 89//12 91//12 37//12 30//12 
f 91//4 92//4 38//4 37//4 
f 92//12 90//12 29//12 38//12 
f 94//13 93//13 32//13 31//13 
f 93//14 95//14 39//14 32//14 
f 95//6 96//6 40//6 39//6 
f 96//6 94//6 31//6 40//6 
f 98//4 97//4 46//4 45//4 
f 97//12 99//12 53//12 46//12 
f 99//4 100//4 54//4 53//4 
f 100//12 98//12 45//12 54//12 
f 102//14 101//14 48//14 47//14 
f 101//6 103//6 55//6 48//6 
f 103//13 104//13 56//13 55//13 
f 104//6 102//6 47//6 56//6 
# 102 polygons

