# 3ds Max Wavefront OBJ Exporter v0.97b - (c)2007 guruware
# File Created: 14.03.2015 13:04:22

#
# object Door_02
#

v  300.7929 -77.6245 -277.1595
v  365.4441 -77.6245 -277.1595
v  367.3489 -80.3605 -277.1595
v  297.5455 -80.3605 -277.1595
v  297.5455 2.8553 -277.1595
v  300.7929 2.8553 -277.1595
v  300.7929 -2.8008 -277.1595
v  297.5455 -2.8008 -277.1595
v  365.4442 76.7843 -277.1595
v  300.7929 76.7843 -277.1595
v  297.5455 80.6322 -277.1595
v  367.3489 80.6322 -277.1595
v  367.3489 -2.8008 -277.1594
v  365.4441 -2.8008 -277.1594
v  365.4441 2.8553 -277.1594
v  367.3489 2.8553 -277.1594
v  302.3465 -74.1438 -279.8169
v  363.8906 -74.1438 -279.8169
v  363.8906 73.3037 -279.8126
v  302.3465 73.3037 -279.8169
v  367.3489 -80.3605 -284.0044
v  297.5455 -80.3605 -284.0046
v  297.5455 -2.8008 -284.0044
v  297.5455 2.8553 -284.0044
v  302.3465 2.8553 -279.8169
v  302.3465 -2.8008 -279.8169
v  363.8906 -2.8008 -279.8148
v  363.8906 2.8553 -279.8148
v  297.5455 80.6322 -284.0046
v  300.7929 -77.6245 -284.0045
v  365.4441 -77.6245 -284.0044
v  300.7929 -2.8008 -284.0043
v  300.7929 2.8553 -284.0043
v  365.4442 76.7843 -284.0045
v  367.3489 80.6322 -284.0045
v  300.7929 76.7843 -284.0045
v  367.3489 -2.8008 -284.0043
v  367.3489 2.8553 -284.0043
v  365.4441 2.8553 -284.0043
v  365.4441 -2.8008 -284.0043
v  363.8906 -74.1438 -280.7024
v  302.3465 -74.1438 -280.7024
v  302.3465 73.3037 -280.7025
v  363.8906 73.3037 -280.7074
v  302.3465 2.8553 -280.7021
v  302.3465 -2.8008 -280.7021
v  363.8906 -2.8008 -280.7046
v  363.8906 2.8553 -280.7045
# 48 vertices

vn 0.0000 0.0000 -1.0000
vn 0.0000 -0.3496 -0.9369
vn 0.0000 0.3494 -0.9370
vn -0.0000 1.0000 -0.0000
vn 1.0000 0.0000 -0.0000
vn 0.0000 -0.0000 -1.0000
vn -0.6414 0.0000 -0.7672
vn 0.6413 0.0000 -0.7673
vn 0.6410 0.0000 -0.7676
vn 0.0000 -1.0000 0.0000
vn 0.0000 -1.0000 -0.0000
vn 0.0000 1.0000 -0.0000
vn -0.0000 -0.0000 1.0000
vn -0.0000 0.0000 1.0000
vn 0.0000 0.0000 1.0000
vn -0.0000 -0.4207 0.9072
vn 0.0000 0.4204 0.9073
vn -1.0000 0.0000 -0.0000
vn -0.7205 0.0000 0.6935
vn -0.7205 -0.0000 0.6935
vn 0.7204 0.0000 0.6936
vn 0.7201 0.0000 0.6939
# 22 vertex normals

g Door_02
s off
f 1//1 2//1 3//1 4//1 
f 5//1 6//1 7//1 8//1 
f 9//1 10//1 11//1 12//1 
f 13//1 14//1 15//1 16//1 
f 2//2 1//2 17//2 18//2 
f 10//3 9//3 19//3 20//3 
f 4//4 3//4 21//4 22//4 
f 8//5 23//5 24//5 5//5 
f 5//1 11//1 10//1 6//1 
f 1//1 4//1 8//1 7//1 
f 13//1 3//1 2//1 14//1 
f 9//6 12//6 16//6 15//6 
f 6//7 10//7 20//7 25//7 
f 17//7 1//7 7//7 26//7 
f 14//8 2//8 18//8 27//8 
f 19//9 9//9 15//9 28//9 
s 1
f 6//10 25//10 28//11 15//11 
f 26//12 7//12 14//12 27//12 
s 2
f 7//1 6//1 15//1 14//1 
s off
f 19//1 28//1 25//1 20//1 
f 26//1 27//1 18//1 17//1 
f 11//5 5//5 24//5 29//5 
f 30//13 22//13 21//13 31//13 
f 24//14 23//14 32//14 33//14 
f 34//14 35//14 29//14 36//14 
f 37//15 38//15 39//15 40//15 
f 31//16 41//16 42//16 30//16 
f 36//17 43//17 44//17 34//17 
f 13//18 16//18 38//18 37//18 
f 12//11 11//11 29//11 35//11 
f 24//14 33//14 36//14 29//14 
f 30//13 32//13 23//13 22//13 
f 37//13 40//13 31//13 21//13 
f 34//14 39//14 38//14 35//14 
f 33//19 45//19 43//19 36//19 
f 42//20 46//20 32//20 30//20 
f 40//21 47//21 41//21 31//21 
f 44//22 48//22 39//22 34//22 
f 16//18 12//18 35//18 38//18 
f 8//5 4//5 22//5 23//5 
s 1
f 33//11 39//10 48//10 45//11 
f 46//12 47//12 40//12 32//12 
s 2
f 32//15 40//15 39//15 33//15 
s off
f 44//15 43//15 45//15 48//15 
f 46//15 42//15 41//15 47//15 
f 13//18 37//18 21//18 3//18 
# 46 polygons

