# 3ds Max Wavefront OBJ Exporter v0.97b - (c)2007 guruware
# File Created: 14.03.2015 12:54:07

#
# object Base
#

v  -102.2038 -6.9558 -187.4603
v  -102.2038 -6.1085 -187.4603
v  -179.5227 -6.1085 -187.4603
v  -179.5227 -6.9558 -187.4603
v  -94.6795 -6.9558 -239.6191
v  -94.6795 -6.5349 -239.6191
v  -94.6795 -6.5349 -190.8265
v  -94.6795 -6.9558 -190.8265
v  -179.5227 -6.9558 -242.9853
v  -179.5227 -6.1085 -242.9853
v  -102.2038 -6.1085 -242.9853
v  -102.2038 -6.9558 -242.9853
v  -182.9606 -6.9558 -190.8265
v  -182.9606 -6.1085 -190.8265
v  -182.9606 -6.1085 -239.6191
v  -182.9606 -6.9558 -239.6191
v  -179.5227 -6.7073 -239.6191
v  -102.2038 -6.7073 -239.6191
v  -102.2038 -6.7073 -190.8265
v  -179.5227 -6.7073 -190.8265
v  -94.6795 -6.9558 -242.9853
v  -94.6795 -6.5349 -242.9853
v  -94.6795 -6.5349 -187.4603
v  -94.6795 -6.9558 -187.4603
v  -182.9606 -6.9558 -187.4603
v  -182.9606 -6.1085 -187.4603
v  -182.9606 -6.1085 -242.9853
v  -182.9606 -6.9558 -242.9853
v  -98.7658 -6.1085 -190.8265
v  -98.7658 -6.1085 -239.6191
v  -98.7658 -6.9558 -187.4603
v  -98.7658 -6.1085 -187.4603
v  -98.7658 -6.1085 -242.9853
v  -98.7658 -6.9558 -242.9853
v  -95.4875 -6.6563 -193.8242
v  -95.7394 -6.6286 -194.6042
v  -95.6724 -6.0190 -194.6042
v  -95.4205 -6.0467 -193.8242
v  -96.3990 -6.5561 -195.0863
v  -96.3320 -5.9465 -195.0863
v  -97.2143 -6.4665 -195.0863
v  -97.1473 -5.8569 -195.0863
v  -97.8739 -6.3940 -194.6042
v  -97.8069 -5.7844 -194.6042
v  -98.1259 -6.3663 -193.8242
v  -98.0589 -5.7567 -193.8242
v  -97.8739 -6.3940 -193.0441
v  -97.8069 -5.7844 -193.0441
v  -97.2143 -6.4665 -192.5620
v  -97.1473 -5.8569 -192.5620
v  -96.3990 -6.5561 -192.5620
v  -96.3320 -5.9465 -192.5620
v  -95.7394 -6.6286 -193.0441
v  -95.6724 -6.0190 -193.0441
v  -95.4773 -5.9758 -193.8242
v  -95.7171 -5.9494 -194.5665
v  -96.2322 -5.8928 -194.1900
v  -96.1141 -5.9058 -193.8242
v  -96.3447 -5.8804 -195.0252
v  -96.5415 -5.8588 -194.4160
v  -97.1206 -5.7952 -195.0252
v  -96.9238 -5.8168 -194.4160
v  -97.7482 -5.7262 -194.5665
v  -97.2331 -5.7828 -194.1900
v  -97.9880 -5.6998 -193.8242
v  -97.3512 -5.7698 -193.8242
v  -97.7482 -5.7262 -193.0819
v  -97.2331 -5.7828 -193.4584
v  -97.1206 -5.7952 -192.6231
v  -96.9238 -5.8168 -193.2323
v  -96.3447 -5.8804 -192.6231
v  -96.5415 -5.8588 -193.2323
v  -95.7171 -5.9494 -193.0819
v  -96.2322 -5.8928 -193.4584
v  -96.7327 -5.8378 -193.8242
v  -95.4875 -6.6563 -201.7587
v  -95.7394 -6.6286 -202.5388
v  -95.6724 -6.0190 -202.5388
v  -95.4205 -6.0467 -201.7587
v  -96.3990 -6.5561 -203.0209
v  -96.3320 -5.9465 -203.0209
v  -97.2143 -6.4665 -203.0209
v  -97.1473 -5.8569 -203.0209
v  -97.8739 -6.3940 -202.5388
v  -97.8069 -5.7844 -202.5388
v  -98.1259 -6.3663 -201.7587
v  -98.0589 -5.7567 -201.7587
v  -97.8739 -6.3940 -200.9787
v  -97.8069 -5.7844 -200.9787
v  -97.2143 -6.4665 -200.4966
v  -97.1473 -5.8569 -200.4966
v  -96.3990 -6.5561 -200.4966
v  -96.3320 -5.9465 -200.4966
v  -95.7394 -6.6286 -200.9787
v  -95.6724 -6.0190 -200.9787
v  -95.4773 -5.9758 -201.7587
v  -95.7171 -5.9494 -202.5010
v  -96.2322 -5.8928 -202.1245
v  -96.1141 -5.9058 -201.7587
v  -96.3447 -5.8804 -202.9598
v  -96.5415 -5.8588 -202.3506
v  -97.1206 -5.7952 -202.9598
v  -96.9238 -5.8168 -202.3506
v  -97.7482 -5.7262 -202.5010
v  -97.2331 -5.7828 -202.1245
v  -97.9880 -5.6998 -201.7587
v  -97.3512 -5.7698 -201.7587
v  -97.7482 -5.7262 -201.0164
v  -97.2331 -5.7828 -201.3930
v  -97.1206 -5.7952 -200.5577
v  -96.9238 -5.8168 -201.1669
v  -96.3447 -5.8804 -200.5577
v  -96.5415 -5.8588 -201.1669
v  -95.7171 -5.9494 -201.0164
v  -96.2322 -5.8928 -201.3930
v  -96.7327 -5.8378 -201.7587
v  -95.4875 -6.6563 -209.6933
v  -95.7394 -6.6286 -210.4734
v  -95.6724 -6.0190 -210.4734
v  -95.4205 -6.0467 -209.6933
v  -96.3990 -6.5561 -210.9555
v  -96.3320 -5.9465 -210.9555
v  -97.2143 -6.4665 -210.9555
v  -97.1473 -5.8569 -210.9555
v  -97.8739 -6.3940 -210.4734
v  -97.8069 -5.7844 -210.4734
v  -98.1259 -6.3663 -209.6933
v  -98.0589 -5.7567 -209.6933
v  -97.8739 -6.3940 -208.9132
v  -97.8069 -5.7844 -208.9132
v  -97.2143 -6.4665 -208.4311
v  -97.1473 -5.8569 -208.4311
v  -96.3990 -6.5561 -208.4311
v  -96.3320 -5.9465 -208.4311
v  -95.7394 -6.6286 -208.9132
v  -95.6724 -6.0190 -208.9132
v  -95.4773 -5.9758 -209.6933
v  -95.7171 -5.9494 -210.4356
v  -96.2322 -5.8928 -210.0591
v  -96.1141 -5.9058 -209.6933
v  -96.3447 -5.8804 -210.8944
v  -96.5415 -5.8588 -210.2852
v  -97.1206 -5.7952 -210.8944
v  -96.9238 -5.8168 -210.2852
v  -97.7482 -5.7262 -210.4356
v  -97.2331 -5.7828 -210.0591
v  -97.9880 -5.6998 -209.6933
v  -97.3512 -5.7698 -209.6933
v  -97.7482 -5.7262 -208.9510
v  -97.2331 -5.7828 -209.3275
v  -97.1206 -5.7952 -208.4922
v  -96.9238 -5.8168 -209.1015
v  -96.3447 -5.8804 -208.4922
v  -96.5415 -5.8588 -209.1015
v  -95.7171 -5.9494 -208.9510
v  -96.2322 -5.8928 -209.3275
v  -96.7327 -5.8378 -209.6933
v  -95.4875 -6.6563 -217.6279
v  -95.7394 -6.6286 -218.4080
v  -95.6724 -6.0190 -218.4080
v  -95.4205 -6.0466 -217.6279
v  -96.3990 -6.5561 -218.8901
v  -96.3320 -5.9465 -218.8901
v  -97.2143 -6.4665 -218.8901
v  -97.1473 -5.8569 -218.8901
v  -97.8739 -6.3940 -218.4080
v  -97.8069 -5.7844 -218.4080
v  -98.1259 -6.3663 -217.6279
v  -98.0589 -5.7567 -217.6279
v  -97.8739 -6.3940 -216.8478
v  -97.8069 -5.7844 -216.8478
v  -97.2143 -6.4665 -216.3657
v  -97.1473 -5.8569 -216.3657
v  -96.3990 -6.5561 -216.3657
v  -96.3320 -5.9465 -216.3657
v  -95.7394 -6.6286 -216.8478
v  -95.6724 -6.0190 -216.8478
v  -95.4773 -5.9758 -217.6279
v  -95.7171 -5.9494 -218.3702
v  -96.2322 -5.8928 -217.9937
v  -96.1141 -5.9058 -217.6279
v  -96.3447 -5.8804 -218.8289
v  -96.5415 -5.8588 -218.2197
v  -97.1206 -5.7952 -218.8289
v  -96.9238 -5.8168 -218.2197
v  -97.7482 -5.7262 -218.3702
v  -97.2331 -5.7828 -217.9937
v  -97.9880 -5.6998 -217.6279
v  -97.3512 -5.7698 -217.6279
v  -97.7482 -5.7262 -216.8856
v  -97.2331 -5.7828 -217.2621
v  -97.1206 -5.7952 -216.4268
v  -96.9238 -5.8168 -217.0360
v  -96.3447 -5.8804 -216.4268
v  -96.5415 -5.8588 -217.0360
v  -95.7171 -5.9494 -216.8856
v  -96.2322 -5.8928 -217.2621
v  -96.7327 -5.8378 -217.6279
v  -95.4875 -6.6563 -233.7776
v  -95.7394 -6.6286 -234.5576
v  -95.6724 -6.0190 -234.5576
v  -95.4205 -6.0466 -233.7776
v  -96.3990 -6.5561 -235.0397
v  -96.3320 -5.9465 -235.0397
v  -97.2143 -6.4665 -235.0397
v  -97.1473 -5.8569 -235.0397
v  -97.8739 -6.3940 -234.5576
v  -97.8069 -5.7844 -234.5576
v  -98.1259 -6.3663 -233.7776
v  -98.0589 -5.7567 -233.7776
v  -97.8739 -6.3940 -232.9975
v  -97.8069 -5.7844 -232.9975
v  -97.2143 -6.4665 -232.5154
v  -97.1473 -5.8569 -232.5154
v  -96.3990 -6.5561 -232.5154
v  -96.3320 -5.9465 -232.5154
v  -95.7394 -6.6286 -232.9975
v  -95.6724 -6.0190 -232.9975
v  -95.4773 -5.9758 -233.7776
v  -95.7171 -5.9494 -234.5199
v  -96.2322 -5.8928 -234.1434
v  -96.1141 -5.9058 -233.7776
v  -96.3447 -5.8804 -234.9786
v  -96.5415 -5.8588 -234.3694
v  -97.1206 -5.7952 -234.9786
v  -96.9238 -5.8168 -234.3694
v  -97.7482 -5.7262 -234.5199
v  -97.2331 -5.7828 -234.1434
v  -97.9880 -5.6998 -233.7776
v  -97.3512 -5.7698 -233.7776
v  -97.7482 -5.7262 -233.0353
v  -97.2331 -5.7828 -233.4118
v  -97.1206 -5.7952 -232.5765
v  -96.9238 -5.8168 -233.1857
v  -96.3447 -5.8804 -232.5765
v  -96.5415 -5.8588 -233.1857
v  -95.7171 -5.9494 -233.0353
v  -96.2322 -5.8928 -233.4118
v  -96.7327 -5.8378 -233.7776
# 239 vertices

vn 0.0000 0.0000 1.0000
vn 1.0000 0.0000 -0.0000
vn 0.0000 -0.0000 -1.0000
vn -1.0000 0.0000 -0.0000
vn 0.0000 0.9845 0.1751
vn 0.0861 0.9923 0.0886
vn -0.1139 0.9867 0.1163
vn -0.0437 0.9903 0.1322
vn -0.0000 0.9845 -0.1751
vn -0.0861 0.9923 -0.0886
vn 0.1139 0.9867 -0.1163
vn 0.0437 0.9903 -0.1322
vn 0.1716 0.9852 -0.0000
vn 0.1284 0.9908 -0.0434
vn -0.1716 0.9852 0.0000
vn -0.1284 0.9908 0.0434
vn 0.0876 0.9923 0.0871
vn 0.0000 1.0000 -0.0000
vn -0.0876 0.9923 -0.0871
vn 0.1038 0.9946 -0.0000
vn -0.0000 -0.0000 -1.0000
vn 0.9454 -0.1039 -0.3090
vn 0.5843 -0.0642 -0.8090
vn 0.0000 0.0000 -1.0000
vn -0.5843 0.0642 -0.8090
vn -0.9454 0.1039 -0.3090
vn -0.9454 0.1039 0.3090
vn -0.5843 0.0642 0.8090
vn 0.5843 -0.0642 0.8090
vn 0.9454 -0.1039 0.3090
vn 0.1093 0.9940 0.0000
vn 0.1093 0.9940 -0.0000
vn 0.1092 0.9940 -0.0000
vn 0.1092 0.9940 0.0000
vn 0.7801 0.6256 0.0000
vn 0.6459 0.6404 -0.4156
vn 0.2945 0.6790 -0.6725
vn 0.2944 0.6790 -0.6725
vn -0.1399 0.7267 -0.6725
vn -0.1400 0.7267 -0.6725
vn -0.4914 0.7654 -0.4156
vn -0.6256 0.7801 -0.0000
vn -0.4914 0.7654 0.4156
vn -0.1400 0.7267 0.6725
vn 0.2945 0.6790 0.6725
vn 0.2944 0.6790 0.6725
vn 0.6459 0.6404 0.4156
vn -0.1399 0.7267 0.6725
# 48 vertex normals

g Base
s 8
f 1//1 2//1 3//1 4//1 
s 16
f 5//2 6//2 7//2 8//2 
s 32
f 9//3 10//3 11//3 12//3 
s 64
f 13//4 14//4 15//4 16//4 
s 2
f 10//5 17//6 18//7 11//8 
f 2//9 19//10 20//11 3//12 
s 16
f 21//2 22//2 6//2 5//2 
f 23//2 24//2 8//2 7//2 
s 64
f 25//4 26//4 14//4 13//4 
f 27//4 28//4 16//4 15//4 
s 2
f 15//13 14//14 20//11 17//6 
f 29//15 30//16 18//7 19//10 
s 8
f 31//1 32//1 2//1 1//1 
f 26//1 25//1 4//1 3//1 
s 32
f 28//3 27//3 10//3 9//3 
f 33//3 34//3 12//3 11//3 
s 2
f 27//17 15//13 17//6 10//5 
f 30//16 33//18 11//8 18//7 
f 32//19 29//15 19//10 2//9 
f 14//14 26//18 3//12 20//11 
s 16
f 18//18 17//18 20//18 19//18 
s off
f 29//20 32//20 23//20 7//20 
f 32//1 31//1 24//1 23//1 
f 34//21 33//21 22//21 21//21 
f 33//20 30//20 6//20 22//20 
f 30//20 29//20 7//20 6//20 
s 1
f 35//22 36//22 37//22 38//22 
s 2
f 36//23 39//23 40//23 37//23 
s 1
f 39//24 41//24 42//24 40//24 
s 2
f 41//25 43//25 44//25 42//25 
s 1
f 43//26 45//26 46//26 44//26 
s 2
f 45//27 47//27 48//27 46//27 
s 1
f 47//28 49//28 50//28 48//28 
s 2
f 49//1 51//1 52//1 50//1 
s 1
f 51//29 53//29 54//29 52//29 
s 2
f 53//30 35//30 38//30 54//30 
s 1
f 55//31 56//32 57//33 58//31 
f 56//32 59//34 60//33 57//33 
f 59//34 61//34 62//31 60//33 
f 61//34 63//31 64//33 62//31 
f 63//31 65//31 66//34 64//33 
f 65//31 67//32 68//34 66//34 
f 67//32 69//32 70//34 68//34 
f 69//32 71//33 72//34 70//34 
f 71//33 73//31 74//34 72//34 
f 73//31 55//31 58//31 74//34 
f 58//31 57//33 75//34 
f 57//33 60//33 75//34 
f 60//33 62//31 75//34 
f 62//31 64//33 75//34 
f 64//33 66//34 75//34 
f 66//34 68//34 75//34 
f 68//34 70//34 75//34 
f 70//34 72//34 75//34 
f 72//34 74//34 75//34 
f 74//34 58//31 75//34 
s 4
f 55//35 38//35 37//36 56//36 
f 56//36 37//36 40//37 59//38 
f 59//38 40//37 42//39 61//40 
f 61//40 42//39 44//41 63//41 
f 63//41 44//41 46//42 65//42 
f 65//42 46//42 48//43 67//43 
f 67//43 48//43 50//44 69//44 
f 69//44 50//44 52//45 71//46 
f 71//46 52//45 54//47 73//47 
f 73//47 54//47 38//35 55//35 
s 1
f 76//22 77//22 78//22 79//22 
s 2
f 77//23 80//23 81//23 78//23 
s 1
f 80//24 82//24 83//24 81//24 
s 2
f 82//25 84//25 85//25 83//25 
s 1
f 84//26 86//26 87//26 85//26 
s 2
f 86//27 88//27 89//27 87//27 
s 1
f 88//28 90//28 91//28 89//28 
s 2
f 90//1 92//1 93//1 91//1 
s 1
f 92//29 94//29 95//29 93//29 
s 2
f 94//30 76//30 79//30 95//30 
s 1
f 96//31 97//32 98//33 99//31 
f 97//32 100//34 101//33 98//33 
f 100//34 102//34 103//31 101//33 
f 102//34 104//31 105//33 103//31 
f 104//31 106//31 107//34 105//33 
f 106//31 108//32 109//34 107//34 
f 108//32 110//32 111//34 109//34 
f 110//32 112//33 113//34 111//34 
f 112//33 114//31 115//34 113//34 
f 114//31 96//31 99//31 115//34 
f 99//31 98//33 116//34 
f 98//33 101//33 116//34 
f 101//33 103//31 116//34 
f 103//31 105//33 116//34 
f 105//33 107//34 116//34 
f 107//34 109//34 116//34 
f 109//34 111//34 116//34 
f 111//34 113//34 116//34 
f 113//34 115//34 116//34 
f 115//34 99//31 116//34 
s 4
f 96//35 79//35 78//36 97//36 
f 97//36 78//36 81//37 100//38 
f 100//38 81//37 83//39 102//39 
f 102//39 83//39 85//41 104//41 
f 104//41 85//41 87//42 106//42 
f 106//42 87//42 89//43 108//43 
f 108//43 89//43 91//48 110//48 
f 110//48 91//48 93//45 112//46 
f 112//46 93//45 95//47 114//47 
f 114//47 95//47 79//35 96//35 
s 1
f 117//22 118//22 119//22 120//22 
s 2
f 118//23 121//23 122//23 119//23 
s 1
f 121//24 123//24 124//24 122//24 
s 2
f 123//25 125//25 126//25 124//25 
s 1
f 125//26 127//26 128//26 126//26 
s 2
f 127//27 129//27 130//27 128//27 
s 1
f 129//28 131//28 132//28 130//28 
s 2
f 131//1 133//1 134//1 132//1 
s 1
f 133//29 135//29 136//29 134//29 
s 2
f 135//30 117//30 120//30 136//30 
s 1
f 137//31 138//32 139//33 140//31 
f 138//32 141//34 142//33 139//33 
f 141//34 143//34 144//31 142//33 
f 143//34 145//31 146//33 144//31 
f 145//31 147//31 148//34 146//33 
f 147//31 149//32 150//34 148//34 
f 149//32 151//32 152//34 150//34 
f 151//32 153//33 154//34 152//34 
f 153//33 155//31 156//34 154//34 
f 155//31 137//31 140//31 156//34 
f 140//31 139//33 157//34 
f 139//33 142//33 157//34 
f 142//33 144//31 157//34 
f 144//31 146//33 157//34 
f 146//33 148//34 157//34 
f 148//34 150//34 157//34 
f 150//34 152//34 157//34 
f 152//34 154//34 157//34 
f 154//34 156//34 157//34 
f 156//34 140//31 157//34 
s 4
f 137//35 120//35 119//36 138//36 
f 138//36 119//36 122//37 141//38 
f 141//38 122//37 124//39 143//39 
f 143//39 124//39 126//41 145//41 
f 145//41 126//41 128//42 147//42 
f 147//42 128//42 130//43 149//43 
f 149//43 130//43 132//48 151//44 
f 151//44 132//48 134//45 153//46 
f 153//46 134//45 136//47 155//47 
f 155//47 136//47 120//35 137//35 
s 1
f 158//22 159//22 160//22 161//22 
s 2
f 159//23 162//23 163//23 160//23 
s 1
f 162//24 164//24 165//24 163//24 
s 2
f 164//25 166//25 167//25 165//25 
s 1
f 166//26 168//26 169//26 167//26 
s 2
f 168//27 170//27 171//27 169//27 
s 1
f 170//28 172//28 173//28 171//28 
s 2
f 172//1 174//1 175//1 173//1 
s 1
f 174//29 176//29 177//29 175//29 
s 2
f 176//30 158//30 161//30 177//30 
s 1
f 178//31 179//32 180//33 181//31 
f 179//32 182//34 183//33 180//33 
f 182//34 184//34 185//31 183//33 
f 184//34 186//31 187//33 185//31 
f 186//31 188//31 189//34 187//33 
f 188//31 190//32 191//34 189//34 
f 190//32 192//32 193//34 191//34 
f 192//32 194//33 195//34 193//34 
f 194//33 196//31 197//34 195//34 
f 196//31 178//31 181//31 197//34 
f 181//31 180//33 198//34 
f 180//33 183//33 198//34 
f 183//33 185//31 198//34 
f 185//31 187//33 198//34 
f 187//33 189//34 198//34 
f 189//34 191//34 198//34 
f 191//34 193//34 198//34 
f 193//34 195//34 198//34 
f 195//34 197//34 198//34 
f 197//34 181//31 198//34 
s 4
f 178//35 161//35 160//36 179//36 
f 179//36 160//36 163//37 182//38 
f 182//38 163//37 165//39 184//39 
f 184//39 165//39 167//41 186//41 
f 186//41 167//41 169//42 188//42 
f 188//42 169//42 171//43 190//43 
f 190//43 171//43 173//48 192//44 
f 192//44 173//48 175//45 194//46 
f 194//46 175//45 177//47 196//47 
f 196//47 177//47 161//35 178//35 
s 1
f 199//22 200//22 201//22 202//22 
s 2
f 200//23 203//23 204//23 201//23 
s 1
f 203//24 205//24 206//24 204//24 
s 2
f 205//25 207//25 208//25 206//25 
s 1
f 207//26 209//26 210//26 208//26 
s 2
f 209//27 211//27 212//27 210//27 
s 1
f 211//28 213//28 214//28 212//28 
s 2
f 213//1 215//1 216//1 214//1 
s 1
f 215//29 217//29 218//29 216//29 
s 2
f 217//30 199//30 202//30 218//30 
s 1
f 219//31 220//32 221//33 222//31 
f 220//32 223//34 224//33 221//33 
f 223//34 225//34 226//31 224//33 
f 225//34 227//31 228//33 226//31 
f 227//31 229//31 230//34 228//33 
f 229//31 231//32 232//34 230//34 
f 231//32 233//32 234//34 232//34 
f 233//32 235//33 236//34 234//34 
f 235//33 237//31 238//34 236//34 
f 237//31 219//31 222//31 238//34 
f 222//31 221//33 239//34 
f 221//33 224//33 239//34 
f 224//33 226//31 239//34 
f 226//31 228//33 239//34 
f 228//33 230//34 239//34 
f 230//34 232//34 239//34 
f 232//34 234//34 239//34 
f 234//34 236//34 239//34 
f 236//34 238//34 239//34 
f 238//34 222//31 239//34 
s 4
f 219//35 202//35 201//36 220//36 
f 220//36 201//36 204//37 223//38 
f 223//38 204//37 206//39 225//40 
f 225//40 206//39 208//41 227//41 
f 227//41 208//41 210//42 229//42 
f 229//42 210//42 212//43 231//43 
f 231//43 212//43 214//44 233//44 
f 233//44 214//44 216//45 235//46 
f 235//46 216//45 218//47 237//47 
f 237//47 218//47 202//35 219//35 
# 176 polygons - 50 triangles

