# 3ds Max Wavefront OBJ Exporter v0.97b - (c)2007 guruware
# File Created: 14.03.2015 12:56:44

#
# object Sink
#

v  -12.9488 -5.1698 -195.8857
v  -12.9488 -5.1698 -236.1848
v  -14.1437 -5.1698 -236.1833
v  -14.1437 -5.1698 -195.8871
v  -12.9508 -5.3235 -242.1257
v  -14.1398 -5.3235 -242.1257
v  1.9981 -5.7148 -236.1863
v  1.9920 -5.3235 -242.1257
v  -11.7619 -5.3235 -242.1257
v  -11.7539 -5.7148 -236.1863
v  -11.7539 -5.7148 -195.8842
v  -11.7539 -19.1223 -195.8842
v  -11.7539 -19.1223 -236.1863
v  -44.5213 -5.7148 -195.8886
v  -44.5213 -19.1223 -195.8886
v  -44.5213 -19.1223 -236.1819
v  -44.5213 -5.7148 -236.1819
v  -15.3386 -19.1223 -236.1819
v  -15.3386 -5.7148 -236.1819
v  1.9981 -19.1223 -236.1863
v  -15.3386 -19.1223 -195.8886
v  27.8817 -5.7148 -236.1873
v  27.8817 -7.0033 -236.1873
v  27.8817 -7.0033 -242.8389
v  27.8817 -5.7148 -242.8389
v  -45.6010 -5.7148 -242.9167
v  -45.6010 -7.0033 -242.9167
v  -53.8200 -7.0033 -242.8389
v  -53.8200 -5.7148 -242.8389
v  -12.9508 -5.7148 -243.1344
v  -12.9508 -7.0033 -243.1344
v  -14.1398 -7.0033 -243.1344
v  -14.1398 -5.7148 -243.1344
v  1.9907 -5.7148 -242.9893
v  1.9907 -7.0033 -242.9893
v  -11.7619 -7.0033 -243.1344
v  -11.7619 -5.7148 -243.1344
v  -53.1067 -18.4896 -195.8867
v  -53.1067 -7.0033 -195.8867
v  -53.1067 -7.0033 -236.1936
v  -53.1067 -18.4896 -236.1936
v  -15.3287 -18.4896 -242.1257
v  -44.5549 -18.4896 -242.1257
v  -44.5549 -7.0033 -242.1257
v  -15.3287 -7.0033 -242.1257
v  -14.1398 -18.4896 -242.1257
v  -14.1398 -7.0033 -242.1257
v  -12.9508 -7.0033 -242.1257
v  -12.9508 -18.4896 -242.1257
v  27.1685 -18.4896 -242.1257
v  2.8521 -18.4896 -242.1257
v  2.8521 -7.0033 -242.1257
v  27.1685 -7.0033 -242.1257
v  -53.1067 -5.3235 -242.1257
v  -45.6010 -5.3235 -242.1257
v  27.1685 -5.3235 -242.1257
v  27.1685 -5.3235 -236.1873
v  3.2081 -7.0033 -242.9822
v  -44.5549 -7.0033 -242.9866
v  -15.3287 -7.0033 -243.1344
v  -53.8200 -7.0033 -195.8867
v  -53.8200 -7.0033 -236.1947
v  27.8817 -5.7148 -195.8832
v  27.8817 -7.0033 -195.8832
v  27.1685 -7.0033 -236.1873
v  27.1685 -18.4896 -236.1873
v  27.1685 -5.3235 -195.8832
v  2.8552 -4.9155 -236.1863
v  2.8521 -5.3235 -242.1257
v  3.2081 -5.7148 -242.9822
v  -11.7619 -18.4896 -242.1257
v  -11.7619 -7.0033 -242.1257
v  1.9920 -7.0033 -242.1257
v  1.9920 -18.4896 -242.1257
v  -53.1067 -5.3235 -195.8867
v  -45.6010 -4.6550 -195.8876
v  -45.6010 -4.6550 -236.1879
v  -53.1067 -5.3235 -236.1936
v  1.9981 -19.1223 -195.8842
v  1.9981 -5.7148 -195.8842
v  -15.3386 -5.7148 -195.8886
v  -53.8200 -5.7148 -195.8867
v  -53.8200 -5.7148 -236.1947
v  27.1685 -7.0033 -195.8832
v  -12.9508 -5.3235 -189.9448
v  -14.1398 -5.3235 -189.9448
v  -11.7619 -5.3235 -189.9448
v  1.9920 -5.3235 -189.9448
v  27.8817 -5.7148 -189.2316
v  27.8817 -7.0033 -189.2316
v  -53.8200 -7.0033 -189.2316
v  -45.6010 -7.0033 -189.1539
v  -45.6010 -5.7148 -189.1539
v  -53.8200 -5.7148 -189.2316
v  -12.9508 -7.0033 -188.9361
v  -12.9508 -5.7148 -188.9361
v  -14.1398 -5.7148 -188.9361
v  -14.1398 -7.0033 -188.9361
v  1.9907 -5.7148 -189.0812
v  -11.7619 -5.7148 -188.9361
v  -11.7619 -7.0033 -188.9361
v  1.9907 -7.0033 -189.0812
v  -44.5420 -7.0033 -189.9448
v  -44.5420 -18.4896 -189.9448
v  -15.3287 -18.4896 -189.9448
v  -15.3287 -7.0033 -189.9448
v  -14.1398 -7.0033 -189.9448
v  -14.1398 -18.4896 -189.9448
v  -12.9508 -18.4896 -189.9448
v  -12.9508 -7.0033 -189.9448
v  2.8521 -7.0033 -189.9448
v  2.8521 -18.4896 -189.9448
v  27.1685 -18.4896 -189.9448
v  27.1685 -7.0033 -189.9448
v  -53.1067 -5.3235 -189.9448
v  -45.6010 -5.3235 -189.9448
v  27.1685 -5.3235 -189.9448
v  3.2081 -7.0033 -189.0883
v  -15.3287 -7.0033 -188.9361
v  -44.5420 -7.0033 -189.0838
v  2.8552 -4.9155 -195.8842
v  27.1685 -18.4896 -195.8832
v  2.8521 -5.3235 -189.9448
v  3.2081 -5.7148 -189.0883
v  -11.7619 -18.4896 -189.9448
v  1.9920 -18.4896 -189.9448
v  1.9920 -7.0033 -189.9448
v  -11.7619 -7.0033 -189.9448
v  -15.3287 -5.3235 -242.1257
v  -15.3287 -5.7148 -243.1344
v  -15.3287 -5.3235 -189.9448
v  -15.3287 -5.7148 -188.9361
v  -53.1067 -18.4896 -189.9448
v  -53.1067 -7.0033 -189.9448
v  -53.1067 -7.0033 -242.1257
v  -53.1067 -18.4896 -242.1257
v  -44.5549 -5.3235 -242.1257
v  -44.5420 -5.7148 -189.0838
v  -45.6010 -7.0033 -189.9448
v  -45.6010 -18.4896 -189.9448
v  -44.5420 -5.3235 -189.9448
v  -44.5549 -5.7148 -242.9866
v  -45.6010 -18.4896 -242.1257
v  -45.6010 -7.0033 -242.1257
# 144 vertices

vn 0.0000 1.0000 -0.0000
vn -0.0000 0.9997 -0.0259
vn 0.0000 0.9978 0.0657
vn 1.0000 0.0000 -0.0000
vn 0.0000 0.0000 1.0000
vn -0.0095 0.0000 -1.0000
vn 0.0000 0.0000 -1.0000
vn 0.0105 0.0000 -0.9999
vn -1.0000 0.0000 -0.0000
vn -0.0023 0.8876 -0.4606
vn 0.0000 0.9323 -0.3616
vn 0.0020 0.9227 -0.3856
vn 0.4809 0.8767 -0.0000
vn 0.0000 -1.0000 -0.0000
vn 1.0000 0.0000 0.0000
vn 0.4809 0.8767 0.0000
vn -0.4220 0.9066 -0.0010
vn 0.0058 0.0000 -1.0000
vn 0.0014 0.9103 -0.4138
vn -0.0887 0.9961 -0.0000
vn -1.0000 0.0000 0.0000
vn -0.4809 0.8767 -0.0000
vn -0.0000 0.9997 0.0259
vn 0.0000 0.9978 -0.0657
vn -0.0094 -0.0000 1.0000
vn 0.0105 0.0000 0.9999
vn -0.0023 0.8876 0.4607
vn 0.0000 0.9323 0.3616
vn 0.0020 0.9227 0.3856
vn -0.6820 0.7313 0.0000
vn -0.4220 0.9066 0.0010
vn 0.0058 0.0000 1.0000
vn 0.0014 0.9103 0.4138
vn 0.0084 0.9994 -0.0343
vn 0.0013 0.8953 -0.4454
vn 0.0168 0.9999 0.0000
vn 0.0084 0.9994 0.0343
vn 0.0013 0.8953 0.4454
vn 0.4150 0.9098 -0.0000
vn -0.4150 0.9098 0.0000
vn 0.2228 0.9747 0.0193
vn -0.2228 0.9747 0.0192
vn 0.2228 0.9747 -0.0193
vn -0.2228 0.9747 -0.0192
vn -0.0444 0.9974 0.0561
vn 0.4461 0.8947 -0.0221
vn -0.0051 0.0000 1.0000
vn -0.0010 0.9225 0.3861
vn -0.0051 0.0000 -1.0000
vn -0.0010 0.9225 -0.3861
vn -0.0667 0.0000 -0.9978
vn -0.0143 0.9036 -0.4280
vn 0.7005 0.7136 0.0000
vn -0.0660 -0.0000 0.9978
vn -0.0142 0.9036 0.4281
vn 0.4439 0.8958 0.0217
vn -0.0444 0.9974 -0.0562
# 57 vertex normals

g Sink
s off
f 1//1 2//1 3//1 4//1 
f 2//2 5//2 6//2 3//2 
f 7//3 8//3 9//3 10//3 
f 11//4 12//4 13//4 10//4 
f 14//4 15//4 16//4 17//4 
f 17//5 16//5 18//5 19//5 
f 7//5 10//5 13//5 20//5 
f 16//1 15//1 21//1 18//1 
f 22//4 23//4 24//4 25//4 
f 26//6 27//6 28//6 29//6 
f 30//7 31//7 32//7 33//7 
f 34//8 35//8 36//8 37//8 
f 38//9 39//9 40//9 41//9 
f 42//7 43//7 44//7 45//7 
f 46//7 47//7 48//7 49//7 
f 50//7 51//7 52//7 53//7 
f 54//10 55//10 26//10 29//10 
f 5//11 30//11 33//11 6//11 
f 8//12 34//12 37//12 9//12 
f 56//13 57//13 22//13 25//13 
f 53//14 52//14 58//14 24//14 
f 47//14 32//14 31//14 48//14 
f 44//14 59//14 60//14 45//14 
f 39//14 61//14 62//14 40//14 
f 63//15 64//15 23//15 22//15 
f 50//4 53//4 65//4 66//4 
f 57//16 67//16 63//16 22//16 
f 53//14 24//14 23//14 65//14 
f 68//17 69//17 8//17 7//17 
f 70//18 58//18 35//18 34//18 
f 71//7 72//7 73//7 74//7 
f 69//19 70//19 34//19 8//19 
f 73//14 72//14 36//14 35//14 
f 75//20 76//20 77//20 78//20 
f 20//21 79//21 80//21 7//21 
f 19//21 18//21 21//21 81//21 
f 61//9 82//9 83//9 62//9 
f 82//22 75//22 78//22 83//22 
f 65//14 23//14 64//14 84//14 
f 85//23 1//23 4//23 86//23 
f 80//24 11//24 87//24 88//24 
f 21//7 15//7 14//7 81//7 
f 80//7 79//7 12//7 11//7 
f 63//4 89//4 90//4 64//4 
f 91//25 92//25 93//25 94//25 
f 95//5 96//5 97//5 98//5 
f 99//26 100//26 101//26 102//26 
f 103//5 104//5 105//5 106//5 
f 107//5 108//5 109//5 110//5 
f 111//5 112//5 113//5 114//5 
f 115//27 94//27 93//27 116//27 
f 96//28 85//28 86//28 97//28 
f 88//29 87//29 100//29 99//29 
f 117//13 89//13 63//13 67//13 
f 114//14 90//14 118//14 111//14 
f 98//14 107//14 110//14 95//14 
f 119//14 120//14 103//14 106//14 
f 121//30 68//30 7//30 80//30 
f 113//4 122//4 84//4 114//4 
f 114//14 84//14 64//14 90//14 
f 88//31 123//31 121//31 80//31 
f 102//32 118//32 124//32 99//32 
f 125//5 126//5 127//5 128//5 
f 99//33 124//33 123//33 88//33 
f 127//14 102//14 101//14 128//14 
f 13//1 12//1 79//1 20//1 
f 65//15 84//15 122//15 66//15 
f 74//7 73//7 52//7 51//7 
f 52//14 73//14 35//14 58//14 
f 57//34 56//34 69//34 68//34 
f 25//18 24//18 58//18 70//18 
f 56//35 25//35 70//35 69//35 
f 127//5 126//5 112//5 111//5 
f 102//14 127//14 111//14 118//14 
f 67//36 57//36 68//36 121//36 
f 117//37 67//37 121//37 123//37 
f 90//32 89//32 124//32 118//32 
f 124//38 89//38 117//38 123//38 
f 11//39 10//39 2//39 1//39 
f 19//40 81//40 4//40 3//40 
f 10//41 9//41 5//41 2//41 
f 129//42 19//42 3//42 6//42 
f 37//7 36//7 31//7 30//7 
f 60//7 130//7 33//7 32//7 
f 42//7 45//7 47//7 46//7 
f 72//7 71//7 49//7 48//7 
f 9//11 37//11 30//11 5//11 
f 130//11 129//11 6//11 33//11 
f 45//14 60//14 32//14 47//14 
f 36//14 72//14 48//14 31//14 
f 87//43 11//43 1//43 85//43 
f 81//44 131//44 86//44 4//44 
f 101//5 100//5 96//5 95//5 
f 132//5 119//5 98//5 97//5 
f 106//5 105//5 108//5 107//5 
f 125//5 128//5 110//5 109//5 
f 100//28 87//28 85//28 96//28 
f 131//28 132//28 97//28 86//28 
f 119//14 106//14 107//14 98//14 
f 128//14 101//14 95//14 110//14 
f 133//9 134//9 39//9 38//9 
f 135//9 136//9 41//9 40//9 
f 134//14 91//14 61//14 39//14 
f 62//14 28//14 135//14 40//14 
f 115//45 116//45 76//45 75//45 
f 137//46 55//46 77//46 17//46 
f 91//9 94//9 82//9 61//9 
f 29//9 28//9 62//9 83//9 
f 82//22 94//22 115//22 75//22 
f 54//22 29//22 83//22 78//22 
f 119//47 132//47 138//47 120//47 
f 139//5 140//5 104//5 103//5 
f 132//48 131//48 141//48 138//48 
f 120//14 92//14 139//14 103//14 
f 131//24 81//24 14//24 141//24 
f 130//49 60//49 59//49 142//49 
f 143//7 144//7 44//7 43//7 
f 137//50 129//50 130//50 142//50 
f 144//14 27//14 59//14 44//14 
f 17//3 19//3 129//3 137//3 
f 142//51 59//51 27//51 26//51 
f 55//52 137//52 142//52 26//52 
f 14//53 17//53 77//53 76//53 
f 120//54 138//54 93//54 92//54 
f 138//55 141//55 116//55 93//55 
f 141//56 14//56 76//56 116//56 
f 54//57 78//57 77//57 55//57 
f 134//5 133//5 140//5 139//5 
f 92//14 91//14 134//14 139//14 
f 136//7 135//7 144//7 143//7 
f 135//14 28//14 27//14 144//14 
# 131 polygons

