# 3ds Max Wavefront OBJ Exporter v0.97b - (c)2007 guruware
# File Created: 14.03.2015 12:56:12

#
# object Tap
#

v  -18.1148 -6.0848 -239.4991
v  -18.2665 -6.0848 -240.2128
v  -18.2665 -1.5351 -240.2128
v  -18.1148 -1.5351 -239.4991
v  -18.6953 -6.0848 -240.8030
v  -18.6953 -1.5351 -240.8030
v  -19.3272 -6.0848 -241.1678
v  -19.3272 -1.5351 -241.1678
v  -20.0528 -6.0848 -241.2441
v  -20.0528 -1.5351 -241.2441
v  -20.7467 -6.0848 -241.0186
v  -20.7467 -1.5351 -241.0186
v  -21.2889 -6.0848 -240.5304
v  -21.2889 -1.5351 -240.5304
v  -21.5856 -6.0848 -239.8639
v  -21.5856 -1.5351 -239.8639
v  -21.5856 -6.0848 -239.1343
v  -21.5856 -1.5351 -239.1343
v  -21.2889 -6.0848 -238.4678
v  -21.2889 -1.5351 -238.4678
v  -20.7467 -6.0848 -237.9796
v  -20.7467 -1.5351 -237.9796
v  -20.0528 -6.0848 -237.7541
v  -20.0528 -1.5351 -237.7541
v  -19.3272 -6.0848 -237.8304
v  -19.3272 -1.5351 -237.8304
v  -18.6953 -6.0848 -238.1952
v  -18.6953 -1.5351 -238.1952
v  -18.2665 -6.0848 -238.7854
v  -18.2665 -1.5351 -238.7854
v  -18.5820 -0.9220 -240.0723
v  -18.9265 -0.9220 -240.5463
v  -19.4339 -0.9220 -240.8393
v  -20.5740 -0.9220 -240.7195
v  -20.0167 -0.9220 -240.9006
v  -21.0094 -0.9220 -240.3274
v  -21.2478 -0.9220 -239.7921
v  -21.0094 -0.9220 -238.6708
v  -21.2478 -0.9220 -239.2061
v  -20.5740 -0.9220 -238.2787
v  -20.0167 -0.9220 -238.0976
v  -18.9265 -0.9220 -238.4519
v  -19.4339 -0.9220 -238.1589
v  -18.5820 -0.9220 -238.9259
v  -18.4602 -0.9220 -239.4991
v  -18.5820 -1.5351 -240.0723
v  -18.4602 -1.5351 -239.4991
v  -18.9265 -1.5351 -240.5463
v  -19.4339 -1.5351 -240.8393
v  -20.0167 -1.5351 -240.9006
v  -20.5740 -1.5351 -240.7195
v  -21.0094 -1.5351 -240.3274
v  -21.2478 -1.5351 -239.7921
v  -21.2478 -1.5351 -239.2061
v  -21.0094 -1.5351 -238.6708
v  -20.5740 -1.5351 -238.2787
v  -20.0167 -1.5351 -238.0976
v  -19.4339 -1.5351 -238.1589
v  -18.9265 -1.5351 -238.4519
v  -18.5820 -1.5351 -238.9259
v  -19.7744 5.6316 -238.6222
v  -20.2674 5.6362 -238.7825
v  -20.2670 -1.1913 -238.7823
v  -19.7744 -1.1913 -238.6222
v  -20.5717 5.6483 -239.2020
v  -20.5715 -1.1913 -239.2013
v  -20.5713 5.6632 -239.7200
v  -20.5715 -1.1913 -239.7193
v  -20.2667 5.6752 -240.1386
v  -20.2670 -1.1913 -240.1384
v  -19.7744 5.6798 -240.2984
v  -19.7744 -1.1913 -240.2984
v  -19.2821 5.6752 -240.1386
v  -19.2818 -1.1913 -240.1384
v  -18.9775 5.6632 -239.7200
v  -18.9773 -1.1913 -239.7193
v  -18.9771 5.6483 -239.2020
v  -18.9773 -1.1913 -239.2013
v  -19.2814 5.6362 -238.7825
v  -19.2818 -1.1913 -238.7823
v  -20.1976 20.2263 -238.6966
v  -20.1976 18.8799 -238.8778
v  -19.7744 18.8707 -238.7403
v  -19.7744 20.1898 -238.5628
v  -20.4592 20.3221 -239.0470
v  -20.4592 18.9040 -239.2378
v  -20.4592 20.4404 -239.4800
v  -20.4592 18.9338 -239.6828
v  -20.1976 20.5362 -239.8304
v  -20.1976 18.9579 -240.0428
v  -19.7744 20.5727 -239.9642
v  -19.7744 18.9671 -240.1803
v  -19.3512 20.5362 -239.8304
v  -19.3512 18.9579 -240.0428
v  -19.0896 20.4404 -239.4800
v  -19.0896 18.9338 -239.6828
v  -19.0896 20.3221 -239.0470
v  -19.0896 18.9040 -239.2378
v  -19.3512 20.2263 -238.6966
v  -19.3512 18.8799 -238.8778
v  -20.1976 21.3995 -238.2010
v  -19.7744 21.3296 -238.0813
v  -20.4592 21.5827 -238.5145
v  -20.4592 21.8091 -238.9019
v  -20.1976 21.9922 -239.2153
v  -19.7744 22.0622 -239.3351
v  -19.3512 21.9922 -239.2153
v  -19.0896 21.8091 -238.9019
v  -19.0896 21.5827 -238.5145
v  -19.3512 21.3995 -238.2010
v  -20.1976 22.3949 -237.4318
v  -19.7744 22.2968 -237.3338
v  -20.4592 22.6515 -237.6885
v  -20.4592 22.9687 -238.0057
v  -20.1976 23.2254 -238.2623
v  -19.7744 23.3234 -238.3604
v  -19.3512 23.2254 -238.2623
v  -19.0896 22.9687 -238.0057
v  -19.0896 22.6515 -237.6885
v  -19.3512 22.3949 -237.4318
v  -20.1976 23.1641 -236.4365
v  -19.7744 23.0444 -236.3666
v  -20.4592 23.4775 -236.6197
v  -20.4592 23.8649 -236.8461
v  -20.1976 24.1784 -237.0292
v  -19.7744 24.2981 -237.0992
v  -19.3512 24.1784 -237.0292
v  -19.0896 23.8649 -236.8461
v  -19.0896 23.4775 -236.6197
v  -19.3512 23.1641 -236.4365
v  -20.1976 23.6596 -235.2633
v  -19.7744 23.5258 -235.2267
v  -20.4592 24.0100 -235.3591
v  -20.4592 24.4431 -235.4774
v  -20.1976 24.7934 -235.5731
v  -19.7744 24.9273 -235.6097
v  -19.3512 24.7934 -235.5731
v  -19.0896 24.4431 -235.4774
v  -19.0896 24.0100 -235.3591
v  -19.3512 23.6596 -235.2633
v  -20.1976 23.8409 -233.9169
v  -19.7744 23.7034 -233.9076
v  -20.4592 24.2009 -233.9410
v  -20.4592 24.6458 -233.9708
v  -20.1976 25.0058 -233.9949
v  -19.7744 25.1434 -234.0041
v  -19.3512 25.0058 -233.9949
v  -19.0896 24.6458 -233.9708
v  -19.0896 24.2009 -233.9410
v  -19.3512 23.8409 -233.9169
v  -20.1976 23.8409 -231.1031
v  -19.7744 23.7034 -231.1123
v  -20.4592 24.2009 -231.0790
v  -20.4592 24.6458 -231.0492
v  -20.1976 25.0058 -231.0250
v  -19.7744 25.1434 -231.0158
v  -19.3512 25.0058 -231.0250
v  -19.0896 24.6458 -231.0492
v  -19.0896 24.2009 -231.0790
v  -19.3512 23.8409 -231.1031
v  -20.1976 23.6596 -229.7566
v  -19.7744 23.5258 -229.7932
v  -20.4592 24.0100 -229.6609
v  -20.4592 24.4431 -229.5426
v  -20.1976 24.7934 -229.4468
v  -19.7744 24.9273 -229.4102
v  -19.3512 24.7934 -229.4468
v  -19.0896 24.4431 -229.5426
v  -19.0896 24.0100 -229.6609
v  -19.3512 23.6596 -229.7566
v  -20.1976 23.1641 -228.5834
v  -19.7744 23.0444 -228.6534
v  -20.4592 23.4775 -228.4003
v  -20.4592 23.8649 -228.1739
v  -20.1976 24.1784 -227.9907
v  -19.7744 24.2981 -227.9208
v  -19.3512 24.1784 -227.9907
v  -19.0896 23.8649 -228.1739
v  -19.0896 23.4775 -228.4003
v  -19.3512 23.1641 -228.5834
v  -20.1976 22.3949 -227.5881
v  -19.7744 22.2968 -227.6861
v  -20.4592 22.6515 -227.3315
v  -20.4592 22.9687 -227.0143
v  -20.1976 23.2254 -226.7576
v  -19.7744 23.3234 -226.6596
v  -19.3512 23.2254 -226.7576
v  -19.0896 22.9687 -227.0143
v  -19.0896 22.6515 -227.3315
v  -19.3512 22.3949 -227.5881
v  -20.1976 21.3995 -226.8189
v  -19.7744 21.3296 -226.9386
v  -20.4592 21.5827 -226.5055
v  -20.4592 21.8091 -226.1180
v  -20.1976 21.9922 -225.8046
v  -19.7744 22.0622 -225.6849
v  -19.3512 21.9922 -225.8046
v  -19.0896 21.8091 -226.1180
v  -19.0896 21.5827 -226.5055
v  -19.3512 21.3995 -226.8189
v  -20.1976 20.2263 -226.3233
v  -19.7744 20.1898 -226.4572
v  -20.4592 20.3221 -225.9730
v  -20.4592 20.4404 -225.5399
v  -20.1976 20.5362 -225.1895
v  -19.7744 20.5727 -225.0557
v  -19.3512 20.5362 -225.1895
v  -19.0896 20.4404 -225.5399
v  -19.0896 20.3221 -225.9730
v  -19.3512 20.2263 -226.3233
v  -19.7744 18.8529 -226.3577
v  -20.2446 18.8550 -226.2047
v  -20.2449 20.2180 -226.3858
v  -19.7744 20.1793 -226.5352
v  -20.5346 18.8604 -225.8046
v  -20.5346 20.3192 -225.9952
v  -20.5334 18.8667 -225.3111
v  -20.5334 20.4438 -225.5138
v  -20.2427 18.8714 -224.9131
v  -20.2428 20.5443 -225.1256
v  -19.7744 18.8732 -224.7615
v  -19.7744 20.5826 -224.9776
v  -19.3061 18.8714 -224.9131
v  -19.3060 20.5443 -225.1256
v  -19.0154 18.8667 -225.3111
v  -19.0154 20.4438 -225.5138
v  -19.0142 18.8604 -225.8046
v  -19.0142 20.3192 -225.9952
v  -19.3042 18.8550 -226.2047
v  -19.3040 20.2180 -226.3858
v  -19.7744 18.8633 -226.2796
v  -20.1976 18.8633 -226.1421
v  -20.4592 18.8633 -225.7821
v  -20.4592 18.8633 -225.3371
v  -20.1976 18.8633 -224.9771
v  -19.7744 18.8633 -224.8396
v  -19.3512 18.8633 -224.9771
v  -19.0896 18.8633 -225.3371
v  -19.0896 18.8633 -225.7821
v  -19.3512 18.8633 -226.1421
v  -20.1976 5.6362 -238.8778
v  -19.7744 5.6316 -238.7403
v  -20.4592 5.6483 -239.2378
v  -20.4592 5.6632 -239.6828
v  -20.1976 5.6752 -240.0428
v  -19.7744 5.6798 -240.1803
v  -19.3512 5.6752 -240.0428
v  -19.0896 5.6632 -239.6828
v  -19.0896 5.6483 -239.2378
v  -19.3512 5.6362 -238.8778
v  -20.1976 -1.1913 -238.8778
v  -19.7744 -1.1913 -238.7403
v  -19.3512 -1.1913 -238.8778
v  -19.0896 -1.1913 -239.2378
v  -19.0896 -1.1913 -239.6828
v  -19.3512 -1.1913 -240.0428
v  -19.7744 -1.1913 -240.1803
v  -20.1976 -1.1913 -240.0428
v  -20.4592 -1.1913 -239.6828
v  -20.4592 -1.1913 -239.2378
# 260 vertices

vn 1.0000 0.0000 -0.0000
vn 0.9135 0.0000 -0.4067
vn 0.6691 0.0000 -0.7431
vn 0.3090 0.0000 -0.9511
vn -0.1045 0.0000 -0.9945
vn -0.5000 0.0000 -0.8660
vn -0.8090 0.0000 -0.5878
vn -0.9781 0.0000 -0.2079
vn -0.9781 0.0000 0.2079
vn -0.8090 0.0000 0.5878
vn -0.5000 0.0000 0.8660
vn -0.1045 0.0000 0.9945
vn 0.3090 0.0000 0.9511
vn 0.6691 0.0000 0.7431
vn 0.9135 0.0000 0.4067
vn 0.0000 1.0000 -0.0000
vn -0.0000 1.0000 0.0000
vn 0.0000 1.0000 0.0000
vn -0.0000 1.0000 -0.0000
vn 0.9781 0.0000 -0.2079
vn 0.8090 0.0000 -0.5878
vn 0.5000 0.0000 -0.8660
vn 0.1045 0.0000 -0.9945
vn -0.3090 -0.0000 -0.9511
vn -0.6691 -0.0000 -0.7431
vn -0.9135 -0.0000 -0.4067
vn -1.0000 -0.0000 -0.0000
vn -0.9135 -0.0000 0.4067
vn -0.6691 0.0000 0.7431
vn -0.3090 0.0000 0.9511
vn 0.1045 0.0000 0.9945
vn 0.5000 0.0000 0.8660
vn 0.8090 0.0000 0.5878
vn 0.9781 0.0000 0.2079
vn 0.0000 0.0000 1.0000
vn -0.5909 0.0000 0.8068
vn -0.5878 -0.0000 0.8090
vn -0.9529 0.0000 0.3031
vn -0.9511 -0.0000 0.3090
vn -0.9491 0.0000 -0.3149
vn -0.9511 -0.0000 -0.3090
vn -0.5847 0.0000 -0.8113
vn -0.5878 -0.0000 -0.8090
vn 0.0000 -0.0000 -1.0000
vn 0.5847 -0.0000 -0.8113
vn 0.5878 0.0000 -0.8090
vn 0.9491 -0.0000 -0.3149
vn 0.9511 0.0000 -0.3090
vn 0.9529 -0.0000 0.3031
vn 0.9511 0.0000 0.3090
vn 0.5909 -0.0000 0.8068
vn 0.5878 0.0000 0.8090
vn -0.6033 -0.2102 0.7693
vn -0.5948 -0.0537 0.8021
vn 0.0000 -0.0668 0.9978
vn 0.0000 -0.2636 0.9646
vn -0.9591 -0.0746 0.2731
vn -0.9550 -0.0198 0.2959
vn -0.9439 0.0870 -0.3185
vn -0.9473 0.0214 -0.3196
vn -0.5784 0.2150 -0.7869
vn -0.5823 0.0543 -0.8112
vn -0.0000 0.2636 -0.9646
vn 0.0000 0.0668 -0.9978
vn 0.5784 0.2150 -0.7869
vn 0.5823 0.0543 -0.8112
vn 0.9439 0.0870 -0.3185
vn 0.9473 0.0214 -0.3196
vn 0.9591 -0.0746 0.2731
vn 0.9550 -0.0198 0.2959
vn 0.6033 -0.2102 0.7693
vn 0.5948 -0.0537 0.8021
vn -0.6028 -0.4025 0.6889
vn -0.0000 -0.5045 0.8634
vn -0.9588 -0.1432 0.2451
vn -0.9441 0.1663 -0.2846
vn -0.5786 0.4115 -0.7042
vn -0.0000 0.5045 -0.8634
vn 0.5786 0.4115 -0.7042
vn 0.9441 0.1663 -0.2846
vn 0.9588 -0.1432 0.2451
vn 0.6028 -0.4025 0.6889
vn -0.6026 -0.5643 0.5643
vn -0.0000 -0.7071 0.7071
vn -0.9587 -0.2010 0.2010
vn -0.9442 0.2329 -0.2329
vn -0.5787 0.5767 -0.5767
vn 0.0000 0.7071 -0.7071
vn 0.5787 0.5767 -0.5767
vn 0.9442 0.2329 -0.2329
vn 0.9587 -0.2010 0.2010
vn 0.6026 -0.5643 0.5643
vn -0.6028 -0.6889 0.4025
vn 0.0000 -0.8634 0.5045
vn -0.9588 -0.2451 0.1432
vn -0.9441 0.2846 -0.1663
vn -0.5786 0.7042 -0.4115
vn 0.0000 0.8634 -0.5045
vn 0.5786 0.7042 -0.4115
vn 0.9441 0.2846 -0.1663
vn 0.9588 -0.2451 0.1432
vn 0.6028 -0.6889 0.4025
vn -0.6033 -0.7693 0.2102
vn -0.0000 -0.9646 0.2636
vn -0.9591 -0.2731 0.0746
vn -0.9439 0.3185 -0.0870
vn -0.5784 0.7869 -0.2150
vn 0.0000 0.9646 -0.2636
vn 0.5784 0.7869 -0.2150
vn 0.9439 0.3185 -0.0870
vn 0.9591 -0.2731 0.0746
vn 0.6033 -0.7693 0.2102
vn -0.5948 -0.8021 0.0537
vn -0.0000 -0.9978 0.0668
vn -0.9550 -0.2959 0.0198
vn -0.9473 0.3196 -0.0214
vn -0.5823 0.8112 -0.0543
vn -0.0000 0.9978 -0.0668
vn 0.5823 0.8112 -0.0543
vn 0.9473 0.3196 -0.0214
vn 0.9550 -0.2959 0.0198
vn 0.5948 -0.8021 0.0537
vn -0.5948 -0.8021 -0.0537
vn 0.0000 -0.9978 -0.0668
vn -0.9550 -0.2959 -0.0198
vn -0.9473 0.3196 0.0214
vn -0.5823 0.8112 0.0543
vn -0.0000 0.9978 0.0668
vn 0.5823 0.8112 0.0543
vn 0.9473 0.3196 0.0214
vn 0.9550 -0.2959 -0.0198
vn 0.5948 -0.8021 -0.0537
vn -0.6033 -0.7693 -0.2102
vn 0.0000 -0.9646 -0.2636
vn -0.9591 -0.2731 -0.0746
vn -0.9439 0.3185 0.0870
vn -0.5784 0.7869 0.2150
vn -0.0000 0.9646 0.2636
vn 0.5784 0.7869 0.2150
vn 0.9439 0.3185 0.0870
vn 0.9591 -0.2731 -0.0746
vn 0.6033 -0.7693 -0.2102
vn -0.6028 -0.6889 -0.4025
vn 0.0000 -0.8634 -0.5045
vn -0.9588 -0.2451 -0.1432
vn -0.9441 0.2846 0.1663
vn -0.5786 0.7042 0.4115
vn 0.0000 0.8634 0.5045
vn 0.5786 0.7042 0.4115
vn 0.9441 0.2846 0.1663
vn 0.9588 -0.2451 -0.1432
vn 0.6028 -0.6889 -0.4025
vn -0.6026 -0.5643 -0.5643
vn 0.0000 -0.7071 -0.7071
vn -0.9587 -0.2010 -0.2010
vn -0.9442 0.2329 0.2329
vn -0.5787 0.5767 0.5767
vn -0.0000 0.7071 0.7071
vn 0.5787 0.5767 0.5767
vn 0.9442 0.2329 0.2329
vn 0.9587 -0.2010 -0.2010
vn 0.6026 -0.5643 -0.5643
vn -0.6028 -0.4025 -0.6889
vn 0.0000 -0.5045 -0.8634
vn -0.9588 -0.1432 -0.2451
vn -0.9441 0.1663 0.2846
vn -0.5786 0.4115 0.7042
vn -0.0000 0.5045 0.8634
vn 0.5786 0.4115 0.7042
vn 0.9441 0.1663 0.2846
vn 0.9588 -0.1432 -0.2451
vn 0.6028 -0.4025 -0.6889
vn -0.5999 -0.3113 -0.7370
vn -0.0000 -0.3891 -0.9212
vn -0.9584 -0.1111 -0.2629
vn -0.9430 0.1295 0.3066
vn -0.5750 0.3184 0.7537
vn 0.0000 0.3891 0.9212
vn 0.5750 0.3184 0.7537
vn 0.9430 0.1295 0.3066
vn 0.9584 -0.1111 -0.2629
vn 0.5999 -0.3113 -0.7370
vn 0.0000 -0.1319 -0.9913
vn -0.5974 -0.1051 -0.7950
vn -0.5998 -0.1058 -0.7931
vn 0.0000 -0.1327 -0.9912
vn -0.9577 -0.0373 -0.2855
vn -0.9584 -0.0375 -0.2828
vn -0.9429 0.0421 0.3305
vn -0.9427 0.0425 0.3310
vn -0.5736 0.1029 0.8127
vn -0.5739 0.1035 0.8123
vn 0.0000 0.1254 0.9921
vn -0.0000 0.1259 0.9920
vn 0.5736 0.1029 0.8127
vn 0.5739 0.1035 0.8123
vn 0.9429 0.0421 0.3305
vn 0.9427 0.0425 0.3310
vn 0.9577 -0.0373 -0.2855
vn 0.9584 -0.0375 -0.2828
vn 0.5974 -0.1051 -0.7950
vn 0.5998 -0.1058 -0.7931
vn 0.0375 0.9888 -0.1446
vn -0.0375 0.9888 -0.1446
vn -0.0593 0.9748 -0.2149
vn 0.0037 0.9665 -0.2567
vn 0.0650 0.9754 -0.2105
vn 0.0395 0.9897 -0.1379
vn -0.0395 0.9896 -0.1380
vn -0.0650 0.9754 -0.2106
vn -0.0037 0.9665 -0.2567
vn 0.0593 0.9748 -0.2149
vn 0.0367 -0.9921 0.1201
vn 0.0577 -0.9971 0.0489
vn -0.0026 -1.0000 0.0067
vn -0.0588 -0.9971 0.0491
vn -0.0352 -0.9928 0.1146
vn 0.0352 -0.9928 0.1146
vn 0.0588 -0.9971 0.0491
vn 0.0026 -1.0000 0.0067
vn -0.0577 -0.9971 0.0489
vn -0.0367 -0.9921 0.1201
vn -0.5846 -0.0000 0.8113
vn -0.9491 -0.0000 0.3150
vn -0.9530 -0.0000 -0.3031
vn -0.5909 -0.0000 -0.8067
vn -0.0000 -0.0000 -1.0000
vn 0.5909 0.0000 -0.8067
vn 0.9530 0.0000 -0.3031
vn 0.9491 0.0000 0.3150
vn 0.5846 0.0000 0.8113
vn 0.0000 -1.0000 -0.0000
vn 0.0091 1.0000 0.0030
vn 0.0146 0.9997 0.0203
vn -0.0002 0.9995 0.0309
vn -0.0148 0.9997 0.0202
vn -0.0091 1.0000 0.0029
vn 0.0091 1.0000 0.0029
vn 0.0148 0.9997 0.0202
vn 0.0002 0.9995 0.0309
vn -0.0146 0.9997 0.0203
vn -0.0091 1.0000 0.0030
# 242 vertex normals

g Tap
s 8
f 1//1 2//2 3//2 4//1 
f 2//2 5//3 6//3 3//2 
f 5//3 7//4 8//4 6//3 
f 7//4 9//5 10//5 8//4 
f 9//5 11//6 12//6 10//5 
f 11//6 13//7 14//7 12//6 
f 13//7 15//8 16//8 14//7 
f 15//8 17//9 18//9 16//8 
f 17//9 19//10 20//10 18//9 
f 19//10 21//11 22//11 20//10 
f 21//11 23//12 24//12 22//11 
f 23//12 25//13 26//13 24//12 
f 25//13 27//14 28//14 26//13 
f 27//14 29//15 30//15 28//14 
f 29//15 1//1 4//1 30//15 
s 1
f 31//16 32//16 33//16 34//16 
f 33//16 35//16 34//16 
f 34//16 36//16 37//16 38//16 
f 37//16 39//16 38//16 
f 38//16 40//16 41//16 42//16 
f 41//16 43//16 42//16 
f 34//16 38//16 42//16 31//16 
f 31//16 42//16 44//16 45//16 
s off
f 4//17 3//17 46//17 47//17 
f 3//17 6//17 48//17 46//17 
f 6//17 8//17 49//17 48//17 
f 8//17 10//17 50//17 49//17 
f 10//18 12//18 51//18 50//18 
f 12//18 14//18 52//18 51//18 
f 14//18 16//18 53//18 52//18 
f 16//16 18//16 54//16 53//16 
f 18//16 20//16 55//16 54//16 
f 20//16 22//16 56//16 55//16 
f 22//16 24//16 57//16 56//16 
f 24//19 26//19 58//19 57//19 
f 26//19 28//19 59//19 58//19 
f 28//19 30//19 60//19 59//19 
f 30//19 4//19 47//19 60//19 
f 47//20 46//20 31//20 45//20 
f 46//21 48//21 32//21 31//21 
f 48//22 49//22 33//22 32//22 
f 49//23 50//23 35//23 33//23 
f 50//24 51//24 34//24 35//24 
f 51//25 52//25 36//25 34//25 
f 52//26 53//26 37//26 36//26 
f 53//27 54//27 39//27 37//27 
f 54//28 55//28 38//28 39//28 
f 55//29 56//29 40//29 38//29 
f 56//30 57//30 41//30 40//30 
f 57//31 58//31 43//31 41//31 
f 58//32 59//32 42//32 43//32 
f 59//33 60//33 44//33 42//33 
f 60//34 47//34 45//34 44//34 
s 13
f 61//35 62//36 63//37 64//35 
f 62//36 65//38 66//39 63//37 
s 5
f 65//38 67//40 68//41 66//39 
s 13
f 67//40 69//42 70//43 68//41 
s 29
f 69//42 71//44 72//44 70//43 
s 61
f 71//44 73//45 74//46 72//44 
s 37
f 73//45 75//47 76//48 74//46 
s 5
f 75//47 77//49 78//50 76//48 
s 29
f 77//49 79//51 80//52 78//50 
f 79//51 61//35 64//35 80//52 
s 30
f 81//53 82//54 83//55 84//56 
s 45
f 85//57 86//58 82//54 81//53 
s 47
f 87//59 88//60 86//58 85//57 
s 14
f 89//61 90//62 88//60 87//59 
s 92
f 91//63 92//64 90//62 89//61 
s 180
f 93//65 94//66 92//64 91//63 
s 39
f 95//67 96//68 94//66 93//65 
f 97//69 98//70 96//68 95//67 
s 30
f 99//71 100//72 98//70 97//69 
s 216
f 84//56 83//55 100//72 99//71 
s 226
f 101//73 81//53 84//56 102//74 
s 288
f 103//75 85//57 81//53 101//73 
s 303
f 104//76 87//59 85//57 103//75 
s 70
f 105//77 89//61 87//59 104//76 
s 208
f 106//78 91//63 89//61 105//77 
s 162
f 107//79 93//65 91//63 106//78 
s 10
f 108//80 95//67 93//65 107//79 
s 47
f 109//81 97//69 95//67 108//80 
s 194
f 110//82 99//71 97//69 109//81 
s 736
f 102//74 84//56 99//71 110//82 
s 802
f 111//83 101//73 102//74 112//84 
s 260
f 113//85 103//75 101//73 111//83 
s 295
f 114//86 104//76 103//75 113//85 
s 22
f 115//87 105//77 104//76 114//86 
s 176
f 116//88 106//78 105//77 115//87 
s 296
f 117//89 107//79 106//78 116//88 
s 12
f 118//90 108//80 107//79 117//89 
s 15
f 119//91 109//81 108//80 118//90 
s 546
f 120//92 110//82 109//81 119//91 
s 568
f 112//84 102//74 110//82 120//92 
s 30
f 121//93 111//83 112//84 122//94 
s 68
f 123//95 113//85 111//83 121//93 
s 327
f 124//96 114//86 113//85 123//95 
s 130
f 125//97 115//87 114//86 124//96 
s 392
f 126//98 116//88 115//87 125//97 
s 324
f 127//99 117//89 116//88 126//98 
s 6
f 128//100 118//90 117//89 127//99 
s 15
f 129//101 119//91 118//90 128//100 
s 26
f 130//102 120//92 119//91 129//101 
s 156
f 122//94 112//84 120//92 130//102 
s 198
f 131//103 121//93 122//94 132//104 
s 97
f 133//105 123//95 121//93 131//103 
s 71
f 134//106 124//96 123//95 133//105 
s 10
f 135//107 125//97 124//96 134//106 
s 77
f 136//108 126//98 125//97 135//107 
s 82
f 137//109 127//99 126//98 136//108 
s 34
f 138//110 128//100 127//99 137//109 
s 39
f 139//111 129//101 128//100 138//110 
s 134
f 140//112 130//102 129//101 139//111 
s 452
f 132//104 122//94 130//102 140//112 
s 355
f 141//113 131//103 132//104 142//114 
s 33
f 143//115 133//105 131//103 141//113 
s 99
f 144//116 134//106 133//105 143//115 
s 7
f 145//117 135//107 134//106 144//116 
s 21
f 146//118 136//108 135//107 145//117 
s 48
f 147//119 137//109 136//108 146//118 
s 32
f 148//120 138//110 137//109 147//119 
s 35
f 149//121 139//111 138//110 148//120 
s 323
f 150//122 140//112 139//111 149//121 
s 320
f 142//114 132//104 140//112 150//122 
s 359
f 151//123 141//113 142//114 152//124 
s 39
f 153//125 143//115 141//113 151//123 
s 35
f 154//126 144//116 143//115 153//125 
s 7
f 155//127 145//117 144//116 154//126 
s 31
f 156//128 146//118 145//117 155//127 
s 63
f 157//129 147//119 146//118 156//128 
s 51
f 158//130 148//120 147//119 157//129 
s 35
f 159//131 149//121 148//120 158//130 
s 79
f 160//132 150//122 149//121 159//131 
s 335
f 152//124 142//114 150//122 160//132 
s 14
f 161//133 151//123 152//124 162//134 
s 23
f 163//135 153//125 151//123 161//133 
s 55
f 164//136 154//126 153//125 163//135 
s 38
f 165//137 155//127 154//126 164//136 
s 78
f 166//138 156//128 155//127 165//137 
s 154
f 167//139 157//129 156//128 166//138 
s 51
f 168//140 158//130 157//129 167//139 
f 169//141 159//131 158//130 168//140 
s 14
f 170//142 160//132 159//131 169//141 
s 108
f 162//134 152//124 160//132 170//142 
s 114
f 171//143 161//133 162//134 172//144 
s 144
f 173//145 163//135 161//133 171//143 
s 183
f 174//146 164//136 163//135 173//145 
s 98
f 175//147 165//137 164//136 174//146 
s 200
f 176//148 166//138 165//137 175//147 
s 176
f 177//149 167//139 166//138 176//148 
s 36
f 178//150 168//140 167//139 177//149 
s 55
f 179//151 169//141 168//140 178//150 
s 98
f 180//152 170//142 169//141 179//151 
s 368
f 172//144 162//134 170//142 180//152 
s 402
f 181//153 171//143 172//144 182//154 
s 132
f 183//155 173//145 171//143 181//153 
s 151
f 184//156 174//146 173//145 183//155 
s 10
f 185//157 175//147 174//146 184//156 
s 152
f 186//158 176//148 175//147 185//157 
s 52
f 187//159 177//149 176//148 186//158 
s 6
f 188//160 178//150 177//149 187//159 
s 39
f 189//161 179//151 178//150 188//160 
s 274
f 190//162 180//152 179//151 189//161 
s 792
f 182//154 172//144 180//152 190//162 
s 526
f 191//163 181//153 182//154 192//164 
s 36
f 193//165 183//155 181//153 191//163 
s 167
f 194//166 184//156 183//155 193//165 
s 134
f 195//167 185//157 184//156 194//166 
s 176
f 196//168 186//158 185//157 195//167 
s 98
f 197//169 187//159 186//158 196//168 
s 10
f 198//170 188//160 187//159 197//169 
s 15
f 199//171 189//161 188//160 198//170 
s 522
f 200//172 190//162 189//161 199//171 
s 588
f 192//164 182//154 190//162 200//172 
s 102
f 201//173 191//163 192//164 202//174 
s 49
f 203//175 193//165 191//163 201//173 
s 39
f 204//176 194//166 193//165 203//175 
s 22
f 205//177 195//167 194//166 204//176 
s 113
f 206//178 196//168 195//167 205//177 
s 328
f 207//179 197//169 196//168 206//178 
s 12
f 208//180 198//170 197//169 207//179 
s 15
f 209//181 199//171 198//170 208//180 
s 70
f 210//182 200//172 199//171 209//181 
s 228
f 202//174 192//164 200//172 210//182 
s 179
f 211//183 212//184 213//185 214//186 
s 17
f 212//184 215//187 216//188 213//185 
s 51
f 215//187 217//189 218//190 216//188 
s 39
f 217//189 219//191 220//192 218//190 
s 289
f 219//191 221//193 222//194 220//192 
s 293
f 222//194 221//193 223//195 224//196 
s 261
f 224//196 223//195 225//197 226//198 
s 15
f 226//198 225//197 227//199 228//200 
s 163
f 228//200 227//199 229//201 230//202 
s 161
f 230//202 229//201 211//183 214//186 
s off
f 201//203 202//203 214//203 213//203 
f 202//204 210//204 230//204 214//204 
f 210//205 209//205 228//205 230//205 
f 209//206 208//206 226//206 228//206 
f 208//207 207//207 224//207 226//207 
f 207//208 206//208 222//208 224//208 
f 206//209 205//209 220//209 222//209 
f 205//210 204//210 218//210 220//210 
f 204//211 203//211 216//211 218//211 
f 203//212 201//212 213//212 216//212 
f 231//213 232//213 212//213 211//213 
f 232//214 233//214 215//214 212//214 
f 233//215 234//215 217//215 215//215 
f 234//216 235//216 219//216 217//216 
f 235//217 236//217 221//217 219//217 
f 236//218 237//218 223//218 221//218 
f 237//219 238//219 225//219 223//219 
f 238//220 239//220 227//220 225//220 
f 239//221 240//221 229//221 227//221 
f 240//222 231//222 211//222 229//222 
s 13
f 83//55 82//54 241//223 242//35 
f 82//54 86//58 243//224 241//223 
s 5
f 86//58 88//60 244//225 243//224 
s 13
f 88//60 90//62 245//226 244//225 
s 29
f 90//62 92//64 246//227 245//226 
s 61
f 92//64 94//66 247//228 246//227 
s 37
f 94//66 96//68 248//229 247//228 
s 5
f 96//68 98//70 249//230 248//229 
s 29
f 98//70 100//72 250//231 249//230 
f 100//72 83//55 242//35 250//231 
s off
f 251//232 252//232 64//232 63//232 
f 252//232 253//232 80//232 64//232 
f 253//232 254//232 78//232 80//232 
f 254//232 255//232 76//232 78//232 
f 255//232 256//232 74//232 76//232 
f 256//232 257//232 72//232 74//232 
f 257//232 258//232 70//232 72//232 
f 258//232 259//232 68//232 70//232 
f 259//232 260//232 66//232 68//232 
f 260//232 251//232 63//232 66//232 
f 242//233 241//233 62//233 61//233 
f 241//234 243//234 65//234 62//234 
f 243//235 244//235 67//235 65//235 
f 244//236 245//236 69//236 67//236 
f 245//237 246//237 71//237 69//237 
f 246//238 247//238 73//238 71//238 
f 247//239 248//239 75//239 73//239 
f 248//240 249//240 77//240 75//240 
f 249//241 250//241 79//241 77//241 
f 250//242 242//242 61//242 79//242 
# 240 polygons - 3 triangles

