# 3ds Max Wavefront OBJ Exporter v0.97b - (c)2007 guruware
# File Created: 14.03.2015 13:20:19

#
# object Coffee_Table
#

v  802.2419 -27.3640 288.2091
v  802.2419 -27.3640 361.3907
v  802.2419 -30.1557 361.3908
v  802.2419 -30.1557 288.2091
v  797.6492 -36.6871 358.5457
v  792.2940 -36.6871 358.5457
v  792.2940 -80.4772 358.5457
v  797.6492 -80.4770 358.5457
v  798.8334 -36.6871 345.6506
v  798.8334 -36.6871 357.3366
v  798.8334 -80.4770 357.3367
v  798.8334 -80.4772 345.6506
v  798.8334 -36.6871 291.9150
v  798.8334 -36.6871 303.6012
v  798.8334 -80.4770 303.6012
v  798.8334 -80.4772 291.9151
v  792.2940 -36.6871 290.7061
v  797.6492 -36.6871 290.7061
v  797.6492 -80.4772 290.7061
v  792.2940 -80.4772 290.7061
v  797.6492 -30.2220 358.5457
v  792.2940 -30.2220 358.5457
v  798.8334 -30.2220 345.6506
v  798.8334 -30.2220 357.3366
v  798.8334 -30.2220 291.9150
v  798.8334 -30.2220 303.6012
v  792.2940 -30.2220 290.7061
v  797.6492 -30.2220 290.7061
v  798.8334 -36.6871 344.6459
v  798.8334 -80.4772 344.6460
v  798.8334 -80.4770 358.5457
v  798.8334 -36.6871 358.5457
v  791.1097 -36.6871 358.5457
v  791.1097 -36.6871 357.3366
v  791.1097 -80.4772 357.3367
v  791.1097 -80.4772 358.5457
v  791.1097 -80.4772 344.6460
v  791.1097 -80.4772 345.6506
v  791.1097 -36.6871 345.6506
v  791.1097 -36.6871 344.6459
v  798.8334 -36.6871 290.7061
v  798.8334 -80.4772 290.7061
v  798.8334 -80.4770 304.6058
v  798.8334 -36.6871 304.6057
v  791.1097 -36.6871 304.6057
v  791.1097 -36.6871 303.6012
v  791.1097 -80.4772 303.6012
v  791.1097 -80.4772 304.6058
v  791.1097 -80.4772 290.7061
v  791.1097 -80.4772 291.9151
v  791.1097 -36.6871 291.9150
v  791.1097 -36.6871 290.7061
v  798.8334 -30.2220 358.5457
v  798.8334 -30.2220 344.6459
v  791.1097 -30.2220 345.6506
v  791.1097 -30.2220 344.6459
v  791.1097 -30.2220 357.3366
v  791.1097 -30.2220 358.5457
v  798.8334 -30.2220 304.6057
v  798.8334 -30.2220 290.7061
v  791.1097 -30.2220 291.9150
v  791.1097 -30.2220 290.7061
v  791.1097 -30.2220 303.6012
v  791.1097 -30.2220 304.6057
v  792.2940 -36.6871 344.6459
v  792.2940 -80.4772 344.6460
v  797.6492 -80.4772 344.6460
v  797.6492 -36.6871 344.6459
v  797.6492 -36.6871 304.6057
v  797.6492 -80.4770 304.6058
v  792.2940 -80.4772 304.6058
v  792.2940 -36.6871 304.6057
v  797.6492 -30.2220 344.6459
v  792.2940 -30.2220 344.6459
v  792.2940 -30.2220 304.6057
v  797.6492 -30.2220 304.6057
v  704.3655 -36.6871 291.9150
v  704.3655 -30.2220 291.9150
v  694.0545 -30.1557 361.3908
v  694.0545 -30.1557 288.2091
v  704.3655 -36.6871 357.3367
v  704.3655 -36.6871 345.6506
v  694.0545 -27.3640 288.2091
v  694.0545 -27.3640 361.3907
v  697.8261 -36.6871 358.5457
v  697.8261 -80.4770 358.5457
v  703.1813 -80.4772 358.5457
v  703.1813 -36.6871 358.5457
v  696.6418 -36.6871 345.6506
v  696.6418 -80.4772 345.6506
v  696.6418 -80.4770 357.3367
v  696.6418 -36.6871 357.3367
v  696.6418 -36.6871 291.9150
v  696.6418 -80.4772 291.9151
v  696.6418 -80.4770 303.6012
v  696.6418 -36.6871 303.6012
v  703.1813 -36.6871 290.7061
v  703.1813 -80.4772 290.7061
v  697.8261 -80.4772 290.7061
v  697.8261 -36.6871 290.7060
v  703.1813 -30.2220 358.5457
v  697.8261 -30.2220 358.5457
v  696.6418 -30.2220 357.3367
v  696.6418 -30.2220 345.6506
v  696.6418 -30.2220 303.6012
v  696.6418 -30.2220 291.9150
v  697.8261 -30.2220 290.7060
v  703.1813 -30.2220 290.7061
v  696.6418 -36.6871 344.6460
v  696.6418 -80.4772 344.6460
v  696.6418 -80.4770 358.5457
v  696.6418 -36.6871 358.5457
v  704.3655 -36.6871 358.5457
v  704.3655 -80.4772 358.5457
v  704.3655 -80.4772 357.3367
v  704.3655 -80.4772 344.6460
v  704.3655 -36.6871 344.6460
v  704.3655 -80.4772 345.6506
v  696.6418 -36.6871 290.7060
v  696.6418 -80.4772 290.7061
v  696.6418 -80.4770 304.6058
v  696.6418 -36.6871 304.6058
v  704.3655 -36.6871 304.6058
v  704.3655 -80.4772 304.6058
v  704.3655 -80.4772 303.6012
v  704.3655 -36.6871 303.6012
v  704.3655 -80.4772 290.7061
v  704.3655 -36.6871 290.7061
v  704.3655 -80.4772 291.9151
v  696.6418 -30.2220 358.5457
v  696.6418 -30.2220 344.6460
v  704.3655 -30.2220 344.6460
v  704.3655 -30.2220 345.6506
v  704.3655 -30.2220 357.3367
v  704.3655 -30.2220 358.5457
v  696.6418 -30.2220 304.6058
v  696.6418 -30.2220 290.7060
v  704.3655 -30.2220 290.7061
v  704.3655 -30.2220 303.6012
v  704.3655 -30.2220 304.6058
v  703.1813 -36.6871 344.6460
v  703.1813 -80.4772 344.6460
v  697.8261 -80.4772 344.6460
v  697.8261 -36.6871 344.6460
v  697.8261 -36.6871 304.6058
v  697.8261 -80.4770 304.6058
v  703.1813 -80.4772 304.6058
v  703.1813 -36.6871 304.6058
v  697.8261 -30.2220 344.6460
v  703.1813 -30.2220 344.6460
v  703.1813 -30.2220 304.6058
v  697.8261 -30.2220 304.6058
# 152 vertices

vn 1.0000 -0.0000 -0.0000
vn -0.0000 0.0000 1.0000
vn 1.0000 -0.0000 0.0000
vn 1.0000 0.0000 -0.0000
vn 0.0000 0.0000 -1.0000
vn -1.0000 0.0000 -0.0000
vn -1.0000 -0.0000 -0.0000
vn 0.0000 0.0000 1.0000
vn 0.0000 -0.0000 -1.0000
vn 0.0000 -1.0000 -0.0000
vn -0.0000 -1.0000 -0.0000
vn 0.0000 -1.0000 0.0000
vn 0.0000 1.0000 0.0000
vn -0.0000 0.0000 -1.0000
vn -1.0000 -0.0000 0.0000
# 15 vertex normals

g Coffee_Table
s off
f 1//1 2//1 3//1 4//1 
f 5//2 6//2 7//2 8//2 
f 9//3 10//3 11//3 12//3 
f 13//4 14//4 15//4 16//4 
f 17//5 18//5 19//5 20//5 
f 5//2 21//2 22//2 6//2 
f 9//4 23//4 24//4 10//4 
f 13//4 25//4 26//4 14//4 
f 17//5 27//5 28//5 18//5 
f 29//1 9//1 12//1 30//1 
f 31//1 11//1 10//1 32//1 
f 33//6 34//6 35//6 36//6 
f 37//6 38//6 39//6 40//6 
f 41//4 13//4 16//4 42//4 
f 43//4 15//4 14//4 44//4 
f 45//7 46//7 47//7 48//7 
f 49//7 50//7 51//7 52//7 
f 10//4 24//4 53//4 32//4 
f 23//4 9//4 29//4 54//4 
f 39//6 55//6 56//6 40//6 
f 57//6 34//6 33//6 58//6 
f 14//4 26//4 59//4 44//4 
f 25//4 13//4 41//4 60//4 
f 51//6 61//6 62//6 52//6 
f 63//6 46//6 45//6 64//6 
f 32//8 5//8 8//8 31//8 
f 36//8 7//8 6//8 33//8 
f 40//9 65//9 66//9 37//9 
f 30//9 67//9 68//9 29//9 
f 44//8 69//8 70//8 43//8 
f 48//8 71//8 72//8 45//8 
f 52//5 17//5 20//5 49//5 
f 42//5 19//5 18//5 41//5 
f 6//8 22//8 58//8 33//8 
f 21//8 5//8 32//8 53//8 
f 68//5 73//5 54//5 29//5 
f 74//5 65//5 40//5 56//5 
f 72//8 75//8 64//8 45//8 
f 76//8 69//8 44//8 59//8 
f 18//5 28//5 60//5 41//5 
f 27//5 17//5 52//5 62//5 
f 61//5 51//5 77//5 78//5 
f 69//4 76//4 73//4 68//4 
f 75//6 72//6 65//6 74//6 
f 67//4 70//4 69//4 68//4 
f 3//10 79//10 80//10 4//10 
f 34//11 81//11 82//11 39//11 
f 83//6 80//6 79//6 84//6 
f 80//9 83//9 1//9 4//9 
f 85//8 86//8 87//8 88//8 
f 89//6 90//6 91//6 92//6 
f 93//6 94//6 95//6 96//6 
f 97//9 98//9 99//9 100//9 
f 85//8 88//8 101//8 102//8 
f 89//6 92//6 103//6 104//6 
f 93//6 96//6 105//6 106//6 
f 97//5 100//5 107//5 108//5 
f 89//6 109//6 110//6 90//6 
f 91//6 111//6 112//6 92//6 
f 113//4 114//4 115//4 81//4 
f 116//4 117//4 82//4 118//4 
f 93//6 119//6 120//6 94//6 
f 95//6 121//6 122//6 96//6 
f 123//4 124//4 125//4 126//4 
f 127//4 128//4 77//4 129//4 
f 92//6 112//6 130//6 103//6 
f 104//6 131//6 109//6 89//6 
f 82//4 117//4 132//4 133//4 
f 134//4 135//4 113//4 81//4 
f 96//6 122//6 136//6 105//6 
f 106//6 137//6 119//6 93//6 
f 77//4 128//4 138//4 78//4 
f 139//4 140//4 123//4 126//4 
f 85//8 112//8 111//8 86//8 
f 87//8 114//8 113//8 88//8 
f 141//9 117//9 116//9 142//9 
f 143//9 110//9 109//9 144//9 
f 145//8 122//8 121//8 146//8 
f 147//8 124//8 123//8 148//8 
f 97//5 128//5 127//5 98//5 
f 99//9 120//9 119//9 100//9 
f 88//8 113//8 135//8 101//8 
f 102//8 130//8 112//8 85//8 
f 144//5 109//5 131//5 149//5 
f 150//5 132//5 117//5 141//5 
f 148//8 123//8 140//8 151//8 
f 152//8 136//8 122//8 145//8 
f 100//5 119//5 137//5 107//5 
f 108//5 138//5 128//5 97//5 
f 51//12 46//12 126//12 77//12 
f 46//8 63//8 139//8 126//8 
f 145//6 144//6 149//6 152//6 
f 151//4 150//4 141//4 148//4 
f 146//6 143//6 144//6 145//6 
f 1//13 83//13 84//13 2//13 
f 2//2 84//2 79//2 3//2 
f 55//14 39//14 82//14 133//14 
f 34//8 57//8 134//8 81//8 
f 35//6 34//6 39//6 38//6 
f 47//15 46//15 51//15 50//15 
f 66//6 65//6 72//6 71//6 
f 118//4 82//4 81//4 115//4 
f 129//4 77//4 126//4 125//4 
f 142//4 147//4 148//4 141//4 
# 104 polygons

