# 3ds Max Wavefront OBJ Exporter v0.97b - (c)2007 guruware
# File Created: 25.02.2015 17:56:48

mtllib M_Cabinet_Draw_04.mtl

#
# object M_Cabinet_Draw_004
#

v  0.4801 11.4562 -124.7058
v  0.4801 26.2274 -124.7058
v  0.4801 25.9071 -29.6361
v  0.4801 11.3252 -29.7305
v  -0.9048 10.9442 -28.9116
v  -0.9048 9.8465 -30.6321
v  -0.3548 9.8465 -30.6321
v  -0.3548 10.9442 -28.9116
v  -0.3548 25.9401 -28.7351
v  -0.9048 25.9401 -28.7351
v  -0.9048 27.6607 -29.8328
v  -0.3548 27.6607 -29.8328
v  -0.3548 27.8166 -124.0343
v  -0.9048 27.8166 -124.0343
v  -0.9048 26.4877 -125.5708
v  -0.3548 26.4877 -125.5708
v  -0.3548 11.1959 -125.5708
v  -0.9048 11.1959 -125.5708
v  -0.9048 9.8671 -124.0343
v  -0.3548 9.8671 -124.0343
v  0.1902 26.0635 -124.8826
v  0.1902 11.6202 -124.8826
v  0.1902 27.0300 -123.7545
v  0.1902 26.9169 -30.2512
v  0.1902 25.6472 -29.4434
v  0.1902 11.4374 -29.5741
v  0.1902 10.6374 -30.8559
v  0.1902 10.6537 -123.7545
v  0.4801 26.9229 -123.9023
v  0.4801 26.8418 -30.2139
v  0.4801 10.7475 -30.6652
v  0.4801 10.7608 -123.9023
v  -37.2117 11.3553 -30.7935
v  -37.2117 26.4030 -30.7455
v  -37.2117 26.4030 -123.7887
v  -37.2117 11.3553 -123.7408
v  3.5454 18.6956 -52.7923
v  3.5253 18.6956 -53.1510
v  3.5253 18.9493 -53.0459
v  3.5253 19.0543 -52.7923
v  3.5253 18.9493 -52.5387
v  3.5253 18.6956 -52.4336
v  3.5253 18.4420 -52.5387
v  3.5253 18.3370 -52.7923
v  3.5253 18.4420 -53.0459
v  3.0806 19.7766 -53.8733
v  3.0806 18.6956 -54.3210
v  3.0806 20.2243 -52.7923
v  3.0806 19.7766 -51.7114
v  3.0806 18.6956 -51.2636
v  3.0806 17.6147 -51.7114
v  3.0806 17.1669 -52.7923
v  3.0806 17.6147 -53.8733
v  2.2956 19.9707 -54.0674
v  2.2956 18.6956 -54.5955
v  2.2956 20.4988 -52.7923
v  2.2956 19.9707 -51.5173
v  2.2956 18.6956 -50.9891
v  2.2956 17.4206 -51.5173
v  2.2956 16.8924 -52.7923
v  2.2956 17.4206 -54.0674
v  0.5092 18.6956 -54.0514
v  1.0367 18.6956 -54.0514
v  1.0367 17.8053 -53.6827
v  0.5092 17.8053 -53.6827
v  1.0367 17.4365 -52.7923
v  0.5092 17.4365 -52.7923
v  1.0367 17.8053 -51.9020
v  0.5092 17.8053 -51.9020
v  1.0367 18.6956 -51.5332
v  0.5092 18.6956 -51.5332
v  1.0367 19.5860 -51.9020
v  0.5092 19.5860 -51.9020
v  1.0367 19.9548 -52.7923
v  0.5092 19.9548 -52.7923
v  1.0367 19.5860 -53.6827
v  0.5092 19.5860 -53.6827
v  1.5933 18.6956 -53.8138
v  1.5933 19.4179 -53.5146
v  1.5933 19.7171 -52.7923
v  1.5933 19.4179 -52.0701
v  1.5933 18.6956 -51.7709
v  1.5933 17.9734 -52.0701
v  1.5933 17.6742 -52.7923
v  1.5933 17.9734 -53.5146
v  1.0551 18.6956 -53.8785
v  1.0551 19.4637 -53.5604
v  1.0551 17.9276 -53.5604
v  1.0551 17.6094 -52.7923
v  1.0551 17.9276 -52.0243
v  1.0551 18.6956 -51.7061
v  1.0551 19.4637 -52.0243
v  1.0551 19.7818 -52.7923
v  -37.2117 10.8868 -123.6928
v  -36.0808 10.8868 -123.6928
v  -36.0808 10.8868 -30.8414
v  -37.2117 10.8868 -30.8414
v  -37.2117 10.8868 -29.9270
v  -36.0808 10.8868 -29.9270
v  -36.0808 11.3553 -29.8770
v  -37.2117 11.3553 -29.8770
v  -36.0808 26.4030 -30.7455
v  -36.0808 26.4030 -123.7887
v  -37.2117 26.4030 -124.7072
v  -36.0808 26.4030 -124.7072
v  -36.0808 11.3553 -124.6572
v  -37.2117 11.3553 -124.6572
v  -36.0808 11.3553 -123.7408
v  -36.0808 11.3553 -30.7935
v  -37.2117 10.8868 -124.6072
v  -36.0808 10.8868 -124.6072
v  -37.2117 26.4030 -29.8270
v  -36.0808 26.4030 -29.8270
v  -0.9617 11.3553 -30.7935
v  -0.9617 26.4030 -30.7455
v  -0.9617 26.4030 -29.8270
v  -0.9617 11.3553 -29.8770
v  -0.9617 11.3553 -123.7408
v  -0.9617 10.8867 -123.6928
v  -0.9617 10.8867 -124.6072
v  -0.9617 11.3553 -124.6572
v  -0.9617 10.8867 -30.8414
v  -0.9617 10.8867 -29.9270
v  -0.9617 26.4029 -124.7072
v  -0.9617 26.4029 -123.7887
v  3.5260 18.6956 -103.8925
v  3.5059 18.6956 -104.2512
v  3.5059 18.9493 -104.1461
v  3.5059 19.0543 -103.8925
v  3.5059 18.9493 -103.6389
v  3.5059 18.6956 -103.5338
v  3.5059 18.4420 -103.6389
v  3.5059 18.3370 -103.8925
v  3.5059 18.4420 -104.1461
v  3.0612 19.7766 -104.9734
v  3.0612 18.6956 -105.4212
v  3.0612 20.2243 -103.8925
v  3.0612 19.7766 -102.8115
v  3.0612 18.6956 -102.3638
v  3.0612 17.6147 -102.8115
v  3.0612 17.1670 -103.8925
v  3.0612 17.6147 -104.9734
v  2.2762 19.9707 -105.1675
v  2.2762 18.6956 -105.6957
v  2.2762 20.4988 -103.8925
v  2.2762 19.9707 -102.6174
v  2.2762 18.6956 -102.0893
v  2.2762 17.4206 -102.6174
v  2.2762 16.8924 -103.8925
v  2.2762 17.4206 -105.1675
v  0.4898 18.6956 -105.1516
v  1.0173 18.6956 -105.1516
v  1.0173 17.8053 -104.7828
v  0.4898 17.8053 -104.7828
v  1.0173 17.4365 -103.8925
v  0.4898 17.4365 -103.8925
v  1.0173 17.8053 -103.0022
v  0.4898 17.8053 -103.0022
v  1.0173 18.6956 -102.6334
v  0.4898 18.6956 -102.6334
v  1.0173 19.5860 -103.0022
v  0.4898 19.5860 -103.0022
v  1.0173 19.9548 -103.8925
v  0.4898 19.9548 -103.8925
v  1.0173 19.5860 -104.7828
v  0.4898 19.5860 -104.7828
v  1.5739 18.6956 -104.9139
v  1.5739 19.4179 -104.6147
v  1.5739 19.7171 -103.8925
v  1.5739 19.4179 -103.1702
v  1.5739 18.6956 -102.8711
v  1.5739 17.9734 -103.1702
v  1.5739 17.6742 -103.8925
v  1.5739 17.9734 -104.6148
v  1.0357 18.6956 -104.9787
v  1.0357 19.4637 -104.6605
v  1.0357 17.9276 -104.6605
v  1.0357 17.6095 -103.8925
v  1.0357 17.9276 -103.1244
v  1.0357 18.6956 -102.8063
v  1.0357 19.4637 -103.1244
v  1.0357 19.7818 -103.8925
# 182 vertices

vn 1.0000 0.0000 -0.0000
vn 0.0000 -0.4859 0.8740
vn 0.0000 -0.9600 0.2800
vn 0.0000 0.2745 0.9616
vn 0.0000 0.8765 0.4814
vn 0.0000 0.9374 -0.3483
vn 0.0000 0.4158 -0.9094
vn 0.0000 -0.4158 -0.9094
vn 0.0000 -0.9371 -0.3491
vn 0.6749 0.2408 -0.6975
vn 0.6744 -0.2412 -0.6978
vn 0.8283 -0.2440 -0.5043
vn 0.8278 0.2437 -0.5053
vn 0.8369 0.5137 -0.1891
vn 0.6176 0.7534 -0.2255
vn 0.6226 0.6998 0.3503
vn 0.8428 0.4712 0.2600
vn 0.8132 0.1679 0.5572
vn 0.6766 0.1454 0.7219
vn 0.8332 -0.2804 0.4766
vn 0.6692 -0.2955 0.6818
vn 0.8325 -0.5324 0.1533
vn 0.6124 -0.7720 0.1703
vn 0.8374 -0.5126 -0.1897
vn 0.6167 -0.7539 -0.2266
vn 0.0910 0.8828 -0.4609
vn 0.1672 0.5691 -0.8051
vn 0.1494 0.8276 0.5411
vn 0.2347 0.3954 0.8880
vn 0.1703 -0.6258 0.7612
vn 0.1007 -0.9203 0.3780
vn 0.1717 -0.5660 -0.8064
vn 0.0946 -0.8837 -0.4584
vn -1.0000 0.0000 -0.0000
vn 0.9698 0.0000 -0.2440
vn 0.9698 0.1725 -0.1725
vn 0.9698 0.2440 -0.0000
vn 0.9698 0.1725 0.1725
vn 0.9698 0.0000 0.2440
vn 0.9698 -0.1725 0.1725
vn 0.9698 -0.2440 -0.0000
vn 0.9698 -0.1725 -0.1725
vn 0.9348 0.2512 -0.2512
vn 0.9348 0.0000 -0.3553
vn 0.9348 0.3553 -0.0000
vn 0.9348 0.2512 0.2512
vn 0.9348 0.0000 0.3553
vn 0.9348 -0.2512 0.2512
vn 0.9348 -0.3553 -0.0000
vn 0.9348 -0.2512 -0.2512
vn 0.3301 0.6675 -0.6675
vn 0.3301 0.0000 -0.9439
vn 0.3301 0.9439 -0.0000
vn 0.3301 0.6675 0.6675
vn 0.3301 0.0000 0.9439
vn 0.3301 -0.6675 0.6675
vn 0.3301 -0.9439 -0.0000
vn 0.3301 -0.6675 -0.6675
vn 0.0000 0.0000 -1.0000
vn 0.0000 -0.7071 -0.7071
vn 0.0000 -1.0000 -0.0000
vn 0.0000 -0.7071 0.7071
vn 0.0000 0.0000 1.0000
vn 0.0000 0.7071 0.7071
vn 0.0000 1.0000 -0.0000
vn 0.0000 0.7071 -0.7071
vn -0.7439 0.0000 -0.6683
vn -0.7439 0.4725 -0.4725
vn -0.7439 0.6683 -0.0000
vn -0.7439 0.4725 0.4725
vn -0.7439 0.0000 0.6683
vn -0.7439 -0.4725 0.4725
vn -0.7439 -0.6683 -0.0000
vn -0.7439 -0.4725 -0.4726
vn -0.7439 -0.4725 -0.4725
vn 0.1194 0.0000 -0.9928
vn 0.1194 0.7020 -0.7020
vn 0.1194 -0.7020 -0.7020
vn 0.1194 -0.9928 -0.0000
vn 0.1194 -0.7020 0.7020
vn 0.1194 0.0000 0.9928
vn 0.1194 0.7020 0.7020
vn 0.1194 0.9928 -0.0000
vn 0.9934 -0.0438 -0.1058
vn 0.9934 -0.1058 -0.0438
vn 0.9934 -0.1058 0.0438
vn 0.9934 -0.0438 0.1058
vn 0.9934 0.0438 0.1058
vn 0.9934 0.1058 0.0438
vn 0.9934 0.1058 -0.0438
vn 0.9934 0.0438 -0.1058
vn 0.0000 -0.1061 0.9944
vn 0.0000 -0.0033 -1.0000
vn 0.0000 -0.0033 1.0000
vn 0.0000 -0.1061 -0.9944
vn 0.0000 0.0032 1.0000
vn 0.0000 0.0032 -1.0000
vn 0.1194 -0.7020 -0.7021
# 98 vertex normals

vt 0.0036 0.9940 0.0000
vt 0.0036 0.9114 0.0000
vt 0.5354 0.9132 0.0000
vt 0.5349 0.9948 0.0000
vt 0.0059 0.6829 0.0000
vt 0.0156 0.6829 0.0000
vt 0.0156 0.6860 0.0000
vt 0.0059 0.6860 0.0000
vt 0.0021 0.7994 0.0000
vt 0.0052 0.7994 0.0000
vt 0.0062 0.8840 0.0000
vt 0.0031 0.8840 0.0000
vt 0.0051 0.7896 0.0000
vt 0.0020 0.7897 0.0000
vt 0.5432 0.7857 0.0000
vt 0.5432 0.7888 0.0000
vt 0.0114 0.7896 0.0000
vt 0.0114 0.7865 0.0000
vt 0.5519 0.7887 0.0000
vt 0.5519 0.7856 0.0000
vt 0.5550 0.8826 0.0000
vt 0.5519 0.8826 0.0000
vt 0.5519 0.7963 0.0000
vt 0.5550 0.7963 0.0000
vt 0.5428 0.6812 0.0000
vt 0.5428 0.6843 0.0000
vt 0.5515 0.6843 0.0000
vt 0.5515 0.6812 0.0000
vt 0.5479 0.7757 0.0000
vt 0.5477 0.6942 0.0000
vt 0.5515 0.6918 0.0000
vt 0.5518 0.7781 0.0000
vt 0.5416 0.7812 0.0000
vt 0.0138 0.7823 0.0000
vt 0.0052 0.7768 0.0000
vt 0.0092 0.7752 0.0000
vt 0.0059 0.6922 0.0000
vt 0.0096 0.6950 0.0000
vt 0.0169 0.6904 0.0000
vt 0.5413 0.6888 0.0000
vt 0.0089 0.9061 0.0000
vt 0.0081 0.9076 0.0000
vt 0.0036 0.9078 0.0000
vt 0.0026 0.9061 0.0000
vt 0.5319 0.9061 0.0000
vt 0.5321 0.9079 0.0000
vt 0.5370 0.9147 0.0000
vt 0.5354 0.9080 0.0000
vt 0.5370 0.9076 0.0000
vt 0.5365 0.9942 0.0000
vt 0.0158 0.6921 0.0000
vt 0.0105 0.6921 0.0000
vt 0.0096 0.6904 0.0000
vt 0.5476 0.6888 0.0000
vt 0.5467 0.6904 0.0000
vt 0.5421 0.6904 0.0000
vt 0.0020 0.9931 0.0000
vt 0.0020 0.9123 0.0000
vt 0.5432 0.8901 0.0000
vt 0.0159 0.8902 0.0000
vt 0.0941 0.3727 0.0000
vt 0.0938 0.2887 0.0000
vt 0.6138 0.2887 0.0000
vt 0.6135 0.3727 0.0000
vt 0.7298 0.0482 0.0000
vt 0.7317 0.0475 0.0000
vt 0.7317 0.0490 0.0000
vt 0.7306 0.0502 0.0000
vt 0.7290 0.0501 0.0000
vt 0.7278 0.0490 0.0000
vt 0.7279 0.0474 0.0000
vt 0.7290 0.0463 0.0000
vt 0.7306 0.0463 0.0000
vt 0.7377 0.0517 0.0000
vt 0.7377 0.0449 0.0000
vt 0.7331 0.0565 0.0000
vt 0.7263 0.0564 0.0000
vt 0.7216 0.0515 0.0000
vt 0.7216 0.0448 0.0000
vt 0.7265 0.0400 0.0000
vt 0.7332 0.0401 0.0000
vt 0.6089 0.7102 0.0000
vt 0.6136 0.7114 0.0000
vt 0.6136 0.7178 0.0000
vt 0.6089 0.7178 0.0000
vt 0.6455 0.6859 0.0000
vt 0.6455 0.6812 0.0000
vt 0.6520 0.6812 0.0000
vt 0.6531 0.6859 0.0000
vt 0.6379 0.6859 0.0000
vt 0.6391 0.6812 0.0000
vt 0.5756 0.7558 0.0000
vt 0.5709 0.7558 0.0000
vt 0.5709 0.7494 0.0000
vt 0.5756 0.7482 0.0000
vt 0.5756 0.7634 0.0000
vt 0.5709 0.7623 0.0000
vt 0.7586 0.0476 0.0000
vt 0.7539 0.0476 0.0000
vt 0.7539 0.0412 0.0000
vt 0.7586 0.0400 0.0000
vt 0.7586 0.0552 0.0000
vt 0.7539 0.0540 0.0000
vt 0.6136 0.7243 0.0000
vt 0.6089 0.7254 0.0000
vt 0.6141 0.7414 0.0000
vt 0.6141 0.7444 0.0000
vt 0.6089 0.7444 0.0000
vt 0.6089 0.7414 0.0000
vt 0.7745 0.0431 0.0000
vt 0.7745 0.0400 0.0000
vt 0.7797 0.0400 0.0000
vt 0.7797 0.0431 0.0000
vt 0.7849 0.0400 0.0000
vt 0.7849 0.0431 0.0000
vt 0.8125 0.0051 0.0000
vt 0.8125 0.0020 0.0000
vt 0.8177 0.0020 0.0000
vt 0.8177 0.0051 0.0000
vt 0.8229 0.0020 0.0000
vt 0.8229 0.0051 0.0000
vt 0.6379 0.7049 0.0000
vt 0.6379 0.7018 0.0000
vt 0.6431 0.7018 0.0000
vt 0.6431 0.7049 0.0000
vt 0.6483 0.7018 0.0000
vt 0.6483 0.7049 0.0000
vt 0.6192 0.7414 0.0000
vt 0.6192 0.7444 0.0000
vt 0.5709 0.6967 0.0000
vt 0.5757 0.6948 0.0000
vt 0.5793 0.6984 0.0000
vt 0.5773 0.7032 0.0000
vt 0.5844 0.6985 0.0000
vt 0.5864 0.7033 0.0000
vt 0.5881 0.6949 0.0000
vt 0.5929 0.6969 0.0000
vt 0.5882 0.6897 0.0000
vt 0.5930 0.6878 0.0000
vt 0.5846 0.6860 0.0000
vt 0.5866 0.6813 0.0000
vt 0.5794 0.6860 0.0000
vt 0.5775 0.6812 0.0000
vt 0.5757 0.6896 0.0000
vt 0.5710 0.6876 0.0000
vt 0.6424 0.7208 0.0000
vt 0.6469 0.7208 0.0000
vt 0.6466 0.7239 0.0000
vt 0.6424 0.7239 0.0000
vt 0.6379 0.7208 0.0000
vt 0.6382 0.7239 0.0000
vt 0.8053 0.0431 0.0000
vt 0.8008 0.0431 0.0000
vt 0.8011 0.0400 0.0000
vt 0.8053 0.0400 0.0000
vt 0.8098 0.0431 0.0000
vt 0.8095 0.0400 0.0000
vt 0.7883 0.0755 0.0000
vt 0.7838 0.0755 0.0000
vt 0.7841 0.0724 0.0000
vt 0.7883 0.0724 0.0000
vt 0.7928 0.0755 0.0000
vt 0.7925 0.0724 0.0000
vt 0.6134 0.7635 0.0000
vt 0.6089 0.7635 0.0000
vt 0.6092 0.7603 0.0000
vt 0.6134 0.7603 0.0000
vt 0.6179 0.7635 0.0000
vt 0.6176 0.7603 0.0000
vt 0.5802 0.7193 0.0000
vt 0.5840 0.7231 0.0000
vt 0.5831 0.7235 0.0000
vt 0.5798 0.7202 0.0000
vt 0.5748 0.7192 0.0000
vt 0.5752 0.7201 0.0000
vt 0.5709 0.7230 0.0000
vt 0.5718 0.7234 0.0000
vt 0.5709 0.7284 0.0000
vt 0.5718 0.7280 0.0000
vt 0.5747 0.7323 0.0000
vt 0.5751 0.7314 0.0000
vt 0.5801 0.7323 0.0000
vt 0.5797 0.7314 0.0000
vt 0.5839 0.7285 0.0000
vt 0.5830 0.7281 0.0000
vt 0.5296 0.9980 0.0000
vt 0.0081 0.9979 0.0000
vt 0.6132 0.3754 0.0000
vt 0.6132 0.3817 0.0000
vt 0.0944 0.3817 0.0000
vt 0.0944 0.3754 0.0000
vt 0.0020 0.2887 0.0000
vt 0.0020 0.2823 0.0000
vt 0.0046 0.2823 0.0000
vt 0.0046 0.2887 0.0000
vt 0.0938 0.2823 0.0000
vt 0.6138 0.2823 0.0000
vt 0.6189 0.2887 0.0000
vt 0.6189 0.2823 0.0000
vt 0.7030 0.2823 0.0000
vt 0.7030 0.2887 0.0000
vt 0.6135 0.1983 0.0000
vt 0.0941 0.1983 0.0000
vt 0.6186 0.3727 0.0000
vt 0.0893 0.3754 0.0000
vt 0.0890 0.3727 0.0000
vt 0.0893 0.3817 0.0000
vt 0.6184 0.3754 0.0000
vt 0.6184 0.3817 0.0000
vt 0.0887 0.2887 0.0000
vt 0.0887 0.2823 0.0000
vt 0.0941 0.5806 0.0000
vt 0.0938 0.6646 0.0000
vt 0.0887 0.6646 0.0000
vt 0.0890 0.5806 0.0000
vt 0.6135 0.5806 0.0000
vt 0.6132 0.5779 0.0000
vt 0.6184 0.5779 0.0000
vt 0.6186 0.5806 0.0000
vt 0.7056 0.2823 0.0000
vt 0.7056 0.2887 0.0000
vt 0.0944 0.5779 0.0000
vt 0.0893 0.5779 0.0000
vt 0.6189 0.6646 0.0000
vt 0.6138 0.6646 0.0000
vt 0.7030 0.0861 0.0000
vt 0.7056 0.0861 0.0000
vt 0.6189 0.0861 0.0000
vt 0.6138 0.0861 0.0000
vt 0.4175 0.6653 0.0000
vt 0.4173 0.5812 0.0000
vt 0.0941 0.0020 0.0000
vt 0.6135 0.0020 0.0000
vt 0.2904 0.5812 0.0000
vt 0.2901 0.6653 0.0000
vt 0.0887 0.0861 0.0000
vt 0.0938 0.0861 0.0000
vt 0.0046 0.0861 0.0000
vt 0.0020 0.0861 0.0000
vt 0.7678 0.0102 0.0000
vt 0.7697 0.0094 0.0000
vt 0.7697 0.0110 0.0000
vt 0.7686 0.0122 0.0000
vt 0.7670 0.0121 0.0000
vt 0.7659 0.0110 0.0000
vt 0.7659 0.0094 0.0000
vt 0.7670 0.0083 0.0000
vt 0.7686 0.0083 0.0000
vt 0.7759 0.0137 0.0000
vt 0.7760 0.0069 0.0000
vt 0.7711 0.0184 0.0000
vt 0.7643 0.0184 0.0000
vt 0.7596 0.0135 0.0000
vt 0.7596 0.0068 0.0000
vt 0.7645 0.0020 0.0000
vt 0.7713 0.0021 0.0000
vt 0.7919 0.0020 0.0000
vt 0.7966 0.0032 0.0000
vt 0.7966 0.0096 0.0000
vt 0.7919 0.0096 0.0000
vt 0.7262 0.1006 0.0000
vt 0.7216 0.1006 0.0000
vt 0.7216 0.0941 0.0000
vt 0.7262 0.0930 0.0000
vt 0.7262 0.1082 0.0000
vt 0.7216 0.1070 0.0000
vt 0.7603 0.0771 0.0000
vt 0.7603 0.0724 0.0000
vt 0.7667 0.0724 0.0000
vt 0.7679 0.0771 0.0000
vt 0.7527 0.0771 0.0000
vt 0.7538 0.0724 0.0000
vt 0.7291 0.0771 0.0000
vt 0.7291 0.0724 0.0000
vt 0.7356 0.0724 0.0000
vt 0.7367 0.0771 0.0000
vt 0.7216 0.0771 0.0000
vt 0.7227 0.0724 0.0000
vt 0.7966 0.0160 0.0000
vt 0.7919 0.0172 0.0000
vt 0.6742 0.6812 0.0000
vt 0.6742 0.6843 0.0000
vt 0.6690 0.6843 0.0000
vt 0.6690 0.6812 0.0000
vt 0.7216 0.1272 0.0000
vt 0.7216 0.1241 0.0000
vt 0.7267 0.1241 0.0000
vt 0.7267 0.1272 0.0000
vt 0.7319 0.1241 0.0000
vt 0.7319 0.1272 0.0000
vt 0.5709 0.7824 0.0000
vt 0.5709 0.7794 0.0000
vt 0.5761 0.7794 0.0000
vt 0.5761 0.7824 0.0000
vt 0.5812 0.7794 0.0000
vt 0.5812 0.7824 0.0000
vt 0.7422 0.0961 0.0000
vt 0.7422 0.0930 0.0000
vt 0.7473 0.0930 0.0000
vt 0.7473 0.0961 0.0000
vt 0.7525 0.0930 0.0000
vt 0.7525 0.0961 0.0000
vt 0.6794 0.6812 0.0000
vt 0.6794 0.6843 0.0000
vt 0.7216 0.0175 0.0000
vt 0.7263 0.0156 0.0000
vt 0.7299 0.0192 0.0000
vt 0.7279 0.0240 0.0000
vt 0.7351 0.0193 0.0000
vt 0.7370 0.0241 0.0000
vt 0.7388 0.0157 0.0000
vt 0.7435 0.0177 0.0000
vt 0.7388 0.0105 0.0000
vt 0.7436 0.0086 0.0000
vt 0.7352 0.0068 0.0000
vt 0.7373 0.0021 0.0000
vt 0.7301 0.0068 0.0000
vt 0.7281 0.0020 0.0000
vt 0.7264 0.0104 0.0000
vt 0.7216 0.0084 0.0000
vt 0.8433 0.0020 0.0000
vt 0.8478 0.0020 0.0000
vt 0.8475 0.0051 0.0000
vt 0.8433 0.0051 0.0000
vt 0.8388 0.0020 0.0000
vt 0.8391 0.0051 0.0000
vt 0.6998 0.6843 0.0000
vt 0.6953 0.6843 0.0000
vt 0.6956 0.6812 0.0000
vt 0.6998 0.6812 0.0000
vt 0.7043 0.6843 0.0000
vt 0.7040 0.6812 0.0000
vt 0.7260 0.1463 0.0000
vt 0.7216 0.1463 0.0000
vt 0.7218 0.1431 0.0000
vt 0.7260 0.1431 0.0000
vt 0.7305 0.1463 0.0000
vt 0.7302 0.1431 0.0000
vt 0.5754 0.8015 0.0000
vt 0.5709 0.8015 0.0000
vt 0.5712 0.7984 0.0000
vt 0.5754 0.7984 0.0000
vt 0.5798 0.8015 0.0000
vt 0.5796 0.7984 0.0000
vt 0.6182 0.6813 0.0000
vt 0.6220 0.6851 0.0000
vt 0.6211 0.6855 0.0000
vt 0.6178 0.6821 0.0000
vt 0.6128 0.6812 0.0000
vt 0.6132 0.6821 0.0000
vt 0.6089 0.6850 0.0000
vt 0.6098 0.6854 0.0000
vt 0.6089 0.6904 0.0000
vt 0.6098 0.6900 0.0000
vt 0.6127 0.6942 0.0000
vt 0.6131 0.6934 0.0000
vt 0.6181 0.6943 0.0000
vt 0.6177 0.6934 0.0000
vt 0.6219 0.6905 0.0000
vt 0.6210 0.6901 0.0000
# 360 texture coords

g M_Cabinet_Draw_004
usemtl M_Cabinet_Draw_01
s 1
f 1/1/1 2/2/1 3/3/1 4/4/1 
s 2
f 5/5/2 6/6/3 7/7/3 8/8/2 
f 9/9/4 10/10/4 5/11/2 8/12/2 
f 11/13/5 10/10/4 9/9/4 12/14/5 
f 13/15/6 14/16/6 11/17/5 12/18/5 
f 15/19/7 14/16/6 13/15/6 16/20/7 
f 17/21/8 18/22/8 15/23/7 16/24/7 
f 7/7/3 6/6/3 19/25/9 20/26/9 
f 17/27/8 20/26/9 19/25/9 18/28/8 
s 5
f 21/29/10 22/30/11 17/31/12 16/32/13 
f 13/15/14 23/33/15 21/29/10 16/32/13 
f 24/34/16 23/33/15 13/15/14 12/18/17 
f 9/35/18 25/36/19 24/34/16 12/18/17 
f 9/35/18 8/37/20 26/38/21 25/36/19 
f 7/7/22 27/39/23 26/38/21 8/37/20 
f 7/7/22 20/26/24 28/40/25 27/39/23 
f 17/31/12 22/30/11 28/40/25 20/26/24 
s 6
f 23/41/15 29/42/26 2/43/27 21/44/10 
f 24/45/16 30/46/28 29/42/26 23/41/15 
f 25/47/19 3/3/29 30/48/28 24/49/16 
f 26/50/21 4/4/30 3/3/29 25/47/19 
f 27/39/23 31/51/31 4/52/30 26/53/21 
f 22/54/11 1/55/32 32/56/33 28/40/25 
f 28/40/25 32/56/33 31/51/31 27/39/23 
f 2/2/27 1/1/32 22/57/11 21/58/10 
s off
f 15/23/34 18/22/34 5/11/34 10/10/34 
f 15/23/34 10/10/34 11/17/34 14/16/34 
f 5/11/34 18/22/34 19/59/34 6/60/34 
s 8
f 33/61/34 34/62/34 35/63/34 36/64/34 
s 1
f 37/65/1 38/66/35 39/67/36 
f 37/65/1 39/67/36 40/68/37 
f 37/65/1 40/68/37 41/69/38 
f 37/65/1 41/69/38 42/70/39 
f 37/65/1 42/70/39 43/71/40 
f 37/65/1 43/71/40 44/72/41 
f 37/65/1 44/72/41 45/73/42 
f 37/65/1 45/73/42 38/66/35 
f 46/74/43 39/67/36 38/66/35 47/75/44 
f 48/76/45 40/68/37 39/67/36 46/74/43 
f 49/77/46 41/69/38 40/68/37 48/76/45 
f 50/78/47 42/70/39 41/69/38 49/77/46 
f 51/79/48 43/71/40 42/70/39 50/78/47 
f 52/80/49 44/72/41 43/71/40 51/79/48 
f 53/81/50 45/73/42 44/72/41 52/80/49 
f 47/75/44 38/66/35 45/73/42 53/81/50 
s 2
f 54/82/51 46/83/51 47/84/52 55/85/52 
f 56/86/53 48/87/53 46/88/51 54/89/51 
f 57/90/54 49/91/54 48/87/53 56/86/53 
f 58/92/55 50/93/55 49/94/54 57/95/54 
f 59/96/56 51/97/56 50/93/55 58/92/55 
f 60/98/57 52/99/57 51/100/56 59/101/56 
f 61/102/58 53/103/58 52/99/57 60/98/57 
f 55/85/52 47/84/52 53/104/58 61/105/58 
s 32
f 62/106/59 63/107/59 64/108/60 65/109/60 
f 65/110/60 64/111/60 66/112/61 67/113/61 
f 67/113/61 66/112/61 68/114/62 69/115/62 
f 69/116/62 68/117/62 70/118/63 71/119/63 
f 71/119/63 70/118/63 72/120/64 73/121/64 
f 73/122/64 72/123/64 74/124/65 75/125/65 
f 75/125/65 74/124/65 76/126/66 77/127/66 
f 77/128/66 76/129/66 63/107/59 62/106/59 
s 4
f 55/130/67 78/131/67 79/132/68 54/133/68 
f 54/133/68 79/132/68 80/134/69 56/135/69 
f 56/135/69 80/134/69 81/136/70 57/137/70 
f 57/137/70 81/136/70 82/138/71 58/139/71 
f 58/139/71 82/138/71 83/140/72 59/141/72 
f 59/141/72 83/140/72 84/142/73 60/143/73 
f 60/143/73 84/142/73 85/144/74 61/145/75 
f 61/145/75 85/144/74 78/131/67 55/130/67 
s 16
f 86/146/76 87/147/77 79/148/77 78/149/76 
f 88/150/78 86/146/76 78/149/76 85/151/78 
f 89/152/79 88/153/78 85/154/78 84/155/79 
f 90/156/80 89/152/79 84/155/79 83/157/80 
f 91/158/81 90/159/80 83/160/80 82/161/81 
f 92/162/82 91/158/81 82/161/81 81/163/82 
f 93/164/83 92/165/82 81/166/82 80/167/83 
f 87/168/77 93/164/83 80/167/83 79/169/77 
s off
f 64/170/84 63/171/84 86/172/84 88/173/84 
f 66/174/85 64/170/85 88/173/85 89/175/85 
f 68/176/86 66/174/86 89/175/86 90/177/86 
f 70/178/87 68/176/87 90/177/87 91/179/87 
f 72/180/88 70/178/88 91/179/88 92/181/88 
f 74/182/89 72/180/89 92/181/89 93/183/89 
f 76/184/90 74/182/90 93/183/90 87/185/90 
f 63/171/91 76/184/91 87/185/91 86/172/91 
s 1
f 3/3/1 2/2/1 29/42/1 30/46/1 
f 1/1/1 4/4/1 31/186/1 32/187/1 
s off
f 94/188/61 95/189/61 96/190/61 97/191/61 
f 98/192/92 99/193/92 100/194/92 101/195/92 
f 34/62/65 102/196/65 103/197/65 35/63/65 
f 104/198/93 105/199/93 106/200/93 107/201/93 
f 108/202/1 103/197/1 102/196/1 109/203/1 
s 8
f 36/64/34 35/63/34 104/198/34 107/204/34 
f 33/61/34 97/191/34 98/205/34 101/206/34 
s off
f 97/191/61 96/190/61 99/207/61 98/205/61 
f 95/189/61 94/188/61 110/208/61 111/209/61 
f 35/63/65 103/197/65 105/199/65 104/198/65 
f 102/196/65 34/62/65 112/210/65 113/211/65 
f 114/212/1 115/213/1 116/214/1 117/215/1 
f 118/216/1 119/217/1 120/218/1 121/219/1 
s 8
f 33/61/34 36/64/34 94/188/34 97/191/34 
s off
f 101/195/94 100/194/94 113/211/94 112/210/94 
f 107/201/95 106/200/95 111/220/95 110/221/95 
f 118/216/1 114/212/1 122/222/1 119/217/1 
s 8
f 36/64/34 107/204/34 110/208/34 94/188/34 
f 33/61/34 101/206/34 112/210/34 34/62/34 
s off
f 114/212/1 117/215/1 123/223/1 122/222/1 
f 118/216/1 121/219/1 124/224/1 125/225/1 
f 120/218/61 119/217/61 95/189/61 111/209/61 
f 121/226/95 120/227/95 111/220/95 106/200/95 
f 124/228/93 121/226/93 106/200/93 105/199/93 
f 125/229/65 124/228/65 105/199/65 103/197/65 
f 118/216/96 125/225/96 103/230/96 108/231/96 
f 114/232/65 118/233/65 108/202/65 109/203/65 
f 115/213/97 114/212/97 109/234/97 102/235/97 
f 116/236/65 115/237/65 102/196/65 113/211/65 
f 117/238/94 116/236/94 113/211/94 100/194/94 
f 123/239/92 117/238/92 100/194/92 99/193/92 
f 122/222/61 123/223/61 99/207/61 96/190/61 
f 119/217/61 122/222/61 96/190/61 95/189/61 
s 1
f 126/240/1 127/241/35 128/242/36 
f 126/240/1 128/242/36 129/243/37 
f 126/240/1 129/243/37 130/244/38 
f 126/240/1 130/244/38 131/245/39 
f 126/240/1 131/245/39 132/246/40 
f 126/240/1 132/246/40 133/247/41 
f 126/240/1 133/247/41 134/248/42 
f 126/240/1 134/248/42 127/241/35 
f 135/249/43 128/242/36 127/241/35 136/250/44 
f 137/251/45 129/243/37 128/242/36 135/249/43 
f 138/252/46 130/244/38 129/243/37 137/251/45 
f 139/253/47 131/245/39 130/244/38 138/252/46 
f 140/254/48 132/246/40 131/245/39 139/253/47 
f 141/255/49 133/247/41 132/246/40 140/254/48 
f 142/256/50 134/248/42 133/247/41 141/255/49 
f 136/250/44 127/241/35 134/248/42 142/256/50 
s 2
f 143/257/51 135/258/51 136/259/52 144/260/52 
f 145/261/53 137/262/53 135/263/51 143/264/51 
f 146/265/54 138/266/54 137/262/53 145/261/53 
f 147/267/55 139/268/55 138/269/54 146/270/54 
f 148/271/56 140/272/56 139/268/55 147/267/55 
f 149/273/57 141/274/57 140/275/56 148/276/56 
f 150/277/58 142/278/58 141/274/57 149/273/57 
f 144/260/52 136/259/52 142/279/58 150/280/58 
s 32
f 151/281/59 152/282/59 153/283/60 154/284/60 
f 154/285/60 153/286/60 155/287/61 156/288/61 
f 156/288/61 155/287/61 157/289/62 158/290/62 
f 158/291/62 157/292/62 159/293/63 160/294/63 
f 160/294/63 159/293/63 161/295/64 162/296/64 
f 162/297/64 161/298/64 163/299/65 164/300/65 
f 164/300/65 163/299/65 165/301/66 166/302/66 
f 166/303/66 165/304/66 152/282/59 151/281/59 
s 4
f 144/305/67 167/306/67 168/307/68 143/308/68 
f 143/308/68 168/307/68 169/309/69 145/310/69 
f 145/310/69 169/309/69 170/311/70 146/312/70 
f 146/312/70 170/311/70 171/313/71 147/314/71 
f 147/314/71 171/313/71 172/315/72 148/316/72 
f 148/316/72 172/315/72 173/317/73 149/318/73 
f 149/318/73 173/317/73 174/319/74 150/320/75 
f 150/320/75 174/319/74 167/306/67 144/305/67 
s 16
f 175/321/76 176/322/77 168/323/77 167/324/76 
f 177/325/78 175/321/76 167/324/76 174/326/98 
f 178/327/79 177/328/78 174/329/98 173/330/79 
f 179/331/80 178/327/79 173/330/79 172/332/80 
f 180/333/81 179/334/80 172/335/80 171/336/81 
f 181/337/82 180/333/81 171/336/81 170/338/82 
f 182/339/83 181/340/82 170/341/82 169/342/83 
f 176/343/77 182/339/83 169/342/83 168/344/77 
s off
f 153/345/84 152/346/84 175/347/84 177/348/84 
f 155/349/85 153/345/85 177/348/85 178/350/85 
f 157/351/86 155/349/86 178/350/86 179/352/86 
f 159/353/87 157/351/87 179/352/87 180/354/87 
f 161/355/88 159/353/88 180/354/88 181/356/88 
f 163/357/89 161/355/89 181/356/89 182/358/89 
f 165/359/90 163/357/90 182/358/90 176/360/90 
f 152/346/91 165/359/91 176/360/91 175/347/91 
# 160 polygons - 16 triangles

