# 3ds Max Wavefront OBJ Exporter v0.97b - (c)2007 guruware
# File Created: 14.03.2015 12:41:45

#
# object Dinner_table
#

v  99.8888 -18.1201 33.6297
v  99.8888 -18.1201 125.9008
v  -197.8439 -18.1201 125.9008
v  -197.8439 -18.1201 33.6297
v  99.8888 -15.3283 33.6297
v  -197.8439 -15.3283 33.6297
v  -197.8439 -15.3283 125.9008
v  99.8888 -15.3283 125.9008
v  -193.6080 -24.5687 123.1043
v  -193.6080 -78.4809 123.1043
v  -188.2530 -78.4808 123.1043
v  -188.2530 -24.5687 123.1043
v  -187.0687 -24.5687 121.8953
v  -187.0687 -78.4808 121.8953
v  -187.0687 -78.4809 110.2092
v  -187.0687 -24.5687 110.2092
v  -188.2530 -24.5687 109.2046
v  -188.2530 -78.4809 109.2046
v  -193.6080 -78.4809 109.2046
v  -193.6080 -24.5687 109.2046
v  -194.7923 -24.5687 110.2092
v  -194.7923 -78.4809 110.2092
v  -194.7923 -78.4809 121.8953
v  -194.7923 -24.5687 121.8953
v  90.3514 -24.5687 123.1043
v  90.3514 -78.4809 123.1043
v  95.7066 -78.4808 123.1043
v  95.7066 -24.5687 123.1043
v  96.8908 -24.5687 121.8953
v  96.8908 -78.4808 121.8953
v  96.8908 -78.4809 110.2092
v  96.8908 -24.5687 110.2092
v  95.7066 -24.5687 109.2046
v  95.7066 -78.4809 109.2046
v  90.3514 -78.4809 109.2046
v  90.3514 -24.5687 109.2046
v  89.1671 -24.5687 110.2092
v  89.1671 -78.4809 110.2092
v  89.1671 -78.4809 121.8953
v  89.1671 -24.5687 121.8953
v  90.3514 -24.5687 50.0750
v  90.3514 -78.4809 50.0750
v  95.7066 -78.4808 50.0750
v  95.7066 -24.5687 50.0750
v  96.8908 -24.5687 49.0705
v  96.8908 -78.4808 49.0704
v  96.8908 -78.4809 37.3843
v  96.8908 -24.5687 37.3843
v  95.7066 -24.5687 36.1753
v  95.7066 -78.4809 36.1753
v  90.3514 -78.4809 36.1753
v  90.3514 -24.5687 36.1753
v  89.1671 -24.5687 37.3843
v  89.1671 -78.4809 37.3843
v  89.1671 -78.4809 49.0704
v  89.1671 -24.5687 49.0705
v  -193.6080 -24.5687 50.0750
v  -193.6080 -78.4809 50.0750
v  -188.2530 -78.4808 50.0750
v  -188.2530 -24.5687 50.0750
v  -187.0687 -24.5687 49.0704
v  -187.0687 -78.4808 49.0704
v  -187.0687 -78.4809 37.3843
v  -187.0687 -24.5687 37.3843
v  -188.2530 -24.5687 36.1753
v  -188.2530 -78.4809 36.1753
v  -193.6080 -78.4809 36.1753
v  -193.6080 -24.5687 36.1753
v  -194.7923 -24.5687 37.3843
v  -194.7923 -78.4809 37.3843
v  -194.7923 -78.4809 49.0704
v  -194.7923 -24.5687 49.0704
v  -188.2530 -18.1036 123.1043
v  -193.6080 -18.1036 123.1043
v  -194.7923 -18.1036 121.8953
v  -194.7923 -18.1036 110.2092
v  95.7066 -18.1036 123.1043
v  90.3514 -18.1036 123.1043
v  96.8908 -18.1036 110.2092
v  96.8908 -18.1036 121.8953
v  96.8908 -18.1036 37.3843
v  96.8908 -18.1036 49.0705
v  90.3514 -18.1036 36.1753
v  95.7066 -18.1036 36.1753
v  -193.6080 -18.1036 36.1753
v  -188.2530 -18.1036 36.1753
v  -194.7923 -18.1036 49.0704
v  -194.7923 -18.1036 37.3843
v  -187.0687 -78.4809 109.2046
v  -187.0687 -24.5687 109.2046
v  -187.0687 -24.5687 123.1043
v  -187.0687 -78.4808 123.1043
v  -194.7923 -78.4809 123.1043
v  -194.7923 -24.5687 123.1043
v  -194.7923 -24.5687 109.2046
v  -194.7923 -78.4809 109.2046
v  96.8908 -78.4809 109.2046
v  96.8908 -24.5687 109.2046
v  96.8908 -24.5687 123.1043
v  96.8908 -78.4808 123.1043
v  89.1671 -78.4809 123.1043
v  89.1671 -24.5687 123.1043
v  89.1671 -24.5687 109.2046
v  89.1671 -78.4809 109.2046
v  96.8908 -78.4809 36.1753
v  96.8908 -24.5687 36.1753
v  96.8908 -24.5687 50.0750
v  96.8908 -78.4808 50.0750
v  89.1671 -78.4809 50.0750
v  89.1671 -24.5687 50.0750
v  89.1671 -24.5687 36.1753
v  89.1671 -78.4809 36.1753
v  -187.0687 -78.4809 36.1753
v  -187.0687 -24.5687 36.1753
v  -187.0687 -24.5687 50.0750
v  -187.0687 -78.4808 50.0750
v  -194.7923 -78.4809 50.0750
v  -194.7923 -24.5687 50.0750
v  -194.7923 -24.5687 36.1753
v  -194.7923 -78.4809 36.1753
v  -187.0687 -18.1036 121.8953
v  -187.0687 -18.1036 123.1043
v  -187.0687 -18.1036 110.2092
v  -187.0687 -18.1036 109.2046
v  -194.7923 -18.1036 109.2046
v  -194.7923 -18.1036 123.1043
v  96.8908 -18.1036 123.1043
v  96.8908 -18.1036 109.2046
v  89.1671 -18.1036 110.2092
v  89.1671 -18.1036 109.2046
v  89.1671 -18.1036 121.8953
v  89.1671 -18.1036 123.1043
v  96.8908 -18.1036 50.0750
v  96.8908 -18.1036 36.1753
v  89.1671 -18.1036 37.3843
v  89.1671 -18.1036 36.1753
v  89.1671 -18.1036 49.0705
v  89.1671 -18.1036 50.0750
v  -187.0687 -18.1036 49.0704
v  -187.0687 -18.1036 50.0750
v  -187.0687 -18.1036 37.3843
v  -187.0687 -18.1036 36.1753
v  -194.7923 -18.1036 36.1753
v  -194.7923 -18.1036 50.0750
v  -188.2530 -18.1036 109.2046
v  -193.6080 -18.1036 109.2046
v  95.7066 -18.1036 109.2046
v  90.3514 -18.1036 109.2046
v  90.3514 -18.1036 50.0750
v  95.7066 -18.1036 50.0750
v  -193.6080 -18.1036 50.0750
v  -188.2530 -18.1036 50.0750
# 152 vertices

vn 0.0000 -1.0000 -0.0000
vn 0.0000 1.0000 -0.0000
vn 0.0000 0.0000 1.0000
vn 1.0000 0.0000 -0.0000
vn 0.0000 0.0000 -1.0000
vn -1.0000 0.0000 -0.0000
# 6 vertex normals

g Dinner_table
s 2
f 1//1 2//1 3//1 4//1 
s 4
f 5//2 6//2 7//2 8//2 
s 8
f 8//3 7//3 3//3 2//3 
s 16
f 5//4 8//4 2//4 1//4 
s 32
f 6//5 5//5 1//5 4//5 
s 64
f 7//6 6//6 4//6 3//6 
s 8
f 9//3 10//3 11//3 12//3 
s 16
f 13//4 14//4 15//4 16//4 
s 32
f 17//5 18//5 19//5 20//5 
s 64
f 21//6 22//6 23//6 24//6 
s 8
f 25//3 26//3 27//3 28//3 
s 16
f 29//4 30//4 31//4 32//4 
s 32
f 33//5 34//5 35//5 36//5 
s 64
f 37//6 38//6 39//6 40//6 
s 8
f 41//3 42//3 43//3 44//3 
s 16
f 45//4 46//4 47//4 48//4 
s 32
f 49//5 50//5 51//5 52//5 
s 64
f 53//6 54//6 55//6 56//6 
s 8
f 57//3 58//3 59//3 60//3 
s 16
f 61//4 62//4 63//4 64//4 
s 32
f 65//5 66//5 67//5 68//5 
s 64
f 69//6 70//6 71//6 72//6 
s 8
f 12//3 73//3 74//3 9//3 
s 64
f 24//6 75//6 76//6 21//6 
s 8
f 28//3 77//3 78//3 25//3 
s 16
f 32//4 79//4 80//4 29//4 
f 48//4 81//4 82//4 45//4 
s 32
f 52//5 83//5 84//5 49//5 
f 68//5 85//5 86//5 65//5 
s 64
f 72//6 87//6 88//6 69//6 
s 16
f 16//4 15//4 89//4 90//4 
f 14//4 13//4 91//4 92//4 
s 64
f 24//6 23//6 93//6 94//6 
f 22//6 21//6 95//6 96//6 
s 16
f 32//4 31//4 97//4 98//4 
f 30//4 29//4 99//4 100//4 
s 64
f 40//6 39//6 101//6 102//6 
f 38//6 37//6 103//6 104//6 
s 16
f 48//4 47//4 105//4 106//4 
f 46//4 45//4 107//4 108//4 
s 64
f 56//6 55//6 109//6 110//6 
f 54//6 53//6 111//6 112//6 
s 16
f 64//4 63//4 113//4 114//4 
f 62//4 61//4 115//4 116//4 
s 64
f 72//6 71//6 117//6 118//6 
f 70//6 69//6 119//6 120//6 
s 16
f 13//4 121//4 122//4 91//4 
f 123//4 16//4 90//4 124//4 
s 64
f 21//6 76//6 125//6 95//6 
f 75//6 24//6 94//6 126//6 
s 16
f 29//4 80//4 127//4 99//4 
f 79//4 32//4 98//4 128//4 
s 64
f 37//6 129//6 130//6 103//6 
f 131//6 40//6 102//6 132//6 
s 16
f 45//4 82//4 133//4 107//4 
f 81//4 48//4 106//4 134//4 
s 64
f 53//6 135//6 136//6 111//6 
f 137//6 56//6 110//6 138//6 
s 16
f 61//4 139//4 140//4 115//4 
f 141//4 64//4 114//4 142//4 
s 64
f 69//6 88//6 143//6 119//6 
f 87//6 72//6 118//6 144//6 
s 8
f 12//3 11//3 92//3 91//3 
f 10//3 9//3 94//3 93//3 
s 32
f 20//5 19//5 96//5 95//5 
f 18//5 17//5 90//5 89//5 
s 8
f 28//3 27//3 100//3 99//3 
f 26//3 25//3 102//3 101//3 
s 32
f 36//5 35//5 104//5 103//5 
f 34//5 33//5 98//5 97//5 
s 8
f 44//3 43//3 108//3 107//3 
f 42//3 41//3 110//3 109//3 
s 32
f 52//5 51//5 112//5 111//5 
f 50//5 49//5 106//5 105//5 
s 8
f 60//3 59//3 116//3 115//3 
f 58//3 57//3 118//3 117//3 
s 32
f 68//5 67//5 120//5 119//5 
f 66//5 65//5 114//5 113//5 
s 8
f 9//3 74//3 126//3 94//3 
f 73//3 12//3 91//3 122//3 
s 32
f 17//5 145//5 124//5 90//5 
f 146//5 20//5 95//5 125//5 
s 8
f 25//3 78//3 132//3 102//3 
f 77//3 28//3 99//3 127//3 
s 32
f 33//5 147//5 128//5 98//5 
f 148//5 36//5 103//5 130//5 
s 8
f 41//3 149//3 138//3 110//3 
f 150//3 44//3 107//3 133//3 
s 32
f 49//5 84//5 134//5 106//5 
f 83//5 52//5 111//5 136//5 
s 8
f 57//3 151//3 144//3 118//3 
f 152//3 60//3 115//3 140//3 
s 32
f 65//5 86//5 142//5 114//5 
f 85//5 68//5 119//5 143//5 
s 1
f 37//1 40//1 13//1 16//1 
s 2
f 129//5 37//5 16//5 123//5 
f 40//3 131//3 121//3 13//3 
f 60//4 152//4 145//4 17//4 
s 1
f 57//1 60//1 17//1 20//1 
s 2
f 151//6 57//6 20//6 146//6 
f 64//5 141//5 135//5 53//5 
s 1
f 61//1 64//1 53//1 56//1 
s 2
f 139//3 61//3 56//3 137//3 
f 44//4 150//4 147//4 33//4 
s 1
f 41//1 44//1 33//1 36//1 
s 2
f 149//6 41//6 36//6 148//6 
# 106 polygons

