# 3ds Max Wavefront OBJ Exporter v0.97b - (c)2007 guruware
# File Created: 24.02.2015 17:54:33

#
# object Wardrobe_Door_Left
#

v  -1.0211 89.5337 -238.4960
v  -3.7286 89.5337 -238.4960
v  -3.7286 164.8378 -238.4960
v  -1.0211 164.8378 -238.4960
v  -3.7286 164.8378 -191.2939
v  -1.0211 164.8378 -191.2939
v  -1.6742 94.3875 -230.2169
v  -1.6742 156.9629 -230.2169
v  -1.6742 156.9629 -199.4245
v  -1.6742 94.3875 -199.4245
v  -1.0211 161.7195 -194.7071
v  -1.0211 89.6310 -194.7071
v  -2.6117 92.2101 -197.2471
v  -2.6117 159.1403 -197.2471
v  -1.0211 89.6310 -234.9343
v  -2.6117 92.2101 -232.3943
v  -1.0211 161.7195 -234.9343
v  -2.6117 159.1403 -232.3943
v  -3.7286 89.8222 -191.2939
v  -1.0211 89.8222 -191.2939
v  -1.0211 85.8728 -194.7071
v  -1.0211 86.1110 -191.2939
v  -1.0211 9.8838 -191.2939
v  -1.0211 13.0021 -194.7071
v  -3.7286 9.8838 -238.4960
v  -3.7286 85.5969 -238.4960
v  -1.0211 85.5969 -238.4960
v  -1.0211 9.8838 -238.4960
v  -3.7286 9.8838 -191.2939
v  -1.6742 81.1163 -230.2169
v  -1.6742 81.1163 -199.4245
v  -1.6742 17.7586 -199.4245
v  -1.6742 17.7586 -230.2169
v  -2.6117 83.2936 -197.2471
v  -2.6117 15.5812 -197.2471
v  -2.6117 83.2936 -232.3943
v  -1.0211 85.8728 -234.9343
v  -2.6117 15.5812 -232.3943
v  -1.0211 13.0021 -234.9343
v  -3.7286 86.1110 -191.2939
v  1.8595 87.9192 -236.5000
v  1.8394 87.9192 -236.8587
v  1.8394 88.1728 -236.7536
v  1.8394 88.2779 -236.5000
v  1.8394 88.1728 -236.2464
v  1.8394 87.9192 -236.1413
v  1.8394 87.6656 -236.2464
v  1.8394 87.5605 -236.5000
v  1.8394 87.6656 -236.7536
v  1.3948 87.9192 -238.0287
v  1.3948 89.0001 -237.5810
v  1.3948 89.4479 -236.5000
v  1.3948 89.0001 -235.4191
v  1.3948 87.9192 -234.9713
v  1.3948 86.8382 -235.4191
v  1.3948 86.3905 -236.5000
v  1.3948 86.8382 -237.5810
v  0.6098 87.9192 -238.3032
v  0.6098 89.1942 -237.7751
v  0.6098 89.7224 -236.5000
v  0.6098 89.1942 -235.2250
v  0.6098 87.9192 -234.6968
v  0.6098 86.6441 -235.2250
v  0.6098 86.1160 -236.5000
v  0.6098 86.6441 -237.7751
v  -0.6492 87.0288 -237.3904
v  -1.1766 87.0288 -237.3904
v  -1.1766 87.9192 -237.7591
v  -0.6492 87.9192 -237.7591
v  -0.6492 86.6600 -236.5000
v  -1.1766 86.6600 -236.5000
v  -0.6492 87.0288 -235.6097
v  -1.1766 87.0288 -235.6097
v  -0.6492 87.9192 -235.2409
v  -1.1766 87.9192 -235.2409
v  -0.6492 88.8095 -235.6097
v  -1.1766 88.8095 -235.6097
v  -0.6492 89.1783 -236.5000
v  -1.1766 89.1783 -236.5000
v  -0.6492 88.8095 -237.3904
v  -1.1766 88.8095 -237.3904
v  -0.0925 88.6414 -237.2223
v  -0.0925 87.9192 -237.5215
v  -0.0925 88.9406 -236.5000
v  -0.0925 88.6414 -235.7778
v  -0.0925 87.9192 -235.4786
v  -0.0925 87.1969 -235.7778
v  -0.0925 86.8977 -236.5000
v  -0.0925 87.1969 -237.2223
v  -0.6308 87.9192 -237.5862
v  -0.6308 88.6872 -237.2681
v  -0.6308 87.1511 -237.2681
v  -0.6308 86.8330 -236.5000
v  -0.6308 87.1511 -235.7320
v  -0.6308 87.9192 -235.4138
v  -0.6308 88.6872 -235.7320
v  -0.6308 89.0054 -236.5000
# 97 vertices

vn -0.0000 0.0000 -1.0000
vn 0.0000 1.0000 -0.0000
vn 1.0000 -0.0000 -0.0000
vn 0.8475 -0.0000 -0.5307
vn 0.8511 0.5249 -0.0000
vn 0.8475 -0.0000 0.5307
vn 0.8512 -0.5249 -0.0000
vn 0.9185 -0.0000 0.3955
vn 0.9185 -0.3955 -0.0000
vn 0.9185 -0.0000 -0.3955
vn 0.9185 0.3955 -0.0000
vn 0.0000 0.0000 1.0000
vn 1.0000 -0.0000 0.0000
vn -0.0000 -1.0000 0.0000
vn 0.8511 -0.5249 -0.0000
vn 0.8512 0.5249 -0.0000
vn -0.0000 -0.0000 -1.0000
vn 1.0000 0.0000 -0.0000
vn -1.0000 0.0000 0.0000
vn 0.9698 0.0000 -0.2440
vn 0.9698 0.1725 -0.1725
vn 0.9698 0.2440 -0.0000
vn 0.9698 0.1725 0.1725
vn 0.9698 -0.0000 0.2440
vn 0.9698 -0.1725 0.1725
vn 0.9698 -0.2440 0.0000
vn 0.9698 -0.1725 -0.1725
vn 0.9348 0.0000 -0.3553
vn 0.9348 0.2512 -0.2512
vn 0.9348 0.3553 -0.0000
vn 0.9348 0.2512 0.2512
vn 0.9348 -0.0000 0.3553
vn 0.9348 -0.2512 0.2512
vn 0.9348 -0.3553 -0.0000
vn 0.9348 -0.2512 -0.2512
vn 0.3301 0.0000 -0.9439
vn 0.3301 0.6675 -0.6675
vn 0.3301 0.9439 -0.0000
vn 0.3301 0.6675 0.6675
vn 0.3301 -0.0000 0.9439
vn 0.3301 0.0000 0.9439
vn 0.3301 -0.6675 0.6675
vn 0.3301 -0.9439 -0.0000
vn 0.3301 -0.6675 -0.6675
vn 0.0000 -0.7071 -0.7071
vn -0.0000 -0.7071 -0.7071
vn 0.0000 0.0000 -1.0000
vn 0.0000 -1.0000 -0.0000
vn 0.0000 -0.7071 0.7071
vn 0.0000 -0.0000 1.0000
vn -0.0000 0.7071 0.7071
vn 0.0000 0.7071 0.7071
vn 0.0000 0.7071 -0.7071
vn -0.7439 0.4725 -0.4725
vn -0.7439 0.0000 -0.6683
vn -0.7439 0.6683 -0.0000
vn -0.7439 0.4725 0.4725
vn -0.7439 -0.0000 0.6683
vn -0.7439 -0.4726 0.4725
vn -0.7439 -0.4725 0.4725
vn -0.7439 -0.6683 -0.0000
vn -0.7439 -0.4725 -0.4725
vn 0.1194 0.7020 -0.7020
vn 0.1194 0.0000 -0.9928
vn 0.1194 -0.7020 -0.7020
vn 0.1194 -0.9928 -0.0000
vn 0.1194 -0.7020 0.7020
vn 0.1194 -0.0000 0.9928
vn 0.1194 0.7020 0.7020
vn 0.1194 0.9928 -0.0000
vn 0.9934 -0.0438 -0.1058
vn 0.9934 -0.1058 -0.0438
vn 0.9934 -0.1058 0.0438
vn 0.9934 -0.0438 0.1058
vn 0.9934 0.0438 0.1058
vn 0.9934 0.1058 0.0438
vn 0.9934 0.1058 -0.0438
vn 0.9934 0.0438 -0.1058
# 78 vertex normals

g Wardrobe_Door_Left
s off
f 1//1 2//1 3//1 4//1 
f 3//2 5//2 6//2 4//2 
f 7//3 8//3 9//3 10//3 
f 11//4 12//4 13//4 14//4 
f 12//5 15//5 16//5 13//5 
f 15//6 17//6 18//6 16//6 
f 17//7 11//7 14//7 18//7 
f 14//8 13//8 10//8 9//8 
f 13//9 16//9 7//9 10//9 
f 16//10 18//10 8//10 7//10 
f 18//11 14//11 9//11 8//11 
f 6//12 5//12 19//12 20//12 
f 21//13 22//13 23//13 24//13 
f 25//1 26//1 27//1 28//1 
f 25//14 28//14 23//14 29//14 
f 30//3 31//3 32//3 33//3 
f 34//4 21//4 24//4 35//4 
f 36//15 37//15 21//15 34//15 
f 38//6 39//6 37//6 36//6 
f 35//16 24//16 39//16 38//16 
f 32//8 31//8 34//8 35//8 
f 31//11 30//11 36//11 34//11 
f 30//10 33//10 38//10 36//10 
f 33//9 32//9 35//9 38//9 
f 19//12 40//12 22//12 20//12 
f 21//3 37//3 15//3 12//3 
f 37//3 27//3 1//3 15//3 
f 11//3 4//3 6//3 20//3 
f 20//3 12//3 11//3 
f 1//3 4//3 17//3 15//3 
f 2//17 1//17 27//17 26//17 
f 37//3 39//3 28//3 27//3 
f 29//12 23//12 22//12 40//12 
f 21//13 12//13 20//13 22//13 
f 39//18 24//18 23//18 28//18 
f 2//19 19//19 5//19 3//19 
f 26//19 40//19 19//19 2//19 
f 25//19 29//19 40//19 26//19 
f 11//3 17//3 4//3 
s 1
f 41//3 42//20 43//21 
f 41//3 43//21 44//22 
f 41//3 44//22 45//23 
f 41//3 45//23 46//24 
f 41//3 46//24 47//25 
f 41//3 47//25 48//26 
f 41//3 48//26 49//27 
f 41//3 49//27 42//20 
f 42//20 50//28 51//29 43//21 
f 43//21 51//29 52//30 44//22 
f 44//22 52//30 53//31 45//23 
f 45//23 53//31 54//32 46//24 
f 46//24 54//32 55//33 47//25 
f 47//25 55//33 56//34 48//26 
f 48//26 56//34 57//35 49//27 
f 49//27 57//35 50//28 42//20 
s 2
f 50//36 58//36 59//37 51//37 
f 51//37 59//37 60//38 52//38 
f 52//38 60//38 61//39 53//39 
f 53//39 61//39 62//40 54//41 
f 54//41 62//40 63//42 55//42 
f 55//42 63//42 64//43 56//43 
f 56//43 64//43 65//44 57//44 
f 57//44 65//44 58//36 50//36 
s 32
f 66//45 67//46 68//17 69//47 
f 70//48 71//48 67//46 66//45 
f 72//49 73//49 71//48 70//48 
f 74//12 75//50 73//49 72//49 
f 76//51 77//52 75//50 74//12 
f 78//2 79//2 77//52 76//51 
f 80//53 81//53 79//2 78//2 
f 69//47 68//17 81//53 80//53 
s 4
f 82//54 59//54 58//55 83//55 
f 84//56 60//56 59//54 82//54 
f 85//57 61//57 60//56 84//56 
f 86//58 62//58 61//57 85//57 
f 87//59 63//60 62//58 86//58 
f 88//61 64//61 63//60 87//59 
f 89//62 65//62 64//61 88//61 
f 83//55 58//55 65//62 89//62 
s 16
f 82//63 83//64 90//64 91//63 
f 83//64 89//65 92//65 90//64 
f 89//65 88//66 93//66 92//65 
f 88//66 87//67 94//67 93//66 
f 87//67 86//68 95//68 94//67 
f 86//68 85//69 96//69 95//68 
f 85//69 84//70 97//70 96//69 
f 84//70 82//63 91//63 97//70 
s off
f 90//71 92//71 66//71 69//71 
f 92//72 93//72 70//72 66//72 
f 93//73 94//73 72//73 70//73 
f 94//74 95//74 74//74 72//74 
f 95//75 96//75 76//75 74//75 
f 96//76 97//76 78//76 76//76 
f 97//77 91//77 80//77 78//77 
f 91//78 90//78 69//78 80//78 
# 85 polygons - 10 triangles

