# 3ds Max Wavefront OBJ Exporter v0.97b - (c)2007 guruware
# File Created: 24.02.2015 17:50:36

#
# object M_Cabinet_Draw_02
#

v  0.4801 62.2202 -29.6361
v  0.4801 47.6384 -29.7305
v  0.4801 47.7693 -124.7058
v  0.4801 62.5406 -124.7058
v  -0.3548 46.1596 -30.6321
v  -0.3548 47.2573 -28.9116
v  -0.9048 47.2573 -28.9116
v  -0.9048 46.1596 -30.6321
v  -0.3548 62.2533 -28.7351
v  -0.9048 62.2533 -28.7351
v  -0.3548 63.9738 -29.8328
v  -0.9048 63.9738 -29.8328
v  -0.3548 64.1297 -124.0343
v  -0.9048 64.1297 -124.0343
v  -0.3548 62.8008 -125.5708
v  -0.9048 62.8008 -125.5708
v  -0.3548 47.5091 -125.5708
v  -0.9048 47.5091 -125.5708
v  -0.9048 46.1802 -124.0343
v  -0.3548 46.1802 -124.0343
v  0.1902 62.3766 -124.8826
v  0.1902 47.9333 -124.8826
v  0.1902 63.3431 -123.7545
v  0.1902 63.2300 -30.2512
v  0.1902 61.9603 -29.4434
v  0.1902 47.7505 -29.5741
v  0.1902 46.9505 -30.8559
v  0.1902 46.9668 -123.7545
v  0.4801 63.2360 -123.9023
v  0.4801 63.1549 -30.2139
v  0.4801 47.0606 -30.6652
v  0.4801 47.0739 -123.9023
v  -37.2117 62.7161 -123.7887
v  -37.2117 47.6685 -123.7408
v  -37.2117 47.6685 -30.7935
v  -37.2117 62.7161 -30.7455
v  3.5454 55.0088 -52.7923
v  3.5253 55.0088 -53.1510
v  3.5253 55.2624 -53.0459
v  3.5253 55.3674 -52.7923
v  3.5253 55.2624 -52.5387
v  3.5253 55.0088 -52.4336
v  3.5253 54.7551 -52.5387
v  3.5253 54.6501 -52.7923
v  3.5253 54.7551 -53.0459
v  3.0806 55.0088 -54.3210
v  3.0806 56.0897 -53.8733
v  3.0806 56.5374 -52.7923
v  3.0806 56.0897 -51.7114
v  3.0806 55.0088 -51.2636
v  3.0806 53.9278 -51.7114
v  3.0806 53.4801 -52.7923
v  3.0806 53.9278 -53.8733
v  2.2956 55.0088 -54.5955
v  2.2956 56.2838 -54.0674
v  2.2956 56.8120 -52.7923
v  2.2956 56.2838 -51.5173
v  2.2956 55.0088 -50.9891
v  2.2956 53.7337 -51.5173
v  2.2956 53.2056 -52.7923
v  2.2956 53.7337 -54.0674
v  1.0367 54.1184 -53.6827
v  0.5092 54.1184 -53.6827
v  0.5092 55.0088 -54.0514
v  1.0367 55.0088 -54.0514
v  1.0367 53.7496 -52.7923
v  0.5092 53.7496 -52.7923
v  1.0367 54.1184 -51.9020
v  0.5092 54.1184 -51.9020
v  1.0367 55.0088 -51.5332
v  0.5092 55.0088 -51.5332
v  1.0367 55.8991 -51.9020
v  0.5092 55.8991 -51.9020
v  1.0367 56.2679 -52.7923
v  0.5092 56.2679 -52.7923
v  1.0367 55.8991 -53.6827
v  0.5092 55.8991 -53.6827
v  1.5933 55.7310 -53.5146
v  1.5933 55.0088 -53.8138
v  1.5933 56.0302 -52.7923
v  1.5933 55.7310 -52.0701
v  1.5933 55.0088 -51.7709
v  1.5933 54.2865 -52.0701
v  1.5933 53.9873 -52.7923
v  1.5933 54.2865 -53.5146
v  1.0551 55.0088 -53.8785
v  1.0551 55.7768 -53.5604
v  1.0551 54.2407 -53.5604
v  1.0551 53.9226 -52.7923
v  1.0551 54.2407 -52.0243
v  1.0551 55.0088 -51.7061
v  1.0551 55.7768 -52.0243
v  1.0551 56.0949 -52.7923
v  -36.0808 47.1999 -30.8414
v  -37.2117 47.1999 -30.8414
v  -37.2117 47.1999 -123.6928
v  -36.0808 47.1999 -123.6928
v  -36.0808 47.6685 -29.8771
v  -37.2117 47.6685 -29.8771
v  -37.2117 47.1999 -29.9271
v  -36.0808 47.1999 -29.9271
v  -36.0808 62.7161 -123.7887
v  -36.0808 62.7161 -30.7455
v  -36.0808 47.6685 -124.6572
v  -37.2117 47.6685 -124.6572
v  -37.2117 62.7161 -124.7072
v  -36.0808 62.7161 -124.7072
v  -36.0808 47.6685 -30.7935
v  -36.0808 47.6685 -123.7408
v  -37.2117 47.1999 -124.6072
v  -36.0808 47.1999 -124.6072
v  -37.2117 62.7161 -29.8271
v  -36.0808 62.7161 -29.8271
v  -0.9617 62.7161 -29.8271
v  -0.9617 47.6684 -29.8771
v  -0.9617 47.6684 -30.7935
v  -0.9617 62.7161 -30.7455
v  -0.9617 47.1999 -124.6072
v  -0.9617 47.6684 -124.6572
v  -0.9617 47.6684 -123.7408
v  -0.9617 47.1999 -123.6928
v  -0.9617 47.1999 -30.8414
v  -0.9617 47.1999 -29.9271
v  -0.9617 62.7161 -124.7072
v  -0.9617 62.7161 -123.7887
v  3.5260 55.0088 -103.8925
v  3.5059 55.0088 -104.2512
v  3.5059 55.2624 -104.1461
v  3.5059 55.3674 -103.8925
v  3.5059 55.2624 -103.6389
v  3.5059 55.0088 -103.5338
v  3.5059 54.7551 -103.6389
v  3.5059 54.6501 -103.8925
v  3.5059 54.7551 -104.1461
v  3.0612 55.0088 -105.4212
v  3.0612 56.0897 -104.9734
v  3.0612 56.5374 -103.8925
v  3.0612 56.0897 -102.8116
v  3.0612 55.0088 -102.3638
v  3.0612 53.9278 -102.8116
v  3.0612 53.4801 -103.8925
v  3.0612 53.9278 -104.9734
v  2.2762 55.0088 -105.6957
v  2.2762 56.2838 -105.1675
v  2.2762 56.8120 -103.8925
v  2.2762 56.2838 -102.6174
v  2.2762 55.0088 -102.0893
v  2.2762 53.7337 -102.6174
v  2.2762 53.2056 -103.8925
v  2.2762 53.7337 -105.1676
v  1.0173 54.1184 -104.7828
v  0.4898 54.1184 -104.7828
v  0.4898 55.0088 -105.1516
v  1.0173 55.0088 -105.1516
v  1.0173 53.7496 -103.8925
v  0.4898 53.7496 -103.8925
v  1.0173 54.1184 -103.0022
v  0.4898 54.1184 -103.0022
v  1.0173 55.0088 -102.6334
v  0.4898 55.0088 -102.6334
v  1.0173 55.8991 -103.0022
v  0.4898 55.8991 -103.0022
v  1.0173 56.2679 -103.8925
v  0.4898 56.2679 -103.8925
v  1.0173 55.8991 -104.7828
v  0.4898 55.8991 -104.7828
v  1.5739 55.7310 -104.6147
v  1.5739 55.0088 -104.9139
v  1.5739 56.0302 -103.8925
v  1.5739 55.7310 -103.1702
v  1.5739 55.0088 -102.8711
v  1.5739 54.2865 -103.1702
v  1.5739 53.9873 -103.8925
v  1.5739 54.2865 -104.6148
v  1.0357 55.0088 -104.9787
v  1.0357 55.7768 -104.6605
v  1.0357 54.2407 -104.6605
v  1.0357 53.9226 -103.8925
v  1.0357 54.2407 -103.1245
v  1.0357 55.0088 -102.8063
v  1.0357 55.7768 -103.1245
v  1.0357 56.0949 -103.8925
# 182 vertices

vn 1.0000 -0.0000 -0.0000
vn 1.0000 0.0000 -0.0000
vn 0.0000 -0.9600 0.2800
vn -0.0000 -0.4859 0.8740
vn 0.0000 0.2745 0.9616
vn 0.0000 0.8765 0.4814
vn 0.0000 0.9374 -0.3483
vn 0.0000 0.4158 -0.9094
vn -0.0000 -0.4158 -0.9094
vn -0.0000 -0.9371 -0.3491
vn 0.8283 -0.2440 -0.5043
vn 0.8278 0.2437 -0.5053
vn 0.6749 0.2408 -0.6975
vn 0.6744 -0.2412 -0.6978
vn 0.8369 0.5137 -0.1891
vn 0.6176 0.7534 -0.2255
vn 0.8428 0.4712 0.2600
vn 0.6226 0.6998 0.3503
vn 0.8132 0.1679 0.5572
vn 0.6766 0.1454 0.7219
vn 0.6692 -0.2955 0.6818
vn 0.8332 -0.2804 0.4766
vn 0.8325 -0.5324 0.1533
vn 0.6124 -0.7720 0.1703
vn 0.6167 -0.7539 -0.2266
vn 0.8374 -0.5126 -0.1897
vn 0.1672 0.5691 -0.8051
vn 0.0910 0.8828 -0.4609
vn 0.1494 0.8276 0.5411
vn 0.2347 0.3954 0.8880
vn 0.1703 -0.6258 0.7612
vn 0.1007 -0.9203 0.3780
vn 0.0946 -0.8837 -0.4584
vn 0.1717 -0.5660 -0.8064
vn -1.0000 0.0000 0.0000
vn -1.0000 -0.0000 -0.0000
vn -1.0000 -0.0000 0.0000
vn 0.9698 -0.0000 -0.2440
vn 0.9698 0.1725 -0.1725
vn 0.9698 0.2440 -0.0000
vn 0.9698 0.1725 0.1725
vn 0.9698 0.0000 0.2440
vn 0.9698 -0.1725 0.1725
vn 0.9698 -0.2440 -0.0000
vn 0.9698 -0.1725 -0.1725
vn 0.9348 0.0000 -0.3553
vn 0.9348 0.2512 -0.2512
vn 0.9348 0.3553 -0.0000
vn 0.9348 0.2512 0.2512
vn 0.9348 -0.0000 0.3553
vn 0.9348 -0.2512 0.2512
vn 0.9348 -0.3553 -0.0000
vn 0.9348 -0.2512 -0.2512
vn 0.3301 0.0000 -0.9439
vn 0.3301 -0.0000 -0.9439
vn 0.3301 0.6675 -0.6675
vn 0.3301 0.9439 0.0000
vn 0.3301 0.9439 -0.0000
vn 0.3301 0.6675 0.6675
vn 0.3301 -0.0000 0.9439
vn 0.3301 -0.6675 0.6675
vn 0.3301 -0.9439 -0.0000
vn 0.3301 -0.6675 -0.6675
vn 0.0000 -0.7071 -0.7071
vn -0.0000 -0.7071 -0.7071
vn -0.0000 0.0000 -1.0000
vn 0.0000 0.0000 -1.0000
vn 0.0000 -1.0000 -0.0000
vn -0.0000 -1.0000 -0.0000
vn -0.0000 -0.7071 0.7071
vn 0.0000 -0.7071 0.7071
vn -0.0000 0.0000 1.0000
vn 0.0000 -0.0000 1.0000
vn -0.0000 0.7071 0.7071
vn 0.0000 0.7071 0.7071
vn 0.0000 1.0000 0.0000
vn 0.0000 0.7071 -0.7071
vn -0.7439 0.4725 -0.4725
vn -0.7439 -0.0000 -0.6683
vn -0.7439 0.6683 0.0000
vn -0.7439 0.4725 0.4725
vn -0.7439 -0.0000 0.6683
vn -0.7439 -0.4725 0.4725
vn -0.7439 -0.6683 -0.0000
vn -0.7439 -0.4725 -0.4726
vn -0.7439 -0.4725 -0.4725
vn 0.1194 0.7020 -0.7020
vn 0.1194 -0.0000 -0.9928
vn 0.1194 0.0000 -0.9928
vn 0.1194 -0.7020 -0.7020
vn 0.1194 -0.9928 -0.0000
vn 0.1194 -0.7020 0.7020
vn 0.1194 -0.0000 0.9928
vn 0.1194 0.7020 0.7020
vn 0.1194 0.9928 0.0000
vn 0.1194 0.9928 -0.0000
vn 0.9934 -0.0438 -0.1058
vn 0.9934 -0.1058 -0.0438
vn 0.9934 -0.1058 0.0438
vn 0.9934 -0.0438 0.1058
vn 0.9934 0.0438 0.1058
vn 0.9934 0.1058 0.0438
vn 0.9934 0.1058 -0.0438
vn 0.9934 0.0438 -0.1058
vn 1.0000 -0.0000 0.0000
vn -0.0000 -1.0000 0.0000
vn -0.0000 -0.1061 0.9944
vn 0.0000 1.0000 -0.0000
vn -0.0000 -0.0033 -1.0000
vn -1.0000 0.0000 -0.0000
vn -0.0000 -0.0033 1.0000
vn -0.0000 -0.1061 -0.9944
vn 0.0000 0.0032 1.0000
vn 0.0000 0.0032 -1.0000
vn 0.9348 -0.0000 -0.3553
vn 0.9348 0.3553 0.0000
vn 0.9348 0.0000 0.3553
vn -0.7439 0.0000 -0.6683
vn -0.7439 0.0000 0.6683
vn -0.7439 -0.6683 0.0000
vn 0.1194 -0.7020 -0.7021
vn 0.1194 -0.9928 0.0000
vn 0.1194 0.0000 0.9928
# 123 vertex normals

g M_Cabinet_Draw_02
s 1
f 1//1 2//1 3//1 4//2 
s 2
f 5//3 6//4 7//4 8//3 
f 7//4 6//4 9//5 10//5 
f 9//5 11//6 12//6 10//5 
f 12//6 11//6 13//7 14//7 
f 13//7 15//8 16//8 14//7 
f 16//8 15//8 17//9 18//9 
f 19//10 20//10 5//3 8//3 
f 19//10 18//9 17//9 20//10 
s 5
f 17//11 15//12 21//13 22//14 
f 21//13 15//12 13//15 23//16 
f 13//15 11//17 24//18 23//16 
f 24//18 11//17 9//19 25//20 
f 26//21 25//20 9//19 6//22 
f 26//21 6//22 5//23 27//24 
f 28//25 27//24 5//23 20//26 
f 28//25 20//26 17//11 22//14 
s 6
f 4//27 21//13 23//16 29//28 
f 29//28 23//16 24//18 30//29 
f 30//29 24//18 25//20 1//30 
f 1//30 25//20 26//21 2//31 
f 2//31 26//21 27//24 31//32 
f 32//33 28//25 22//14 3//34 
f 31//32 27//24 28//25 32//33 
f 22//14 21//13 4//27 3//34 
s off
f 7//35 10//35 16//35 18//35 
f 12//36 14//36 16//36 10//36 
f 19//37 8//37 7//37 18//37 
s 8
f 33//35 34//35 35//35 36//35 
s 1
f 37//1 38//38 39//39 
f 37//1 39//39 40//40 
f 37//1 40//40 41//41 
f 37//1 41//41 42//42 
f 37//1 42//42 43//43 
f 37//1 43//43 44//44 
f 37//1 44//44 45//45 
f 37//1 45//45 38//38 
f 38//38 46//46 47//47 39//39 
f 39//39 47//47 48//48 40//40 
f 40//40 48//48 49//49 41//41 
f 41//41 49//49 50//50 42//42 
f 42//42 50//50 51//51 43//43 
f 43//43 51//51 52//52 44//44 
f 44//44 52//52 53//53 45//45 
f 45//45 53//53 46//46 38//38 
s 2
f 46//54 54//55 55//56 47//56 
f 47//56 55//56 56//57 48//58 
f 48//58 56//57 57//59 49//59 
f 49//59 57//59 58//60 50//60 
f 50//60 58//60 59//61 51//61 
f 51//61 59//61 60//62 52//62 
f 52//62 60//62 61//63 53//63 
f 53//63 61//63 54//55 46//54 
s 32
f 62//64 63//65 64//66 65//67 
f 66//68 67//69 63//65 62//64 
f 68//70 69//71 67//69 66//68 
f 70//72 71//73 69//71 68//70 
f 72//74 73//75 71//73 70//72 
f 74//76 75//76 73//75 72//74 
f 76//77 77//77 75//76 74//76 
f 65//67 64//66 77//77 76//77 
s 4
f 78//78 55//78 54//79 79//79 
f 80//80 56//80 55//78 78//78 
f 81//81 57//81 56//80 80//80 
f 82//82 58//82 57//81 81//81 
f 83//83 59//83 58//82 82//82 
f 84//84 60//84 59//83 83//83 
f 85//85 61//86 60//84 84//84 
f 79//79 54//79 61//86 85//85 
s 16
f 78//87 79//88 86//89 87//87 
f 79//88 85//90 88//90 86//89 
f 85//90 84//91 89//91 88//90 
f 84//91 83//92 90//92 89//91 
f 83//92 82//93 91//93 90//92 
f 82//93 81//94 92//94 91//93 
f 81//94 80//95 93//96 92//94 
f 80//95 78//87 87//87 93//96 
s off
f 86//97 88//97 62//97 65//97 
f 88//98 89//98 66//98 62//98 
f 89//99 90//99 68//99 66//99 
f 90//100 91//100 70//100 68//100 
f 91//101 92//101 72//101 70//101 
f 92//102 93//102 74//102 72//102 
f 93//103 87//103 76//103 74//103 
f 87//104 86//104 65//104 76//104 
s 1
f 29//2 30//1 1//1 4//2 
f 31//1 32//105 3//1 2//1 
s off
f 94//106 95//106 96//106 97//106 
f 98//107 99//107 100//107 101//107 
f 102//108 33//108 36//108 103//108 
f 104//109 105//109 106//109 107//109 
f 103//1 108//1 109//1 102//1 
s 8
f 106//110 105//110 34//35 33//35 
f 100//110 99//110 35//35 95//35 
s off
f 101//69 100//69 95//69 94//69 
f 110//69 111//69 97//69 96//69 
f 107//108 106//108 33//108 102//108 
f 112//108 113//108 103//108 36//108 
f 114//1 115//1 116//1 117//1 
f 118//105 119//105 120//105 121//105 
s 8
f 96//35 95//35 35//35 34//35 
s off
f 113//111 112//111 99//111 98//111 
f 111//112 110//112 105//112 104//112 
f 122//1 121//1 120//1 116//1 
s 8
f 110//110 96//35 34//35 105//110 
f 112//110 36//35 35//35 99//110 
s off
f 123//1 122//1 116//1 115//1 
f 124//105 125//105 120//105 119//105 
f 97//69 111//69 118//69 121//69 
f 111//112 104//112 119//112 118//112 
f 104//109 107//109 124//109 119//109 
f 107//108 102//108 125//108 124//108 
f 102//113 109//113 120//113 125//113 
f 109//108 108//108 116//108 120//108 
f 108//114 103//114 117//114 116//114 
f 103//108 113//108 114//108 117//108 
f 113//111 98//111 115//111 114//111 
f 98//107 101//107 123//107 115//107 
f 101//69 94//69 122//69 123//69 
f 94//106 97//106 121//106 122//106 
s 1
f 126//1 127//38 128//39 
f 126//1 128//39 129//40 
f 126//1 129//40 130//41 
f 126//1 130//41 131//42 
f 126//1 131//42 132//43 
f 126//1 132//43 133//44 
f 126//1 133//44 134//45 
f 126//1 134//45 127//38 
f 127//38 135//115 136//47 128//39 
f 128//39 136//47 137//116 129//40 
f 129//40 137//116 138//49 130//41 
f 130//41 138//49 139//117 131//42 
f 131//42 139//117 140//51 132//43 
f 132//43 140//51 141//52 133//44 
f 133//44 141//52 142//53 134//45 
f 134//45 142//53 135//115 127//38 
s 2
f 135//54 143//54 144//56 136//56 
f 136//56 144//56 145//57 137//57 
f 137//57 145//57 146//59 138//59 
f 138//59 146//59 147//60 139//60 
f 139//60 147//60 148//61 140//61 
f 140//61 148//61 149//62 141//62 
f 141//62 149//62 150//63 142//63 
f 142//63 150//63 143//54 135//54 
s 32
f 151//65 152//65 153//66 154//67 
f 155//68 156//68 152//65 151//65 
f 157//71 158//71 156//68 155//68 
f 159//72 160//73 158//71 157//71 
f 161//74 162//75 160//73 159//72 
f 163//108 164//108 162//75 161//74 
f 165//77 166//77 164//108 163//108 
f 154//67 153//66 166//77 165//77 
s 4
f 167//78 144//78 143//118 168//118 
f 169//80 145//80 144//78 167//78 
f 170//81 146//81 145//80 169//80 
f 171//119 147//119 146//81 170//81 
f 172//83 148//83 147//119 171//119 
f 173//120 149//84 148//83 172//83 
f 174//85 150//86 149//84 173//120 
f 168//118 143//118 150//86 174//85 
s 16
f 167//87 168//89 175//88 176//87 
f 168//89 174//121 177//90 175//88 
f 174//121 173//122 178//91 177//90 
f 173//122 172//92 179//92 178//91 
f 172//92 171//123 180//123 179//92 
f 171//123 170//94 181//94 180//123 
f 170//94 169//95 182//95 181//94 
f 169//95 167//87 176//87 182//95 
s off
f 175//97 177//97 151//97 154//97 
f 177//98 178//98 155//98 151//98 
f 178//99 179//99 157//99 155//99 
f 179//100 180//100 159//100 157//100 
f 180//101 181//101 161//101 159//101 
f 181//102 182//102 163//102 161//102 
f 182//103 176//103 165//103 163//103 
f 176//104 175//104 154//104 165//104 
# 160 polygons - 16 triangles

