# 3ds Max Wavefront OBJ Exporter v0.97b - (c)2007 guruware
# File Created: 24.02.2015 17:49:41

#
# object M_Cabinet
#

v  -1.1312 83.6523 -127.0466
v  -37.4191 83.6523 -127.0778
v  -37.5833 83.6523 -27.3803
v  -1.2953 83.6523 -27.3492
v  -39.3867 82.2174 -126.6426
v  -39.3867 82.8174 -126.6426
v  -37.5748 82.8174 -127.9715
v  -37.5748 82.2174 -127.9715
v  -39.4572 82.2174 -28.0518
v  -39.4572 82.8174 -28.0518
v  -0.8242 82.8174 -127.9117
v  -0.8242 82.2174 -127.9117
v  0.7428 82.8174 -126.3752
v  0.7428 82.2174 -126.3752
v  0.6723 82.8174 -27.7843
v  0.6723 82.2174 -27.7843
v  -1.1396 82.8174 -26.4554
v  -1.1396 82.2174 -26.4554
v  -37.8902 82.8174 -26.5153
v  -37.8902 82.2174 -26.5153
v  -1.5535 83.3624 -27.1597
v  -37.3899 83.3624 -27.2035
v  -0.2360 83.3624 -28.1355
v  -0.1848 83.3624 -126.0954
v  -1.3245 83.3624 -127.2234
v  -37.1609 83.3624 -127.2673
v  -38.4785 83.3624 -126.2914
v  -38.5296 83.3624 -28.3316
v  -0.3478 83.6523 -28.0446
v  -0.3111 83.6523 -126.2431
v  -38.3666 83.6523 -126.3823
v  -38.4034 83.6523 -28.1838
v  -37.8810 9.8217 -124.8269
v  -37.8810 82.2183 -124.8269
v  -37.8810 82.2183 -126.3114
v  -37.8810 9.8217 -126.3114
v  -1.0173 9.8217 -124.8769
v  -1.0173 9.8217 -126.3114
v  -1.0173 82.2183 -126.3114
v  -1.0173 82.2183 -124.8769
v  -36.9594 9.8217 -126.3114
v  -36.9594 82.2183 -126.3114
v  -36.8644 82.2183 -124.8269
v  -36.8644 9.8217 -124.8269
v  -37.8810 9.8217 -28.1126
v  -37.8810 82.2183 -28.1126
v  -37.8810 82.2183 -29.6097
v  -37.8810 9.8217 -29.5972
v  -1.0173 9.8217 -28.1126
v  -1.0173 9.8217 -29.5472
v  -1.0173 82.2183 -29.5472
v  -1.0173 82.2183 -28.1126
v  -36.8644 9.8217 -29.5972
v  -36.8644 82.2183 -29.6097
v  -36.9594 82.2183 -28.1126
v  -36.9594 9.8217 -28.1126
v  3.2523 9.8219 -28.0452
v  -42.0083 9.8219 -28.1844
v  -41.1882 9.8219 -27.3809
v  2.3048 9.8219 -27.3497
v  -42.9916 8.3870 -126.6444
v  -42.9916 8.9870 -126.6444
v  -41.1798 8.9870 -127.9733
v  -41.1798 8.3870 -127.9733
v  -43.0622 8.3870 -28.0523
v  -43.0622 8.9870 -28.0523
v  2.7759 8.9870 -127.9135
v  2.7759 8.3870 -127.9135
v  4.3429 8.9870 -126.3770
v  4.3429 8.3870 -126.3770
v  4.2724 8.9870 -27.7849
v  4.2724 8.3870 -27.7849
v  2.4605 8.9870 -26.4560
v  2.4605 8.3870 -26.4560
v  -41.4951 8.9870 -26.5158
v  -41.4951 8.3870 -26.5158
v  3.2890 9.8219 -126.2450
v  2.4690 9.8219 -127.0485
v  -41.0241 9.8219 -127.0796
v  -41.9716 9.8219 -126.3842
v  0.4573 1.1002 -35.1084
v  0.7364 2.5301 -35.3829
v  0.7364 2.5301 -31.8283
v  0.4573 1.1002 -32.1028
v  -0.6771 1.1002 -36.2836
v  -0.3324 2.5253 -36.7584
v  -3.5627 1.1002 -37.0872
v  -3.6381 2.5355 -37.6507
v  -6.3444 1.1002 -35.7524
v  -6.6731 2.5263 -36.1411
v  -7.1815 1.1002 -32.8314
v  -7.4104 2.5343 -32.6898
v  -5.0196 1.1002 -30.5250
v  -5.3258 2.5279 -29.9965
v  -2.0991 1.1002 -30.2571
v  -1.8877 2.5322 -29.7025
v  0.8760 5.4773 -35.5201
v  0.8760 5.4773 -31.6910
v  -0.1600 5.4797 -36.9957
v  -3.6758 5.4747 -37.9324
v  -6.8374 5.4792 -36.3355
v  -7.5249 5.4752 -32.6191
v  -5.4790 5.4784 -29.7323
v  -1.7820 5.4763 -29.4252
v  0.4573 8.3746 -35.1084
v  0.4573 8.3746 -32.1028
v  -0.6771 8.3746 -36.2836
v  -3.5627 8.3746 -37.0872
v  -6.3444 8.3746 -35.7524
v  -7.1815 8.3746 -32.8314
v  -5.0196 8.3746 -30.5250
v  -2.0991 8.3746 -30.2571
v  -31.4325 1.1002 -35.1084
v  -31.1534 2.5301 -35.3829
v  -31.1534 2.5301 -31.8283
v  -31.4325 1.1002 -32.1028
v  -32.5669 1.1002 -36.2836
v  -32.2222 2.5253 -36.7584
v  -35.4524 1.1002 -37.0872
v  -35.5278 2.5355 -37.6507
v  -38.2342 1.1002 -35.7524
v  -38.5629 2.5263 -36.1411
v  -39.0713 1.1002 -32.8314
v  -39.3002 2.5343 -32.6898
v  -36.9093 1.1002 -30.5250
v  -37.2156 2.5279 -29.9965
v  -33.9889 1.1002 -30.2571
v  -33.7775 2.5322 -29.7025
v  -31.0138 5.4773 -35.5201
v  -31.0138 5.4773 -31.6910
v  -32.0498 5.4797 -36.9957
v  -35.5655 5.4747 -37.9324
v  -38.7272 5.4792 -36.3355
v  -39.4146 5.4752 -32.6191
v  -37.3687 5.4784 -29.7323
v  -33.6718 5.4763 -29.4252
v  -31.4325 8.3746 -35.1084
v  -31.4325 8.3746 -32.1028
v  -32.5669 8.3746 -36.2836
v  -35.4524 8.3746 -37.0872
v  -38.2342 8.3746 -35.7524
v  -39.0713 8.3746 -32.8314
v  -36.9093 8.3746 -30.5250
v  -33.9889 8.3746 -30.2571
v  -31.4325 1.1002 -122.9373
v  -31.1534 2.5301 -123.2118
v  -31.1534 2.5301 -119.6572
v  -31.4325 1.1002 -119.9317
v  -32.5669 1.1002 -124.1126
v  -32.2222 2.5253 -124.5873
v  -35.4524 1.1002 -124.9162
v  -35.5278 2.5355 -125.4796
v  -38.2342 1.1002 -123.5813
v  -38.5629 2.5263 -123.9700
v  -39.0713 1.1002 -120.6603
v  -39.3002 2.5343 -120.5188
v  -36.9093 1.1002 -118.3539
v  -37.2156 2.5279 -117.8255
v  -33.9889 1.1002 -118.0861
v  -33.7775 2.5322 -117.5315
v  -31.0138 5.4773 -123.3490
v  -31.0138 5.4773 -119.5200
v  -32.0498 5.4797 -124.8247
v  -35.5655 5.4747 -125.7613
v  -38.7272 5.4792 -124.1644
v  -39.4146 5.4752 -120.4480
v  -37.3687 5.4784 -117.5612
v  -33.6718 5.4763 -117.2542
v  -31.4325 8.3746 -122.9373
v  -31.4325 8.3746 -119.9317
v  -32.5669 8.3746 -124.1126
v  -35.4524 8.3746 -124.9162
v  -38.2342 8.3746 -123.5813
v  -39.0713 8.3746 -120.6603
v  -36.9093 8.3746 -118.3539
v  -33.9889 8.3746 -118.0861
v  0.3547 1.1002 -122.9373
v  0.6338 2.5301 -123.2118
v  0.6338 2.5301 -119.6572
v  0.3547 1.1002 -119.9317
v  -0.7797 1.1002 -124.1126
v  -0.4350 2.5253 -124.5873
v  -3.6652 1.1002 -124.9162
v  -3.7406 2.5355 -125.4796
v  -6.4470 1.1002 -123.5813
v  -6.7757 2.5263 -123.9701
v  -7.2841 1.1002 -120.6603
v  -7.5130 2.5343 -120.5188
v  -5.1221 1.1002 -118.3539
v  -5.4284 2.5279 -117.8255
v  -2.2017 1.1002 -118.0861
v  -1.9903 2.5322 -117.5315
v  0.7734 5.4773 -123.3491
v  0.7734 5.4773 -119.5200
v  -0.2626 5.4797 -124.8247
v  -3.7783 5.4747 -125.7613
v  -6.9400 5.4792 -124.1644
v  -7.6274 5.4752 -120.4480
v  -5.5815 5.4784 -117.5612
v  -1.8846 5.4763 -117.2542
v  0.3547 8.3746 -122.9373
v  0.3547 8.3746 -119.9317
v  -0.7797 8.3746 -124.1126
v  -3.6652 8.3746 -124.9162
v  -6.4470 8.3746 -123.5813
v  -7.2841 8.3746 -120.6603
v  -5.1221 8.3746 -118.3539
v  -2.2017 8.3746 -118.0861
# 208 vertices

vn -0.0000 1.0000 0.0000
vn 0.0000 1.0000 0.0000
vn -0.8919 0.0000 -0.4523
vn -0.3104 0.0000 -0.9506
vn -0.9221 0.0000 0.3869
vn 0.3789 0.0000 -0.9254
vn 0.9221 0.0000 -0.3869
vn 0.8919 0.0000 0.4523
vn 0.3104 0.0000 0.9506
vn -0.3789 0.0000 0.9254
vn -0.2264 0.8376 0.4973
vn 0.1900 0.8279 0.5277
vn 0.1597 0.6779 0.7176
vn -0.2034 0.6748 0.7094
vn 0.4407 0.8719 0.2134
vn 0.6789 0.6682 0.3044
vn 0.4573 0.8704 -0.1822
vn 0.7025 0.6685 -0.2443
vn 0.2261 0.8370 -0.4983
vn 0.2027 0.6750 -0.7094
vn -0.1900 0.8279 -0.5277
vn -0.1597 0.6779 -0.7176
vn -0.4407 0.8719 -0.2134
vn -0.6789 0.6682 -0.3044
vn -0.4566 0.8708 0.1825
vn -0.7025 0.6681 0.2453
vn 0.8191 0.1433 0.5555
vn 0.4575 0.1638 0.8740
vn 0.8509 0.1087 -0.5139
vn 0.5322 0.1513 -0.8330
vn -0.4575 0.1638 -0.8740
vn -0.8191 0.1434 -0.5555
vn -0.8509 0.1086 0.5139
vn -0.5322 0.1513 0.8330
vn 0.0000 -1.0000 -0.0000
vn -0.0000 -1.0000 -0.0000
vn -1.0000 0.0000 -0.0000
vn 1.0000 0.0000 0.0000
vn 0.0000 0.0000 -1.0000
vn -0.0000 0.0000 -1.0000
vn 0.0014 0.0000 1.0000
vn 0.0015 -0.0001 -1.0000
vn 0.0017 -0.0002 -1.0000
vn 0.0016 -0.0001 -1.0000
vn 0.0014 0.0000 -1.0000
vn -0.0000 -0.0000 1.0000
vn 0.0000 -0.0000 1.0000
vn 0.0000 0.0000 1.0000
vn 1.0000 -0.0000 -0.0000
vn 1.0000 0.0000 -0.0000
vn -1.0000 0.0000 0.0000
vn 0.0000 1.0000 -0.0000
vn -0.0000 0.0000 1.0000
vn 0.0000 -1.0000 0.0000
vn 0.3613 0.9066 0.2179
vn -0.3678 0.9109 0.1871
vn -0.1686 0.9013 0.3990
vn 0.1436 0.9041 0.4024
vn -0.8267 0.3894 -0.4061
vn -0.2824 0.3734 -0.8836
vn -0.3105 0.0000 -0.9506
vn -0.8523 0.3944 0.3434
vn 0.3494 0.3722 -0.8599
vn 0.3788 0.0000 -0.9255
vn 0.8523 0.3945 -0.3434
vn 0.8267 0.3894 0.4061
vn 0.2825 0.3734 0.8836
vn 0.3105 0.0000 0.9506
vn -0.3494 0.3721 0.8599
vn -0.3788 0.0000 0.9255
vn 0.3678 0.9109 -0.1872
vn 0.1685 0.9013 -0.3991
vn -0.1434 0.9041 -0.4024
vn -0.3613 0.9067 -0.2178
vn 0.9129 -0.2659 -0.3098
vn 0.9339 -0.1534 -0.3230
vn 0.8837 -0.1633 0.4386
vn 0.8729 -0.2507 0.4185
vn 0.4661 -0.3766 -0.8006
vn 0.5305 -0.2229 -0.8179
vn -0.0828 -0.3644 -0.9275
vn -0.0967 -0.2276 -0.9689
vn -0.7550 -0.3088 -0.5784
vn -0.7725 -0.2003 -0.6026
vn -0.9635 -0.2018 0.1761
vn -0.9701 -0.1233 0.2092
vn -0.3959 -0.3905 0.8311
vn -0.4541 -0.2291 0.8610
vn 0.2569 -0.3672 0.8940
vn 0.2896 -0.2333 0.9283
vn 0.9438 0.0751 -0.3219
vn 0.9002 0.0579 0.4316
vn 0.5680 0.0976 -0.8172
vn -0.1016 0.0879 -0.9909
vn -0.7855 0.0685 -0.6150
vn -0.9704 0.0584 0.2343
vn -0.4892 0.1011 0.8663
vn 0.2987 0.0839 0.9507
vn 0.9186 0.1825 -0.3504
vn 0.8886 0.2091 0.4082
vn 0.5138 0.2608 -0.8173
vn -0.0846 0.2849 -0.9548
vn -0.7498 0.2561 -0.6101
vn -0.9554 0.1612 0.2473
vn -0.4545 0.2658 0.8501
vn 0.2482 0.2945 0.9229
vn 0.9438 0.0751 -0.3218
# 107 vertex normals

g M_Cabinet
s 1
f 1//1 2//2 3//2 4//1 
s 2
f 5//3 6//3 7//4 8//4 
f 5//3 9//5 10//5 6//3 
f 8//4 7//4 11//6 12//6 
f 12//6 11//6 13//7 14//7 
f 14//7 13//7 15//8 16//8 
f 16//8 15//8 17//9 18//9 
f 18//9 17//9 19//10 20//10 
f 9//5 20//10 19//10 10//5 
s 5
f 19//11 17//12 21//13 22//14 
f 17//12 15//15 23//16 21//13 
f 23//16 15//15 13//17 24//18 
f 13//17 11//19 25//20 24//18 
f 11//19 7//21 26//22 25//20 
f 7//21 6//23 27//24 26//22 
f 27//24 6//23 10//25 28//26 
f 28//26 10//25 19//11 22//14 
s 6
f 21//13 23//16 29//27 4//28 
f 23//16 24//18 30//29 29//27 
f 24//18 25//20 1//30 30//29 
f 1//30 25//20 26//22 2//31 
f 26//22 27//24 31//32 2//31 
f 27//24 28//26 32//33 31//32 
f 28//26 22//14 3//34 32//33 
f 3//34 22//14 21//13 4//28 
s off
f 8//35 12//35 18//35 20//35 
f 9//36 5//36 8//36 20//36 
f 14//35 16//35 18//35 12//35 
s 1
f 31//2 32//2 3//2 2//2 
f 29//1 30//1 1//1 4//1 
s 2
f 33//37 34//37 35//37 36//37 
s 4
f 37//38 38//38 39//38 40//38 
s 16
f 41//39 42//39 39//39 38//40 
s 64
f 43//41 44//41 37//41 40//41 
s 2
f 45//37 46//37 47//37 48//37 
s 4
f 49//38 50//38 51//38 52//38 
s 16
f 53//42 54//43 51//44 50//45 
s 64
f 55//46 56//46 49//47 52//48 
s 1
f 33//35 44//35 53//35 48//35 
s 4
f 44//49 43//50 54//49 53//49 
s 1
f 43//1 34//1 47//1 54//1 
s 4
f 34//51 33//51 48//51 47//51 
s off
f 43//52 42//52 35//52 34//52 
s 16
f 36//39 35//39 42//39 41//39 
s off
f 43//52 40//52 39//52 42//52 
f 41//35 44//35 33//35 36//35 
f 38//35 37//35 44//35 41//35 
f 55//52 54//52 47//52 46//52 
s 64
f 46//53 45//53 56//46 55//46 
s off
f 52//2 51//2 54//2 55//2 
f 48//35 53//35 56//35 45//35 
f 50//54 49//54 56//54 53//54 
s 1
f 57//55 58//56 59//57 60//58 
s 2
f 61//3 62//59 63//60 64//61 
f 65//5 66//62 62//59 61//3 
f 64//61 63//60 67//63 68//64 
f 68//64 67//63 69//65 70//7 
f 70//7 69//65 71//66 72//8 
f 72//8 71//66 73//67 74//68 
f 74//68 73//67 75//69 76//70 
f 65//5 76//70 75//69 66//62 
s 7
f 59//57 75//69 73//67 60//58 
f 57//55 60//58 73//67 71//66 
f 57//55 71//66 69//65 77//71 
f 78//72 77//71 69//65 67//63 
f 79//73 78//72 67//63 63//60 
f 79//73 63//60 62//59 80//74 
f 80//74 62//59 66//62 58//56 
f 58//56 66//62 75//69 59//57 
s off
f 64//35 68//35 74//35 76//35 
s 1
f 78//72 79//73 80//74 77//71 
f 57//55 77//71 80//74 58//56 
s off
f 70//35 72//35 74//35 68//35 
f 65//35 61//35 64//35 76//35 
s 1
f 81//75 82//76 83//77 84//78 
s 3
f 81//75 85//79 86//80 82//76 
s 1
f 85//79 87//81 88//82 86//80 
s 3
f 87//81 89//83 90//84 88//82 
s 1
f 89//83 91//85 92//86 90//84 
s 3
f 91//85 93//87 94//88 92//86 
s 1
f 93//87 95//89 96//90 94//88 
s 3
f 95//89 84//78 83//77 96//90 
s 1
f 97//91 98//92 83//77 82//76 
s 3
f 82//76 86//80 99//93 97//91 
s 1
f 86//80 88//82 100//94 99//93 
s 3
f 88//82 90//84 101//95 100//94 
s 1
f 90//84 92//86 102//96 101//95 
s 3
f 92//86 94//88 103//97 102//96 
s 1
f 94//88 96//90 104//98 103//97 
s 3
f 96//90 83//77 98//92 104//98 
s 1
f 105//99 106//100 98//92 97//91 
s 3
f 97//91 99//93 107//101 105//99 
s 1
f 99//93 100//94 108//102 107//101 
s 3
f 100//94 101//95 109//103 108//102 
s 1
f 101//95 102//96 110//104 109//103 
s 3
f 102//96 103//97 111//105 110//104 
s 1
f 103//97 104//98 112//106 111//105 
s 3
f 104//98 98//92 106//100 112//106 
s 1
f 113//75 114//76 115//77 116//78 
s 3
f 113//75 117//79 118//80 114//76 
s 1
f 117//79 119//81 120//82 118//80 
s 3
f 119//81 121//83 122//84 120//82 
s 1
f 121//83 123//85 124//86 122//84 
s 3
f 123//85 125//87 126//88 124//86 
s 1
f 125//87 127//89 128//90 126//88 
s 3
f 127//89 116//78 115//77 128//90 
s 1
f 129//107 130//92 115//77 114//76 
s 3
f 114//76 118//80 131//93 129//107 
s 1
f 118//80 120//82 132//94 131//93 
s 3
f 120//82 122//84 133//95 132//94 
s 1
f 122//84 124//86 134//96 133//95 
s 3
f 124//86 126//88 135//97 134//96 
s 1
f 126//88 128//90 136//98 135//97 
s 3
f 128//90 115//77 130//92 136//98 
s 1
f 137//99 138//100 130//92 129//107 
s 3
f 129//107 131//93 139//101 137//99 
s 1
f 131//93 132//94 140//102 139//101 
s 3
f 132//94 133//95 141//103 140//102 
s 1
f 133//95 134//96 142//104 141//103 
s 3
f 134//96 135//97 143//105 142//104 
s 1
f 135//97 136//98 144//106 143//105 
s 3
f 136//98 130//92 138//100 144//106 
s 1
f 145//75 146//76 147//77 148//78 
s 3
f 145//75 149//79 150//80 146//76 
s 1
f 149//79 151//81 152//82 150//80 
s 3
f 151//81 153//83 154//84 152//82 
s 1
f 153//83 155//85 156//86 154//84 
s 3
f 155//85 157//87 158//88 156//86 
s 1
f 157//87 159//89 160//90 158//88 
s 3
f 159//89 148//78 147//77 160//90 
s 1
f 161//107 162//92 147//77 146//76 
s 3
f 146//76 150//80 163//93 161//107 
s 1
f 150//80 152//82 164//94 163//93 
s 3
f 152//82 154//84 165//95 164//94 
s 1
f 154//84 156//86 166//96 165//95 
s 3
f 156//86 158//88 167//97 166//96 
s 1
f 158//88 160//90 168//98 167//97 
s 3
f 160//90 147//77 162//92 168//98 
s 1
f 169//99 170//100 162//92 161//107 
s 3
f 161//107 163//93 171//101 169//99 
s 1
f 163//93 164//94 172//102 171//101 
s 3
f 164//94 165//95 173//103 172//102 
s 1
f 165//95 166//96 174//104 173//103 
s 3
f 166//96 167//97 175//105 174//104 
s 1
f 167//97 168//98 176//106 175//105 
s 3
f 168//98 162//92 170//100 176//106 
s 1
f 177//75 178//76 179//77 180//78 
s 3
f 177//75 181//79 182//80 178//76 
s 1
f 181//79 183//81 184//82 182//80 
s 3
f 183//81 185//83 186//84 184//82 
s 1
f 185//83 187//85 188//86 186//84 
s 3
f 187//85 189//87 190//88 188//86 
s 1
f 189//87 191//89 192//90 190//88 
s 3
f 191//89 180//78 179//77 192//90 
s 1
f 193//107 194//92 179//77 178//76 
s 3
f 178//76 182//80 195//93 193//107 
s 1
f 182//80 184//82 196//94 195//93 
s 3
f 184//82 186//84 197//95 196//94 
s 1
f 186//84 188//86 198//96 197//95 
s 3
f 188//86 190//88 199//97 198//96 
s 1
f 190//88 192//90 200//98 199//97 
s 3
f 192//90 179//77 194//92 200//98 
s 1
f 201//99 202//100 194//92 193//107 
s 3
f 193//107 195//93 203//101 201//99 
s 1
f 195//93 196//94 204//102 203//101 
s 3
f 196//94 197//95 205//103 204//102 
s 1
f 197//95 198//96 206//104 205//103 
s 3
f 198//96 199//97 207//105 206//104 
s 1
f 199//97 200//98 208//106 207//105 
s 3
f 200//98 194//92 202//100 208//106 
# 170 polygons

